<?xml version="1.0" encoding="UTF-8" standalone="no"?>
<!DOCTYPE svg PUBLIC "-//W3C//DTD SVG 1.1//EN" "http://www.w3.org/Graphics/SVG/1.1/DTD/svg11.dtd">
<svg width="100%" height="100%" viewBox="0 0 12 10" version="1.1" xmlns="http://www.w3.org/2000/svg" xmlns:xlink="http://www.w3.org/1999/xlink" xml:space="preserve" xmlns:serif="http://www.serif.com/" style="fill-rule:evenodd;clip-rule:evenodd;stroke-linejoin:round;stroke-miterlimit:2;">
    <g transform="matrix(1,0,0,1,-3.80334,-1.11022e-16)">
        <g transform="matrix(0.417032,0,0,0.417032,8.74451,-0.938323)">
            <path d="M14.036,5.732C14.627,5.437 15,4.833 15,4.173L15,3.994C15,3.03 14.22,2.25 13.256,2.25C12.506,2.25 11.84,2.73 11.603,3.442C11.423,3.982 11.331,4.5 10.709,4.5L-7.558,4.5C-8.2,4.5 -8.298,3.901 -8.451,3.442C-8.688,2.73 -9.355,2.25 -10.105,2.25C-11.068,2.25 -11.848,3.03 -11.848,3.994L-11.848,4.173C-11.848,4.833 -11.475,5.437 -10.885,5.732C-10.664,5.842 -10.664,6.158 -10.885,6.268C-11.475,6.563 -11.848,7.167 -11.848,7.827L-11.848,8.006C-11.848,8.97 -11.068,9.75 -10.105,9.75C-9.355,9.75 -8.689,9.27 -8.451,8.558C-8.271,8.018 -8.179,7.5 -7.558,7.5L10.709,7.5C11.351,7.5 11.449,8.099 11.603,8.558C11.84,9.27 12.506,9.75 13.256,9.75C14.219,9.75 15,8.97 15,8.006L15,7.827C15,7.167 14.627,6.563 14.036,6.268C13.815,6.158 13.815,5.842 14.036,5.732Z" style="fill:white;fill-rule:nonzero;"/>
        </g>
        <g transform="matrix(0.417032,0,0,0.417032,8.74451,2.33692)">
            <path d="M14.036,5.732C14.627,5.437 15,4.833 15,4.173L15,3.994C15,3.03 14.22,2.25 13.256,2.25C12.506,2.25 11.84,2.73 11.603,3.442C11.423,3.982 11.331,4.5 10.709,4.5L-7.558,4.5C-8.2,4.5 -8.298,3.901 -8.451,3.442C-8.688,2.73 -9.355,2.25 -10.105,2.25C-11.068,2.25 -11.848,3.03 -11.848,3.994L-11.848,4.173C-11.848,4.833 -11.475,5.437 -10.885,5.732C-10.664,5.842 -10.664,6.158 -10.885,6.268C-11.475,6.563 -11.848,7.167 -11.848,7.827L-11.848,8.006C-11.848,8.97 -11.068,9.75 -10.105,9.75C-9.355,9.75 -8.689,9.27 -8.451,8.558C-8.271,8.018 -8.179,7.5 -7.558,7.5L10.709,7.5C11.351,7.5 11.449,8.099 11.603,8.558C11.84,9.27 12.506,9.75 13.256,9.75C14.219,9.75 15,8.97 15,8.006L15,7.827C15,7.167 14.627,6.563 14.036,6.268C13.815,6.158 13.815,5.842 14.036,5.732Z" style="fill:white;fill-rule:nonzero;"/>
        </g>
        <g transform="matrix(0.417032,0,0,0.417032,8.74451,5.61216)">
            <path d="M14.036,5.732C14.627,5.437 15,4.833 15,4.173L15,3.994C15,3.03 14.22,2.25 13.256,2.25C12.506,2.25 11.84,2.73 11.603,3.442C11.423,3.982 11.331,4.5 10.709,4.5L-7.558,4.5C-8.2,4.5 -8.298,3.901 -8.451,3.442C-8.688,2.73 -9.355,2.25 -10.105,2.25C-11.068,2.25 -11.848,3.03 -11.848,3.994L-11.848,4.173C-11.848,4.833 -11.475,5.437 -10.885,5.732C-10.664,5.842 -10.664,6.158 -10.885,6.268C-11.475,6.563 -11.848,7.167 -11.848,7.827L-11.848,8.006C-11.848,8.97 -11.068,9.75 -10.105,9.75C-9.355,9.75 -8.689,9.27 -8.451,8.558C-8.271,8.018 -8.179,7.5 -7.558,7.5L10.709,7.5C11.351,7.5 11.449,8.099 11.603,8.558C11.84,9.27 12.506,9.75 13.256,9.75C14.219,9.75 15,8.97 15,8.006L15,7.827C15,7.167 14.627,6.563 14.036,6.268C13.815,6.158 13.815,5.842 14.036,5.732Z" style="fill:white;fill-rule:nonzero;"/>
        </g>
    </g>
</svg>
