<?xml version="1.0" encoding="UTF-8" standalone="no"?>
<!DOCTYPE svg PUBLIC "-//W3C//DTD SVG 1.1//EN" "http://www.w3.org/Graphics/SVG/1.1/DTD/svg11.dtd">
<svg width="100%" height="100%" viewBox="0 0 442 520" version="1.1" xmlns="http://www.w3.org/2000/svg" xmlns:xlink="http://www.w3.org/1999/xlink" xml:space="preserve" xmlns:serif="http://www.serif.com/" style="fill-rule:evenodd;clip-rule:evenodd;stroke-linejoin:round;stroke-miterlimit:2;">
    <g id="svgPath">
        <path d="M95.5,8.075C66.304,23.753 60.593,28.12 46.899,45.232C37.003,57.597 31.707,66.536 26.514,79.636L22.382,90.06L16.441,92.871C13.173,94.418 9.947,96.351 9.272,97.168C8.414,98.205 7.962,104.646 7.772,118.54L7.5,138.426L3.75,139.313L0,140.199L0,201.763L4.25,202.835C10.561,204.427 12.233,206.029 12.335,210.577C12.402,213.54 11.76,215.208 9.712,217.396C6.406,220.927 6.386,221.579 9.37,228.78C11.912,234.914 15.218,244.884 16.972,251.705C18.27,256.755 20.301,259 23.571,259C26.554,259 26.573,259.386 23.787,263.299C21.985,265.83 21.499,268.13 21.168,275.707C20.907,281.672 21.2,286.07 21.986,287.966C24.059,292.97 32.497,298.307 43.211,301.39C46.352,302.294 51.97,305.12 55.696,307.67C62.5,312.329 69.456,315.937 71.711,315.978C73.762,316.015 77.111,311.793 80.219,305.25C81.852,301.813 83.383,299 83.621,299C84.724,299 110.757,317.035 112.716,319.157C117.305,324.127 118.422,329.345 118.463,346L118.5,361.5L122.162,369.167C126.685,378.64 128.477,379.818 134.043,376.978C136.401,375.775 138.941,375.164 140.079,375.525C141.16,375.868 143.417,375.848 145.094,375.479C148.023,374.836 148.117,374.653 147.474,370.844C147.105,368.663 145.723,364.12 144.402,360.749C143.081,357.379 142,354.233 142,353.759C142,353.086 147.925,350 149.218,350C149.373,350 149.5,354.163 149.5,359.25C149.5,367.543 149.785,368.985 152.254,373.185C153.768,375.761 156.341,378.819 157.971,379.979C160.725,381.94 161.104,381.978 163.338,380.514C165.364,379.187 166.438,379.125 170.16,380.12C175.091,381.439 181.187,380.685 182.971,378.534C183.873,377.448 183.781,375.186 182.572,368.733C180.448,357.396 180.6,353.402 183.383,347.424C185.893,342.034 188.019,340.652 195.374,339.626C197.505,339.329 200.015,338.391 200.953,337.543C203.274,335.442 205.547,335.605 208.941,338.115C212.08,340.435 215.727,340.402 224.162,337.974L228.824,336.632L236.72,341.816C244.938,347.211 247.898,348.033 250,345.5C251.845,343.277 253.638,343.625 260.715,347.583C267.043,351.122 267.102,351.195 265.561,353.548C264.357,355.386 264,358.788 264,368.442C264,380.718 264.048,380.985 266.526,382.609C268.853,384.134 269.191,384.137 270.838,382.646C271.821,381.757 273.408,378.547 274.364,375.514C275.32,372.481 276.529,370 277.051,370C277.573,370 278,369.581 278,369.069C278,368.002 242.322,288.989 241.444,288.111C241.127,287.793 239.284,289.438 237.35,291.767C235.416,294.095 233.411,296 232.894,296C232.378,296 228.077,291.95 223.337,287C213.616,276.848 211.918,276.242 205.39,280.591C203.25,282.016 198.518,286.111 194.873,289.692C188.9,295.56 188.032,296.088 186.075,295.04C183.015,293.403 182.168,290.506 180.964,277.56C180.22,269.572 180.22,263.12 180.963,255.847C182.43,241.49 183.274,239.296 187.818,238.034C192.1,236.844 207.365,236.768 214.25,237.901C216.863,238.331 219,238.567 219,238.424C219,238.282 218.116,236.104 217.036,233.583C215.44,229.861 214.595,229 212.536,229C209.579,229 209.321,228.217 211.704,226.475C213.302,225.306 213.29,224.971 211.513,221.03L209.62,216.83L205.06,217.51C202.552,217.885 192.516,219.943 182.757,222.084C172.999,224.225 159.724,226.661 153.257,227.498C131.44,230.32 74.592,236.867 62,238.008C55.125,238.631 44.579,239.784 38.564,240.57C21.696,242.775 22.755,243.069 20.294,235.499L18.181,228.999L55.34,216.852C75.778,210.171 95.425,203.248 99,201.467C102.575,199.687 109.534,196.807 114.464,195.068C119.394,193.328 123.669,191.644 123.964,191.324C124.95,190.256 114.633,192.133 101,195.501C76.514,201.551 24.388,213 21.331,213C20.61,213 21.055,205.986 21.92,203.711C22.678,201.717 23.952,201.083 29.17,200.102C32.651,199.448 39.55,197.796 44.5,196.432C49.45,195.068 60.657,192.639 69.405,191.034C84.013,188.354 89,186.498 85.705,184.97C83.15,183.785 35.52,185.767 27.662,187.386C16.195,189.747 13.386,189.54 9.923,186.077C6.652,182.805 6.144,178.233 8.14,170C8.739,167.525 9.195,160.929 9.152,155.342C9.092,147.506 9.414,144.901 10.559,143.951C11.712,142.994 21.733,142.858 55.272,143.341C79.047,143.684 102.325,144.395 107,144.921C135.98,148.181 155,149.515 155,148.288C155,147.793 125.188,143.437 88.75,138.607C52.313,133.777 21.536,129.603 20.357,129.331C18.35,128.868 18.168,128.015 17.495,115.906C16.551,98.931 16.014,99.551 30.986,100.314C69.088,102.255 143.86,108.496 154.25,110.602C155.762,110.908 157,111.548 157,112.023C157,112.499 154.525,114.368 151.5,116.178C143.08,121.214 144.02,122.266 155.869,121.071C160.391,120.615 164.351,119.982 164.669,119.664C165.27,119.064 111.882,0.06 111,0.035C110.725,0.027 103.75,3.645 95.5,8.075M227.5,18.614C205.908,20.926 192.168,23.652 178.5,28.333C164.521,33.121 142.981,41.637 141.741,42.866C141.092,43.509 193.061,160.164 194.924,162.246C195.702,163.115 215.518,161.926 257.5,158.49C274,157.139 291.775,155.776 297,155.461C302.225,155.145 316.175,153.583 328,151.99C339.825,150.396 357.825,147.965 368,146.587C390.775,143.503 405.545,142.504 414.388,143.451C420.489,144.104 421.312,144.465 422.988,147.221C425.737,151.741 426.903,160.364 427.643,181.654C428.404,203.525 429.595,200.997 417.5,203.172C409.716,204.571 389.418,204.76 328.5,204.002C290.975,203.535 276.674,204.116 278.657,206.026C279.54,206.877 312.448,208.295 371.5,210.027C407.833,211.092 415.117,211.961 421.798,216.023C425.13,218.05 425.492,219.246 426.406,231.221C426.879,237.418 426.712,238.189 424.261,241.102L421.602,244.261L410.551,243.648C404.473,243.311 394.427,242.738 388.227,242.375C380.914,241.946 373.185,242.182 366.227,243.045C360.327,243.776 352.688,244.28 349.25,244.165C345.523,244.04 343,244.368 343,244.978C343,245.54 343.319,246 343.709,246C344.098,246 356.811,247.834 371.959,250.076C404.155,254.841 432,260.097 432,261.41C432,261.817 422.906,282.4 422.57,282.751C421.644,283.722 355.607,280.59 334.5,278.574C320.2,277.209 295.675,275.381 280,274.512C264.325,273.643 249.988,272.663 248.141,272.334C244.967,271.769 244.822,271.868 245.517,274.118C247.74,281.311 248.005,281.476 260.486,283.434C273.666,285.501 273.704,285.529 276.541,295.415C279.108,304.362 278.221,314.691 274.122,323.584L270.888,330.6L289.463,371.597L308.037,412.594L311.391,412.202C314.526,411.837 314.777,412.028 315.232,415.124C315.499,416.947 315.309,419.92 314.808,421.732C314.308,423.544 314.173,425.471 314.508,426.013C315.492,427.605 325.297,427.181 327.783,425.439C330.413,423.598 333,418.941 333,416.05C333,414.922 332.054,413.054 330.898,411.898C328.89,409.89 328.851,409.451 330.039,402.139C331.117,395.501 331.064,393.731 329.641,388.837C327.66,382.023 327.659,382 329.345,382C331.297,382 333.569,379.054 334.961,374.719C336.834,368.887 340.814,362.334 344.228,359.461C347.143,357.009 364.979,347.515 365.408,348.188C365.517,348.359 366.44,350.525 367.458,353C369.591,358.185 373.242,362 376.069,362C377.146,362 384.315,358.85 392,355C399.685,351.15 406.902,348 408.036,348C412.888,348 419.704,341.998 421.479,336.162C421.93,334.68 420.83,328.359 418.479,318.914C414.958,304.776 414.851,303.876 416.406,301.503C417.915,299.2 418.646,299 425.569,299C432.331,299 433.353,298.738 435.684,296.407C438.141,293.95 438.245,293.431 437.662,286.534C437.227,281.38 437.495,277.685 438.581,273.877C442.214,261.142 441.001,252.324 435.257,249.707C432.473,248.439 432.52,247.73 436.155,236.149L438.462,228.797L433.032,213.595L435.266,211.214C437.427,208.912 437.491,208.254 437.239,191.167C436.924,169.911 435.242,144.747 433.83,140.188C432.744,136.683 429.931,135 425.157,135C421.208,135 418.31,132.545 415.34,126.684C409.545,115.248 397.339,98.228 388.051,88.633C369.994,69.979 345.508,50.56 329.88,42.498C324.721,39.837 317.8,36.021 314.5,34.018C305.986,28.851 301.75,27.363 283.056,22.975C256.528,16.748 249.837,16.223 227.5,18.614M243,56.49C229.525,57.131 218.326,57.733 218.114,57.828C217.901,57.923 218.864,59.137 220.254,60.527C221.644,61.917 223,64.504 223.268,66.277C223.801,69.805 222.206,106.631 221.421,108.917C220.437,111.784 219.135,108.109 214.01,88C210.051,72.464 208.915,66.41 209.317,63L209.849,58.5L204.674,58.786C201.828,58.943 198.475,59.293 197.223,59.562L194.946,60.052L197.444,64.314C198.818,66.658 203.359,80.484 207.535,95.038C218.899,134.637 219.013,135 220.017,135C222.645,135 224.03,127.799 226.952,98.922C228.646,82.19 230.283,67.275 230.589,65.777C230.896,64.279 232.514,61.904 234.184,60.499L237.221,57.943L240.36,59.933L243.5,61.922L243.5,124.175L237.504,129.331L248.502,128.681C254.551,128.324 266.363,127.731 274.75,127.362C288.868,126.742 292.811,125.968 288.114,124.74C286.375,124.285 286.173,122.663 285.51,103.874C285.115,92.668 284.951,78.55 285.146,72.5C285.454,62.93 285.801,61.077 287.818,58.25L290.136,55L278.818,55.162C272.593,55.251 256.475,55.849 243,56.49M254.645,60.483C253.712,62.914 252.596,117.032 253.391,121.271C253.97,124.356 254.508,125 256.51,125C257.879,125 259.379,124.16 259.965,123.066C261.093,120.958 261.234,67.713 260.125,62.5C259.407,59.125 255.691,57.758 254.645,60.483M271.285,61.685C270.853,63.233 270.5,77.5 270.5,93.39C270.5,120.185 270.631,122.36 272.309,123.39C273.759,124.28 274.406,124.112 275.573,122.54C276.786,120.905 276.984,115.506 276.764,90.04L276.5,59.5L274.285,59.185C272.585,58.943 271.888,59.524 271.285,61.685M40.35,320.638C39.002,327.284 39.644,337.171 41.814,343.212C42.943,346.353 44.185,351.054 44.576,353.657C45.128,357.341 46.259,359.431 49.673,363.081C53.331,366.992 54.724,369.742 58.059,379.636C63.669,396.277 65.696,404.711 67.392,418.471C68.794,429.841 68.772,430.7 66.933,435.93C65.87,438.955 65,444.028 65,447.203C65,453.943 64.007,453.092 85.252,464.559C92.266,468.345 103.914,475.788 111.136,481.1C125.357,491.559 136.011,497.673 145.609,500.883C151.519,502.86 153.235,502.907 198.609,502.354C226.741,502.011 249.908,502.181 256.517,502.778C270.522,504.045 275.725,503.198 288.144,497.628C298.46,493.002 320.989,481.026 324.842,478.119L327.046,476.457L307.773,433.754C290.938,396.452 288.223,391.048 286.309,391.026C283.371,390.991 283.123,391.565 281.922,401.187C281.351,405.759 280.46,409.928 279.942,410.45C279.349,411.048 278.977,410.863 278.937,409.95C278.902,409.153 278.515,404.74 278.076,400.145C277.225,391.236 276.476,390.042 271.725,390.015C268.137,389.996 267.455,391.894 266.684,404.067C265.823,417.651 265.037,418.918 258.778,416.813C251.755,414.45 251.367,411.852 256.449,401.247L259.898,394.05L255.699,393.013C253.39,392.443 249.873,391.531 247.884,390.988C242.27,389.454 241,389.711 241,392.38C241,394.552 232.516,419.817 231.418,420.915C230.743,421.591 213,412.756 213,411.745C213,411.28 213.759,409.461 214.686,407.7L216.372,404.5L217.332,407.754C218.092,410.332 219.081,411.244 222.1,412.148C225.273,413.099 226.324,413.018 228.391,411.664C231.028,409.936 231.517,407.845 232.34,394.789L232.764,388.077L229.382,386.961C225.01,385.518 219.795,387.138 217.158,390.758L215.245,393.384L211.872,390.54C207.693,387.017 203.011,385 199.007,385C194.942,385 194,387.645 194,399.065C194,404.985 193.623,408 192.882,408C192.092,408 191.966,405.563 192.455,399.697L193.147,391.394L189.784,389.583C187.935,388.587 185.588,387.936 184.57,388.136C181.926,388.656 180.075,395.582 179.328,407.75C178.883,415 178.329,418 177.437,418C175.932,418 175.29,414.117 174.413,399.72C173.849,390.456 173.484,388.794 171.811,387.899C170.369,387.127 169.282,387.24 167.607,388.338C165.64,389.627 164.582,389.638 159.424,388.425C156.166,387.658 152.498,387.024 151.273,387.016C146.372,386.981 143.301,397.814 146.474,403.949C147.474,405.883 147.802,407.598 147.274,408.126C146.745,408.655 144.859,405.779 142.679,401.12C139.662,394.677 138.331,392.91 135.465,391.55C130.445,389.169 124.883,389.831 123.288,393C121.538,396.477 121.691,406.019 123.586,411.601C125.086,416.021 125.07,416.374 123.284,418.16C121.434,420.01 121.184,419.948 110.698,415.002C104.814,412.226 100,409.522 100,408.993C100,408.463 101.35,405.836 103,403.154C104.65,400.473 106,397.606 106,396.784C106,395.962 101.639,386.112 96.309,374.895C87.22,355.767 86.615,354.096 86.559,348C86.527,344.425 86.881,340.282 87.348,338.793C88.053,336.541 87.749,335.672 85.542,333.627C78.978,327.543 68.537,325.241 63.885,328.851C59.61,332.168 58.717,331.934 55.523,326.657C52.057,320.931 48.859,318.289 44.316,317.4C41.268,316.803 41.099,316.94 40.35,320.638M196.5,342.858C193.2,344.401 189.995,346.302 189.378,347.082C188.718,347.916 188.044,354.803 187.74,363.817L187.222,379.134L189.676,380.067C191.026,380.58 195.685,381 200.03,381C209.452,381 209.711,380.724 210.647,369.65C211.138,363.844 210.817,360.36 209.195,353.851C208.05,349.258 206.975,344.375 206.806,343C206.381,339.528 203.701,339.491 196.5,342.858M224.364,341.457C223.22,342.259 221.689,345.071 220.963,347.707C220.236,350.343 218.529,354.201 217.169,356.279C215.283,359.161 214.583,361.814 214.221,367.456C213.354,380.973 215.604,383.293 226.366,379.969C229.883,378.882 233.319,377.32 234.003,376.497C235.468,374.732 238.194,355.267 237.784,349.5C237.535,345.991 237.111,345.374 234.326,344.474C232.581,343.91 230.296,342.672 229.248,341.724C226.943,339.638 226.96,339.639 224.364,341.457M162.272,343.113L159.044,344.046L161.73,349.523C163.208,352.535 164.702,355 165.05,355C165.946,355 168,347.782 168,344.634C168,341.813 167.36,341.643 162.272,343.113M246.353,349.143C245.765,349.889 244.766,356.297 244.133,363.382L242.982,376.263L247.568,381.632C253.237,388.267 254.601,388.444 258.308,383.027C260.698,379.536 260.83,351.934 258.467,349.972C256.171,348.067 247.66,347.484 246.353,349.143M388.223,365.918C384.038,369.226 383,370.633 383,372.998C383,375.784 382.818,375.916 379.75,375.352C377.962,375.023 374.53,373.909 372.123,372.877C365.736,370.138 363.352,370.419 361.429,374.138C359.907,377.081 352,411.39 352,415.051C352,415.975 352.882,417.852 353.961,419.223L355.921,421.715L350.229,438.858C345.148,454.156 344.299,456 342.327,456C339.475,456 339.061,455.251 335.966,444.5C332.987,434.149 331.745,433.038 323.133,433.015C318.498,433.002 317.834,433.238 318.259,434.75C319.737,440.008 356.395,519 357.356,519C357.986,519 364.013,515.419 370.751,511.041C384.123,502.353 384.244,502.168 381.583,494.5C380.159,490.397 380.443,479.259 382.931,441.715C383.894,427.172 384.977,423.748 392.486,411.5C395.606,406.412 407,372.37 407,368.138C407,364.563 404.73,363.168 397.473,362.282C393.905,361.846 392.849,362.262 388.223,365.918M157.485,404.25C157.237,404.938 156.377,407.395 155.575,409.712L154.116,413.924L157.808,416.794C163.24,421.017 163.745,421.204 166.229,419.911C167.478,419.261 168.659,418.593 168.854,418.428C169.253,418.087 158.975,403 158.344,403C158.12,403 157.734,403.563 157.485,404.25" style="fill:rgb(28,28,28);"/>
    </g>
</svg>
