<?xml version="1.0" encoding="UTF-8" standalone="no"?>
<!DOCTYPE svg PUBLIC "-//W3C//DTD SVG 1.1//EN" "http://www.w3.org/Graphics/SVG/1.1/DTD/svg11.dtd">
<svg width="100%" height="100%" viewBox="0 0 413 531" version="1.1" xmlns="http://www.w3.org/2000/svg" xmlns:xlink="http://www.w3.org/1999/xlink" xml:space="preserve" xmlns:serif="http://www.serif.com/" style="fill-rule:evenodd;clip-rule:evenodd;stroke-linejoin:round;stroke-miterlimit:2;">
    <g id="svgPath">
        <path d="M194.522,2.606C167.403,5.718 154.812,9.046 125.009,20.977C112.576,25.953 91.63,36.477 77,45.096C56.038,57.446 35.77,82.286 26.509,106.977L22.807,116.846L17.376,119.05C7.88,122.905 7.744,123.312 8.566,145.571L9.272,164.694L4.636,165.861L0,167.029L0,187.359C0,198.54 0.289,212.408 0.642,218.175L1.283,228.661L5.539,229.799C7.879,230.425 10.516,231.659 11.397,232.54C13.917,235.06 13.424,240.485 10.4,243.509C8.248,245.661 7.894,246.746 8.341,249.804C9.239,255.936 18.992,283.409 20.747,284.75C21.646,285.438 23.408,286 24.661,286L26.94,286L24.624,289.412C21.871,293.47 20.383,307.181 22.043,313.195C23.676,319.107 29.893,323.399 43.34,327.895C48.464,329.609 53.828,332.34 57.758,335.237C61.201,337.775 65.58,340.366 67.491,340.997C73.687,343.042 75.059,342.214 79.465,333.765C81.684,329.51 83.849,326.023 84.276,326.015C85.603,325.989 111.375,343.621 113.713,346.153C117.113,349.836 119.429,360.081 119.104,370C118.95,374.675 118.776,380.525 118.716,383C118.635,386.375 119.595,389.491 122.554,395.46C127.208,404.849 128.649,406.01 133.225,404.066C135.026,403.301 139.088,402.483 142.25,402.248C147.957,401.826 148,401.798 148,398.638C148,396.887 146.637,391.915 144.971,387.589C143.306,383.263 142.068,379.66 142.221,379.582C142.375,379.504 144.224,378.656 146.332,377.697L150.164,375.954L149.478,382.363C148.484,391.642 150.775,398.827 156.576,404.629L161.052,409.104L163.523,407.161C165.836,405.341 166.312,405.311 171.001,406.685C175.017,407.862 176.713,407.92 179.574,406.976C181.535,406.328 183.381,405.172 183.675,404.405C183.969,403.639 183.414,398.482 182.441,392.945C180.753,383.333 180.753,382.626 182.432,377.298C184.627,370.335 187.787,367 192.19,367C193.995,367 197.815,365.814 200.68,364.365L205.889,361.729L209.021,364.365C212.532,367.318 215.614,367.592 221.5,365.471C227.801,363.201 229.999,363.671 238,369C242.125,371.747 246.146,373.996 246.936,373.997C247.725,373.999 249.362,373.069 250.573,371.931L252.776,369.862L259.888,373.444C263.8,375.413 266.984,377.357 266.965,377.763C266.945,378.168 266.286,379.625 265.5,381C264.494,382.76 264.06,386.932 264.035,395.095C264.005,405.086 264.253,406.919 265.829,408.345C269.716,411.863 272.037,410.2 274.858,401.876L276.68,396.5L286,395.89L286,400.38C286,402.849 285.58,405.974 285.067,407.323C284.223,409.543 284.426,409.835 287.192,410.388C294.438,411.838 299.807,409.725 302.331,404.432C304.492,399.9 304.437,398.825 301.874,395.567C299.88,393.033 299.818,392.415 300.878,385.682C301.805,379.793 301.74,377.51 300.516,373C298.929,367.15 298.597,364.264 299.631,365.298C301.128,366.795 303.857,363.658 305.877,358.117C309.965,346.905 313.324,343.149 324.5,337.29C330,334.407 334.842,332.037 335.26,332.024C335.678,332.011 337.253,334.587 338.76,337.75C340.615,341.644 342.444,343.948 344.423,344.887C347.215,346.213 347.998,345.959 361.923,339.216C369.94,335.333 378.371,331.666 380.657,331.066C384.973,329.934 390.317,324.927 392.036,320.405C392.693,318.679 391.954,313.924 389.33,302.97C384.668,283.513 384.718,283.361 396.026,282.847C403.582,282.504 404.38,282.259 406.687,279.578C409.027,276.857 409.14,276.215 408.523,269.09C407.989,262.917 408.25,260.287 409.92,255C413.332,244.202 412.332,238.016 406.45,233.529L403.053,230.939L405.036,225.909C409.438,214.741 409.425,211.504 404.933,200.409C403.812,197.641 403.907,197.093 405.841,195.159C407.881,193.119 408,192.08 407.998,176.25C407.995,160.586 406.833,138.798 405.405,127.641C404.668,121.888 402.177,119 397.95,119C392.894,119 389.228,116.384 386.364,110.731C381.602,101.335 369.333,83.571 362.346,75.959C344.986,57.044 317.758,34.985 300.745,26.05C296.21,23.668 288.62,19.51 283.878,16.81C276.83,12.796 272.449,11.197 259.878,8.051C230.61,0.727 219.187,-0.225 194.522,2.606M221.562,39.661C192.148,40.933 186.319,41.496 189.771,42.727C190.47,42.977 191.773,44.594 192.666,46.322C194.081,49.058 194.201,52.082 193.599,69.769C192.953,88.745 192.125,95.63 190.756,93.415C190.441,92.905 187.689,82.738 184.639,70.821C180.094,53.059 179.264,48.567 180.03,45.894C180.545,44.1 180.823,42.49 180.648,42.315C180.474,42.14 176.938,42.284 172.791,42.635L165.252,43.272L168.077,47.886C169.95,50.944 173.98,63.285 180.025,84.47C185.042,102.053 189.518,117.103 189.971,117.913C190.616,119.066 191.25,118.639 192.894,115.943C194.048,114.049 194.994,111.935 194.996,111.244C194.998,110.552 196.372,96.426 198.048,79.851C201.22,48.484 202.046,44.847 206.454,42.839C208.343,41.978 209.322,42.136 211.374,43.632L213.937,45.5L213.969,76.798L214,108.095L211.257,110.638L208.514,113.18L216.507,112.568C220.903,112.231 232.802,111.501 242.949,110.945C253.097,110.389 261.609,109.724 261.866,109.467C262.123,109.21 261.615,109 260.738,109C259.861,109 258.436,108.293 257.571,107.429C256.213,106.07 256,101.816 256,76.068L256,46.279L258.5,42.595C259.875,40.569 261,38.706 261,38.456C261,37.929 262.973,37.868 221.562,39.661M225.872,43.652C224.789,44.956 224.441,51.754 224.222,75.902C224.056,94.195 224.329,107.08 224.901,107.943C225.674,109.111 226.348,109.163 228.428,108.215L231,107.043L231,75.721C231,52.694 230.682,44.082 229.8,43.2C228.204,41.604 227.507,41.685 225.872,43.652M242.872,43.653C241.827,44.913 241.285,52.318 240.599,74.725C239.704,103.936 239.713,104.157 241.814,106.258C243.874,108.318 243.983,108.325 245.965,106.532C247.926,104.757 248,103.594 248,74.545C248,52.432 247.68,44.08 246.8,43.2C245.204,41.604 244.507,41.685 242.872,43.653M19.148,127.852C17.482,129.518 17.344,131.003 17.772,142.602C18.034,149.696 18.305,155.56 18.374,155.634C18.443,155.707 49.023,159.83 86.328,164.795C123.633,169.76 154.421,174.087 154.745,174.411C155.068,174.735 155.146,175.153 154.917,175.34C154.372,175.783 119.616,173.288 116.158,172.556C103.805,169.944 13.258,168.711 10.361,171.115C9.188,172.089 9.026,173.876 9.558,179.97C9.959,184.569 9.767,189.803 9.076,193.133C8.445,196.173 7.897,201.267 7.859,204.453C7.8,209.426 8.162,210.616 10.421,212.872C12.662,215.111 13.826,215.471 18.276,215.304C21.149,215.196 26.65,214.445 30.5,213.635C39.183,211.809 87,210.204 87,211.738C87,213.954 83.809,214.983 67.724,217.959C58.518,219.661 49.752,221.535 48.243,222.122C46.734,222.709 40.609,224.235 34.632,225.513C28.654,226.791 23.419,228.211 22.999,228.668C22.578,229.126 21.929,231.637 21.556,234.25C20.951,238.482 21.084,239 22.769,239C27.067,239 67.72,230.236 104,221.489C121.902,217.173 128.116,216.895 116.5,220.929C112.1,222.457 105.35,225.288 101.5,227.22C97.65,229.152 77.625,236.239 57,242.968C36.375,249.697 19.353,255.342 19.173,255.512C18.622,256.032 22.225,268.021 23.094,268.558C23.543,268.835 31.017,268.167 39.705,267.072C48.392,265.978 61.125,264.593 68,263.996C74.875,263.399 91.075,261.599 104,259.997C116.925,258.395 132.45,256.599 138.5,256.008C154.171,254.475 160.87,253.362 184,248.451C206.717,243.628 239.04,238 244.026,238C249.736,238 245.671,240.636 234.708,244.042C229.133,245.774 221.194,248.891 217.066,250.968C209.898,254.574 209.694,254.771 212.53,255.342C215.712,255.981 234.847,257.306 265.5,259.01C275.95,259.591 293.275,260.951 304,262.033C326.553,264.308 351.146,265.725 375.957,266.18L393.415,266.5L402.821,245.168L400.16,244.121C395.675,242.356 367.832,237.328 341,233.438C326.975,231.405 315.137,229.414 314.694,229.015C312.701,227.218 351.442,226.106 381.142,227.107C391.695,227.463 392.992,227.313 394.997,225.501C397.057,223.638 397.183,222.807 396.832,213.331C396.384,201.231 395.67,200.088 386.646,197.032C379.868,194.737 384.508,194.997 305,192.454C278.325,191.601 254.493,190.658 252.04,190.359C248.099,189.878 247.808,189.68 249.54,188.657C250.973,187.811 269.936,187.498 320,187.493C397.399,187.484 398.203,187.419 398.817,181.147C399.495,174.218 397.055,140.366 395.508,135.247C393.012,126.986 392.036,126.651 372.231,127.258C356.508,127.739 347.989,128.715 300,135.529C290.375,136.896 275.75,138.464 267.5,139.013C259.25,139.562 242.825,140.901 231,141.987C219.175,143.074 201.175,144.429 191,144.998C180.825,145.567 168.45,146.468 163.5,146.999C152.264,148.204 146,148.256 146,147.142C146,146.67 148.757,144.583 152.127,142.503C156.649,139.712 157.876,138.51 156.813,137.915C154.981,136.89 124.473,133.553 98.5,131.537C77.935,129.941 23.39,126 21.859,126C21.386,126 20.166,126.834 19.148,127.852M191.351,263.945C188.519,264.391 185.723,265.053 185.138,265.415C183.03,266.718 181.833,273.758 181.3,288C180.512,309.025 182.94,322 187.662,322C188.551,322 192.703,318.729 196.889,314.731C204.949,307.033 210.628,303.602 213.659,304.598C214.671,304.93 219.397,309.32 224.16,314.351L232.821,323.5L237.042,319C239.364,316.525 242.89,311.125 244.878,307C248.205,300.096 248.492,298.785 248.496,290.5C248.5,281.331 246.197,272.238 243.25,269.793C241.603,268.426 215.509,264.247 204.644,263.61C200.165,263.347 194.183,263.498 191.351,263.945M41.204,344.805C39.424,349.174 40.577,364.583 43.497,375.423C46.063,384.954 46.924,386.814 50.251,390.01C53.189,392.833 54.877,395.948 57.61,403.587C62.904,418.383 66.674,434.109 68.018,447C69.154,457.898 69.107,458.777 67.109,463.787C65.899,466.821 65,471.322 65,474.349L65,479.623L77.25,486.454C98.202,498.137 102.158,500.61 114,509.43C126.694,518.885 140.297,526.198 149.5,528.517C154.748,529.839 159.729,529.878 189.243,528.827C216.192,527.867 227.879,527.884 247.284,528.908C274.941,530.367 274.933,530.368 290.5,523.305C308.23,515.26 342.219,495.522 350.938,488.207L354.375,485.323L352.586,479.634C351.208,475.254 350.936,472.169 351.403,466.223C351.737,461.975 352.473,448.734 353.039,436.797C353.633,424.266 354.653,413.149 355.453,410.491C356.214,407.96 358.761,402.706 361.111,398.816C365.745,391.147 376.483,361.379 377.569,353.191L378.207,348.379L372.161,346.549L366.115,344.718L361.026,347.983C355.661,351.426 354,353.542 354,356.934C354,359.8 350.611,359.637 342.473,356.379C332.512,352.391 332.086,353.006 326.545,379.369C322.447,398.869 322.367,399.997 324.861,403.077C326.7,405.348 326.658,405.571 321.234,421.938C318.215,431.047 315.398,438.882 314.973,439.349C314.549,439.816 313.267,439.902 312.125,439.54C310.586,439.051 309.397,436.815 307.525,430.889C306.136,426.493 305,422.277 305,421.52C305,418.169 302.016,417 293.464,417C283.528,417 283.556,416.971 282.129,428.464C280.692,440.038 279.351,439.896 278.506,428.078C277.833,418.675 277.626,417.944 275.493,417.409C268.569,415.671 267.326,417.717 267.118,431.185C266.925,443.718 265.24,445.723 257.241,442.934C252.08,441.135 252.134,435.746 257.404,426.755C258.832,424.318 260,421.884 260,421.345C260,420.317 247.118,416.965 243.25,416.987C241.523,416.997 241,417.578 241,419.489C241,421.907 233.762,444.16 232.107,446.831C231.463,447.87 229.276,447.154 222.141,443.571C217.113,441.046 213.019,438.647 213.042,438.24C213.065,437.833 213.94,435.925 214.985,434L216.887,430.5L217.576,433.786C218.376,437.606 220.471,439 225.411,439C230.441,439 231.655,436.485 232.464,424.385C233.133,414.393 233.113,414.263 230.821,413.649C225.38,412.192 222.128,412.939 218.615,416.451C215.699,419.368 214.979,419.68 213.97,418.463C210.338,414.087 200.157,410.31 196.815,412.099C195.299,412.911 195,414.36 195,420.91C195,429.999 194.156,435.214 192.818,434.387C192.268,434.047 192.16,430.595 192.557,426.042C193.201,418.661 193.119,418.196 190.895,416.639C189.608,415.737 187.323,415 185.816,415C183.382,415 182.907,415.575 181.539,420.182C180.635,423.226 180,429.206 180,434.682C180,443.139 179.826,444 178.117,444C176.491,444 176.149,442.948 175.601,436.25C173.835,414.645 173.916,415.108 171.783,414.431C170.671,414.078 168.742,414.335 167.496,415.002C165.772,415.925 163.994,415.95 160.066,415.108C151.967,413.371 149.268,413.661 147.429,416.469C145.785,418.977 145.834,425.764 147.543,432.399C148.817,437.343 146.058,434.404 142.911,427.465C141.349,424.02 138.885,420.268 137.434,419.127C133.631,416.135 128.556,415.406 125.496,417.411C123.158,418.942 123,419.586 123,427.555C123,432.632 123.571,437.431 124.416,439.453C125.69,442.503 125.657,443 124.087,444.421C123.128,445.289 121.928,446.012 121.421,446.027C119.907,446.072 100.101,436.562 100.048,435.765C100.022,435.361 101.35,432.836 103,430.154C104.65,427.473 106,424.351 106,423.218C106,422.084 101.958,412.578 97.018,402.093C86.131,378.986 85.285,376.083 87.034,367.838C88.299,361.88 88.276,361.716 85.913,359.884C78.211,353.916 68.123,352.185 63.273,356C61.874,357.1 60.228,357.994 59.615,357.986C59.002,357.978 57.272,355.744 55.771,353.022C52.861,347.745 50.172,345.483 45.07,344.02C42.474,343.276 41.769,343.419 41.204,344.805M198.174,368.891C194.695,370.448 191.246,372.348 190.509,373.111C188.508,375.186 187.004,404.759 188.823,406.268C189.551,406.872 193.826,407.547 198.323,407.768C209.595,408.322 210.214,407.763 210.805,396.498C211.244,388.137 211.035,386.604 207.139,369.578C206.771,367.971 206.027,366.522 205.485,366.358C204.943,366.194 201.653,367.333 198.174,368.891M223.635,369.25C222.858,370.488 221.66,373.3 220.973,375.5C220.285,377.7 218.902,380.67 217.9,382.1C213.769,387.994 212.607,402.607 216,406C218.535,408.535 221.081,408.517 228.81,405.907C235.699,403.58 235.34,404.207 236.977,391.678C238.962,376.494 238.159,371 233.955,371C233.05,371 231.495,370.1 230.5,369C228.116,366.366 225.382,366.465 223.635,369.25M163.75,369.398C161.688,369.923 160,370.738 160,371.21C160,372.352 164.908,382 165.489,382C165.739,382 166.66,379.536 167.536,376.525C169.557,369.572 168.784,368.117 163.75,369.398M246.388,376.182C245.986,376.832 245.15,383.245 244.531,390.432L243.404,403.5L247.839,408.25C253.323,414.124 255.971,414.41 258.901,409.443C260.752,406.305 261,404.3 261,392.443C261,380.333 260.802,378.802 259,377C256.724,374.724 247.652,374.135 246.388,376.182M156.573,434.685L154.773,440.396L159.137,444.168C161.536,446.243 163.788,447.954 164.139,447.97C164.491,447.987 165.812,447.163 167.076,446.139L169.374,444.279L164.535,437.389C161.874,433.6 159.398,430.157 159.035,429.737C158.671,429.317 157.563,431.544 156.573,434.685" style="fill:rgb(28,28,28);"/>
    </g>
</svg>
