<?xml version="1.0" encoding="UTF-8" standalone="no"?>
<!DOCTYPE svg PUBLIC "-//W3C//DTD SVG 1.1//EN" "http://www.w3.org/Graphics/SVG/1.1/DTD/svg11.dtd">
<svg width="100%" height="100%" viewBox="0 0 396 566" version="1.1" xmlns="http://www.w3.org/2000/svg" xmlns:xlink="http://www.w3.org/1999/xlink" xml:space="preserve" xmlns:serif="http://www.serif.com/" style="fill-rule:evenodd;clip-rule:evenodd;stroke-linejoin:round;stroke-miterlimit:2;">
    <g id="svgPath">
        <path d="M188.5,1.628C186.85,1.873 179.033,2.989 171.128,4.109C163.223,5.228 153.535,6.968 149.598,7.975C141.955,9.93 101,25.895 101,26.92C101,27.256 106.096,38.774 112.324,52.515L123.648,77.5L133.074,77.5C142.052,77.5 142.927,77.3 151.5,73.297C156.45,70.986 162.356,68.8 164.624,68.44C170.542,67.5 178.162,70.059 186.954,75.94C191.053,78.682 194.568,80.766 194.763,80.57C195.309,80.024 184.142,36.938 182.51,33.295C181.721,31.533 179.708,29.383 178.038,28.52C176.367,27.656 175,26.735 175,26.474C175,26.213 180.963,26.02 188.25,26.044L201.5,26.088L197.75,28.068C195.628,29.188 194.001,30.797 194.001,31.774C194.006,37.62 206.849,82.551 208.145,81.255C210.323,79.077 218.416,36.168 217.464,31.838C217.074,30.062 215.646,28.557 213.189,27.335L209.5,25.5L221.885,25.218C228.696,25.063 234.474,25.141 234.724,25.39C234.974,25.64 233.309,27.533 231.024,29.597C228.74,31.661 226.199,34.647 225.379,36.234C223.488,39.89 215.791,79.277 216.197,83.221C216.465,85.835 217.296,86.511 223.5,89.16C233.94,93.618 237.241,93.292 248.317,86.707C273.822,71.546 277.521,71.17 291.503,82.323C301.814,90.547 315.606,99.062 319.69,99.725C324.729,100.542 327.43,99.387 334.496,93.392C338.123,90.315 344.322,86.021 348.273,83.85C354.935,80.188 355.547,80.028 356.728,81.642C357.427,82.599 358,83.741 358,84.18C358,84.619 354.512,86.765 350.25,88.951C345.988,91.136 341.54,93.728 340.367,94.712C337.782,96.879 335.589,100.922 336.502,101.836C336.868,102.201 340.842,102.481 345.333,102.458C354.31,102.412 357.569,101.21 362.349,96.182L365.197,93.184L362.643,89.425C359.78,85.212 359.9,84.62 364.055,82.472C369.315,79.751 375.302,83.259 376.616,89.831L377.263,93.066L372.882,92.783C368.575,92.505 368.504,92.552 368.72,95.5C368.896,97.908 368.339,98.844 365.899,100.244C363.717,101.496 362.95,102.604 363.18,104.173C363.436,105.921 364.599,106.614 369,107.637C372.025,108.34 374.655,108.934 374.845,108.958C375.035,108.981 374.022,107.007 372.595,104.572C371.168,102.136 370,99.836 370,99.461C370,98.395 377.242,99.982 379.75,101.597C383.015,103.7 382.651,106.877 379,108.15C377.35,108.725 376,109.399 376,109.647C376,110.542 379.063,116 379.566,116C379.848,116 381.829,115.107 383.968,114.016L387.856,112.033L389.042,115.629C390.53,120.136 389.853,128.267 387.555,133.5C385.513,138.151 385.326,137.888 382.609,126.533C381.692,122.702 380.024,118.59 378.902,117.396C376.505,114.844 367.175,112.015 360.159,111.713C350.804,111.31 347.702,118.234 354.75,123.787C360.212,128.091 371.563,134.893 378.75,138.17C383.368,140.276 385,141.539 385,143.01C385,144.104 385.447,145 385.994,145C387.945,145 392.91,136.761 394.063,131.608C395.825,123.736 394.952,112.35 392.216,107.5C390.974,105.3 387.541,98.55 384.587,92.5C381.633,86.45 378.046,80.412 376.616,79.083C373.35,76.047 365.313,75.208 359.5,77.295L355.5,78.732L344.5,68.11C324.127,48.438 303.631,32.889 285,22.971C277.575,19.018 271.049,15.42 270.498,14.975C267.694,12.713 256.673,9.461 239.54,5.84C223.344,2.417 218.334,1.768 206,1.499C198.025,1.325 190.15,1.383 188.5,1.628M89.389,71.34C70.721,81.334 63.088,86.119 56.905,91.705C53.317,94.946 35,117.241 35,118.366C35,118.611 39.609,122.102 45.242,126.124C54.871,132.999 55.85,133.459 61.613,133.826C70.065,134.364 76.844,132.145 87,125.513C97.351,118.755 104.153,116.059 114,114.812C118.125,114.29 123.562,113.556 126.082,113.181L130.663,112.5L119.218,87.25C112.923,73.362 107.486,62.04 107.136,62.09C106.786,62.139 98.8,66.302 89.389,71.34M157.639,75.94C152.708,77.919 149,80.597 149,82.18C149,82.658 150.238,83.496 151.75,84.042C158.716,86.555 162.965,88.849 168.803,93.249C172.27,95.862 176.095,97.994 177.303,97.987C180.397,97.968 194,90.233 194,88.492C194,87.7 189.838,84.243 184.75,80.81C176.043,74.934 175.119,74.551 169,74.278C164.338,74.07 161.125,74.54 157.639,75.94M268.989,81.435C263.649,83.404 253.007,88.918 248.25,92.181C241.68,96.687 242.298,98.42 253.16,105.947C263.238,112.931 264.848,113.283 272.226,110.119C279.89,106.832 286.923,105.028 296.16,103.982C305.465,102.928 308,102.277 308,100.941C308,100.477 304.738,97.996 300.75,95.429C296.762,92.862 291.25,88.86 288.5,86.536C285.75,84.212 282.517,81.79 281.316,81.155C278.515,79.674 273.454,79.789 268.989,81.435M136.345,91.288L131.807,95.576L136.739,106.538C141.524,117.176 141.771,117.509 145.085,117.79C147.833,118.024 150.406,116.865 158.25,111.86C167.366,106.043 168,105.423 168,102.329C168,99.534 167.261,98.48 163.25,95.55C158.393,92.002 146.479,87 142.885,87C141.784,87 138.841,88.93 136.345,91.288M214,94.48C214,98.404 218.996,105 221.969,105C224.467,105 229,101.188 229,99.088C229,97.304 227.397,96.338 218.75,92.912L214,91.029L214,94.48M192.5,96.975C186.6,99.849 183.032,103.503 184.668,104.994C186.171,106.364 198.573,110.044 203.756,110.657C210.73,111.483 214.008,110.544 213.968,107.731C213.951,106.504 213.276,104.626 212.468,103.559C211.043,101.675 210.96,101.672 209.645,103.471C207.658,106.189 205.446,104.815 202.524,99.047C201.117,96.271 199.636,94.011 199.233,94.026C198.83,94.04 195.8,95.367 192.5,96.975M230.18,106.578C227.881,108.546 226.003,110.908 226.006,111.828C226.012,113.774 236.497,125 238.308,125C239.924,125 253.261,117.186 254.221,115.677C254.633,115.03 254.976,114.206 254.985,113.846C255.016,112.507 239.02,103 236.735,103C235.429,103 232.479,104.61 230.18,106.578M172.753,108.445C171.243,109.233 167.305,111.957 164.003,114.497C159.16,118.224 158,119.666 158,121.956C158,124.439 159.159,125.543 167.25,130.769C178.441,137.998 183.774,140.731 196.859,145.944C209.123,150.83 209.948,150.653 222.322,140.5C234.16,130.787 234.193,130.66 227.207,122.099C224.068,118.252 220.665,114.811 219.645,114.452C218.625,114.093 215.807,114.354 213.383,115.033C205.843,117.144 196.745,115.83 186.368,111.133C181.345,108.86 176.845,107.003 176.368,107.006C175.891,107.01 174.264,107.657 172.753,108.445M300,109.004C290.197,109.723 285.327,110.783 276.266,114.173C269.237,116.803 269.401,118.569 277.25,124.747C285.448,131.198 285.403,131.177 288.502,129.999C291.839,128.731 310.579,114.439 312.498,111.7C314.139,109.357 313.614,107.933 311.191,108.154C310.261,108.238 305.225,108.621 300,109.004M311.314,119.655C291.343,135.232 290.855,135.809 294.75,139.224C300.844,144.567 310.611,145.592 317.412,141.602C322.356,138.702 337,122.635 337,120.112C337,117.822 334.435,115.497 329.746,113.538C323.494,110.926 321.77,111.499 311.314,119.655M19.03,119.113C14.999,120.721 10.109,124.889 8.42,128.155C7.503,129.928 6.494,135.67 6.012,141.853C5.555,147.709 4.434,154.525 3.52,157C2.605,159.475 1.599,164.767 1.283,168.761C0.622,177.125 1.692,179.09 8.361,181.76C12.052,183.238 12.2,183.472 11.718,187.068C11.44,189.137 9.88,192.781 8.251,195.165C0.213,206.93 0.596,214.265 12.093,268.744C14.818,281.656 17.501,293.067 18.054,294.1C18.607,295.134 20.508,296.712 22.28,297.607C25.976,299.474 29.773,302.738 31.089,305.179C31.772,306.446 30.343,309.497 25.266,317.615L18.537,328.372L18.16,338.556C17.852,346.876 18.092,349.211 19.472,351.317C22.011,355.192 29.707,359.69 39.411,362.97C44.185,364.584 49.774,367.237 51.831,368.866C57.305,373.202 64.893,377 68.081,377C71.181,377 73.074,374.814 77.389,366.25C78.843,363.362 80.305,361 80.636,361C82.003,361 106.721,378.075 109.363,380.844C114.918,386.667 117.382,401.687 114.819,414.097L113.638,419.814L118.285,429.425C120.84,434.711 123.688,439.327 124.613,439.682C125.538,440.037 127.691,439.723 129.397,438.985C131.104,438.247 135.191,437.611 138.48,437.572C143.241,437.515 144.527,437.158 144.789,435.824C144.97,434.902 143.742,430.039 142.059,425.017C140.377,419.995 139,415.506 139,415.041C139,414.367 144.176,412 145.649,412C145.842,412 146,414.639 146,417.864C146,421.088 146.459,426.147 147.02,429.104C148.742,438.185 156.75,445.679 160.608,441.82C162.039,440.389 162.635,440.387 167.04,441.796C171.058,443.08 172.594,443.139 175.947,442.134C179.643,441.027 180,440.623 180,437.548C180,435.693 179.359,430.824 178.575,426.728C175.949,413.001 180.8,402 189.48,402C191.15,402 194.671,400.853 197.305,399.451L202.094,396.901L205.124,399.451C208.589,402.366 211.937,402.639 218,400.5C224.381,398.249 225.845,398.569 234,404C242.173,409.443 244.759,410.028 247.459,407.045C249.206,405.115 249.319,405.135 256.364,408.662C260.289,410.627 263.652,412.371 263.838,412.539C264.024,412.706 263.189,414.178 261.982,415.81C259.873,418.663 259.821,419.276 260.644,431.639L261.5,444.5L264.996,444.5C268.337,444.5 268.581,444.251 270.496,438.892C271.598,435.807 272.995,432.657 273.6,431.892C274.447,430.819 270.45,421.139 256.159,389.655L237.618,348.81L233.503,353.553L229.389,358.296L220.534,349.148C213.015,341.381 211.197,340 208.489,340C204.723,340 199.806,343.402 192.034,351.385C186.045,357.538 182.976,358.44 180.594,354.75C178.403,351.357 176.637,333.05 177.387,321.519C178.161,309.633 179.554,304.126 184.393,293.816C186.376,289.59 189.769,279.493 191.933,271.378L195.866,256.624L175.302,211.062C163.991,186.003 154.459,165.186 154.119,164.803C153.778,164.42 149,167.703 143.5,172.099C122.492,188.89 113.994,189.983 97.314,178.039C94.212,175.817 90.677,174 89.458,174C88.239,174 84.777,175.128 81.765,176.507C69.045,182.331 58.052,181.888 42.908,174.941C38.183,172.774 33.233,171 31.908,171.001C30.584,171.001 26.575,172.801 23,175C19.425,177.199 16.163,178.999 15.75,178.999C15.338,179 15,177.662 15,176.026C15,173.674 15.681,172.707 18.25,171.405C21.888,169.562 25,167.058 25,165.973C25,165.578 23.173,164.963 20.939,164.606C17.309,164.026 16.951,163.721 17.564,161.728C17.94,160.503 18.356,159.374 18.488,159.22C18.619,159.066 21.973,159.443 25.941,160.059C29.908,160.674 34.258,160.901 35.606,160.563C39.932,159.477 59.992,146.599 59.996,144.905C60.001,142.681 56.921,140.128 53.434,139.468C51.689,139.137 44.929,140.292 36.75,142.318C29.188,144.191 23,145.357 23,144.909C23,144.461 23.473,143.06 24.052,141.797C24.865,140.022 26.71,139.11 32.177,137.783C39.106,136.101 44,133.763 44,132.136C44,131.686 41.862,130.13 39.25,128.679C31.473,124.359 31.641,124.539 33,122C33.967,120.193 33.938,119.575 32.853,118.888C31.039,117.738 22.11,117.883 19.03,119.113M110,120.6C98.73,123.608 87.131,130.292 88.226,133.147C89.079,135.369 118.132,141.535 120.863,140.073C124.151,138.314 141.967,120.755 141.398,119.835C140.514,118.405 115.983,119.003 110,120.6M252.144,123.616C242.431,128.456 241.966,133.311 250.836,137.27C259.682,141.22 280,140.528 280,136.278C280,133.93 270.587,125.17 265.661,122.933C260.143,120.428 258.36,120.518 252.144,123.616M25.472,123.813C24.937,124.284 22.344,125.463 19.708,126.433C17.073,127.403 14.294,129.165 13.532,130.349C11.752,133.115 10.63,139.26 11.44,141.81C12.056,143.753 12.203,143.741 18.509,141.239C24.169,138.993 25.09,138.249 26.11,135.092C26.748,133.116 28.119,129.813 29.156,127.75C30.192,125.688 30.618,124 30.102,124C29.586,124 28.552,123.765 27.804,123.478C27.056,123.191 26.006,123.342 25.472,123.813M331.3,135.541C325.276,141.734 319.492,146.741 317.274,147.681C309.567,150.946 298.516,149.136 291.834,143.514C288.123,140.391 286.86,140.39 277.595,143.5C265.639,147.513 257.008,146.421 244.177,139.27C236.572,135.032 236.923,134.924 224.5,145.329C214.098,154.041 209.416,155.949 203.336,153.953C192.936,150.538 166.812,137.852 161.187,133.484C156.521,129.86 154.174,128.707 151.286,128.617C148.408,128.528 147.576,128.86 147.818,130C147.992,130.825 157.212,151.603 168.306,176.174C183.552,209.942 188.776,220.601 189.7,219.834C190.573,219.109 193.358,220.29 199.443,223.965L207.963,229.112L211.085,225.556C216.916,218.914 219.606,221.469 222.007,235.93C223.434,244.52 225.874,251.996 232.417,267.828C238.526,282.613 240.097,292.349 237.604,299.973C236.642,302.914 234.762,306.927 233.427,308.892C232.092,310.857 231,312.973 231,313.594C231,314.216 239.239,332.899 249.31,355.112L267.619,395.5L271.56,395.581C275.912,395.67 275.625,394.808 274.858,405.5L274.5,410.5L279.198,410.803C284.923,411.172 289.395,409.071 291.483,405.033C293.567,401.003 293.383,397.435 290.977,395.193C289.073,393.419 289.025,392.891 290.167,386.233C291.317,379.524 290.826,373.924 288.569,368C288.205,367.046 288.998,365.925 290.748,364.918C292.761,363.761 294.147,361.494 295.911,356.472C299.344,346.694 304.113,341.897 315.857,336.409C321.047,333.984 325.372,332 325.47,332C325.569,332 326.874,334.654 328.372,337.898C332.795,347.48 333.93,347.547 350.625,339.21C358.256,335.399 366.075,331.991 368,331.637C373.42,330.641 377.339,327.722 380.007,322.693L382.448,318.092L379.204,304.796C377.42,297.483 375.969,290.082 375.98,288.348C375.994,286.168 378.312,281.542 383.496,273.348C391.309,261 391.985,258.764 389.95,251.993C389.364,250.041 388.456,229.095 387.892,204.5C387.337,180.3 386.571,157.575 386.191,154L385.5,147.5L373.974,141.5C367.635,138.2 358.987,133.137 354.758,130.25C350.062,127.044 345.994,125 344.309,125C342.121,125 339.433,127.178 331.3,135.541M133.671,135.29C126.87,141.624 127.266,142.687 138.513,148.274C143.745,150.873 148.22,153 148.456,153C149,153 140.095,132.771 139.088,131.721C138.677,131.292 136.239,132.898 133.671,135.29M76.465,139.89C73.313,141.263 71.719,143.742 72.356,146.282C73.143,149.417 88.271,164 90.736,164C92.669,164 101.635,157.645 109.5,150.7C112.107,148.399 113.152,146.839 112.5,146.223C111.044,144.847 90.861,140.039 84.197,139.481C81.064,139.219 77.584,139.403 76.465,139.89M120.487,149.391C117.513,150.687 97.787,165.918 96.604,167.832C95.442,169.713 97.076,171.581 103.773,176.028C109.727,179.981 111.143,180.495 116.095,180.497C121.123,180.5 122.439,180.003 129.095,175.595C140.569,167.995 148,162.027 148,160.413C148,159.017 127.075,147.951 124.602,148.039C123.996,148.061 122.144,148.669 120.487,149.391M52.456,157.278C43.162,162.603 41.5,163.931 41.5,166.028C41.5,167.966 42.473,168.975 46,170.698C59.507,177.294 81.717,175.786 82.82,168.198C83.381,164.335 69.375,151 64.756,151C64.017,151 58.482,153.825 52.456,157.278M8.25,161.261C7.712,161.942 6.988,165.04 6.64,168.144C5.989,173.949 6.59,175 10.556,175C12.282,175 15,169.927 15,166.705C15,163.157 9.96,159.092 8.25,161.261M267.365,176.027C258.058,180.542 254.813,184.799 250.485,198.168C247.815,206.42 246.674,211.946 246.29,218.5C245.608,230.108 246.9,234.824 252.297,240.427C255.729,243.989 257.876,245.191 264,246.976C268.125,248.178 273.217,250.276 275.315,251.638C281.689,255.776 303.283,265 306.595,265C313.235,265 320.086,257.721 321.964,248.672C323.2,242.718 324.42,240.655 331.868,231.913L337.236,225.612L336.573,219.056C335.772,211.14 333.679,201.814 331.587,196.838C330.287,193.746 329.226,192.907 324.773,191.444C321.873,190.491 314.1,187.352 307.5,184.468C297.126,179.935 276.882,172.949 274.344,173.026C273.88,173.04 270.739,174.39 267.365,176.027M113,212.57C108.325,213.905 100.45,215.954 95.5,217.123C78.351,221.172 68.687,227.182 64.351,236.493C60.09,245.644 61.821,253.228 70.371,262.855C75.639,268.786 76.09,271.442 73.401,280.693C71.428,287.48 72.184,293.885 75.305,296.816C78.365,299.692 84.235,302 88.487,302C96.513,302 111.406,295.18 129.347,283.289C149.115,270.187 156.095,260.035 156.829,243.321C157.346,231.559 154.99,220.139 151.164,215.858C148.694,213.094 147.66,212.772 137,211.447C122.691,209.669 123.25,209.643 113,212.57M349.947,348.229C344.409,352.249 343.072,353.897 343.032,356.75C342.99,359.719 340.803,359.662 332.323,356.47C328.626,355.078 325.039,354.155 324.353,354.418C321.886,355.365 319.822,361.405 316.439,377.579C312.6,395.935 312.268,400.533 314.595,403.105C316.067,404.731 315.74,406.222 310.351,422.481C304.629,439.739 304.461,440.082 302.008,439.466C300.631,439.12 299.406,438.74 299.287,438.62C299.167,438.5 297.95,434.222 296.583,429.112C295.215,424.002 293.57,419.186 292.926,418.411C291.659,416.885 278,416.324 278,417.798C278,418.671 315.665,501.998 316.385,502.718C317.03,503.363 320.191,501.577 332.25,493.756C344.004,486.132 344.213,485.782 341.818,477.787C340.905,474.739 340.924,467.356 341.904,445.3C343.276,414.432 344.303,408 348.897,401.5C350.452,399.3 352.531,395.925 353.518,394C356.694,387.803 367,355.681 367,351.979C367,348.609 366.716,348.293 362.25,346.693C355.856,344.401 355.087,344.497 349.947,348.229M37.634,380.513C37.314,381.344 36.761,384.872 36.405,388.351C35.877,393.505 36.234,396.328 38.331,403.589C39.747,408.49 41.219,414.279 41.602,416.452C42.076,419.142 43.684,421.886 46.635,425.041C50.344,429.006 51.624,431.63 55.486,443.187C61.034,459.792 63.75,472.397 64.61,485.541C65.157,493.9 64.985,496.128 63.581,498.843C61.903,502.088 61.175,512.856 62.49,514.984C62.848,515.564 65.472,517.215 68.321,518.653C77.614,523.346 98.233,536.084 111,545.02C126.515,555.879 134.424,560.222 143.828,563.043C151.123,565.232 151.304,565.237 184.214,564.022C210.39,563.056 222.758,563.06 243.615,564.043L269.958,565.283L276.229,563.01C288.249,558.652 321.658,541.055 322.607,538.582C323.047,537.435 285.844,454.444 284.115,452.715C283.562,452.162 282.421,452.579 281.23,453.77C279.797,455.203 279.069,457.769 278.563,463.169C277.306,476.583 275.699,475.734 274.537,461.043C273.914,453.167 273.197,452.04 268.785,452.015C265.001,451.994 264.272,453.943 263.446,466.272C262.969,473.382 262.267,477.363 261.356,478.12C259.772,479.434 253.53,478.685 251.411,476.926C249.037,474.955 249.817,469.511 253.457,462.649L256.915,456.132L252.207,454.575C249.618,453.719 245.363,452.728 242.75,452.373C238.531,451.8 238.002,451.939 238.018,453.614C238.043,456.279 228.706,483 227.749,483C227.315,483 222.912,480.967 217.964,478.482L208.967,473.964L210.611,470.732C211.515,468.954 212.366,467.368 212.503,467.207C212.64,467.046 213.693,468.509 214.842,470.457C216.677,473.566 217.417,474 220.895,474C226.528,474 227.727,472.294 228.44,463.265C228.777,458.994 229.234,454.06 229.455,452.301C229.843,449.218 229.703,449.078 225.605,448.464C220.435,447.688 214.492,449.876 213.529,452.909C212.692,455.546 211.8,455.542 209.405,452.894C204.752,447.749 193.018,444.906 191.607,448.582C191.273,449.452 190.993,454.064 190.985,458.832C190.976,463.599 190.49,468.175 189.904,469C189.132,470.087 188.985,468.091 189.37,461.75L189.903,453.001L186.884,451.44C179.737,447.744 177.27,451.891 176.141,469.5C175.632,477.437 175.191,479.5 174,479.5C172.783,479.5 172.311,476.801 171.499,465.213C170.742,454.418 170.131,450.694 168.999,449.978C167.059,448.752 166.301,448.769 163.826,450.093C162.335,450.891 160.062,450.861 155.403,449.982C151.893,449.319 147.937,449.05 146.611,449.383C142.291,450.467 140.632,459.481 143.491,466.324C144.311,468.287 144.623,470.115 144.184,470.386C143.745,470.658 141.525,467.126 139.249,462.539C135.267,454.51 134.929,454.137 130.204,452.568C124.821,450.78 120.782,451.52 119.636,454.505C118.366,457.817 119.003,469.967 120.666,474.122C122.251,478.086 122.242,478.35 120.474,479.642C117.714,481.661 116.844,481.442 106.009,476.005L96.055,471.009L99.525,465.255C101.433,462.09 102.996,459.009 102.997,458.408C102.999,457.808 98.613,448.133 93.25,436.908L83.5,416.5L83.5,395.672L78.594,392.655C71.609,388.361 64.552,387.873 59.461,391.333L55.691,393.894L52.596,388.731C47.928,380.944 39.289,376.199 37.634,380.513M192.271,405.058C187.846,407.139 185.908,408.642 185.581,410.244C185.329,411.485 184.851,418.875 184.521,426.666C184.068,437.337 184.224,441.02 185.15,441.593C185.826,442.011 189.886,442.556 194.171,442.804C200.288,443.158 202.504,442.9 204.481,441.604C206.902,440.018 207,439.556 206.994,429.727C206.991,424.102 206.489,417.7 205.877,415.5C205.266,413.3 204.477,409.475 204.125,407C203.573,403.114 203.145,402.475 200.993,402.313C199.622,402.211 195.697,403.446 192.271,405.058M218.413,407.75C212.027,422.085 210.828,425.669 210.297,432.001C209.796,437.968 209.975,438.975 211.866,440.866C213.04,442.04 215.27,443 216.822,443C219.785,443 228.727,440.318 230.587,438.871C231.625,438.064 233.232,428.543 234.55,415.402C235.225,408.664 233.842,406 229.669,406C228.466,406 226.919,405.1 226.232,404C223.878,400.23 221.189,401.519 218.413,407.75M160,404.658C159.175,404.933 157.926,405.338 157.225,405.558C156.31,405.844 156.845,407.731 159.115,412.227L162.28,418.498L163.625,413.999C165.551,407.556 165.416,403.981 163.25,404.079C162.287,404.122 160.825,404.383 160,404.658M246,410.686C244.625,410.952 243.192,411.469 242.815,411.835C242.438,412.201 241.595,418.221 240.941,425.214L239.753,437.928L243.97,442.964C248.952,448.915 251.816,449.472 254.932,445.096C256.794,442.481 257,440.747 257,427.718C257,416.813 256.668,412.97 255.655,412.128C253.985,410.743 249.317,410.046 246,410.686M153.087,469.104C152.411,471.361 151.633,473.792 151.36,474.505C151.079,475.238 152.898,477.357 155.537,479.372C160.049,482.818 160.313,482.889 163.132,481.432L166.051,479.922L160.842,472.461C157.977,468.357 155.337,465 154.975,465C154.613,465 153.763,466.847 153.087,469.104" style="fill:rgb(28,28,28);"/>
    </g>
</svg>
