<?xml version="1.0" encoding="UTF-8" standalone="no"?>
<!DOCTYPE svg PUBLIC "-//W3C//DTD SVG 1.1//EN" "http://www.w3.org/Graphics/SVG/1.1/DTD/svg11.dtd">
<svg width="100%" height="100%" viewBox="0 0 403 531" version="1.1" xmlns="http://www.w3.org/2000/svg" xmlns:xlink="http://www.w3.org/1999/xlink" xml:space="preserve" xmlns:serif="http://www.serif.com/" style="fill-rule:evenodd;clip-rule:evenodd;stroke-linejoin:round;stroke-miterlimit:2;">
    <g id="svgPath">
        <path d="M196.5,1.626C194.85,1.872 186.975,2.981 179,4.09C161.133,6.575 148.927,9.711 136.452,15.02C131.187,17.261 123.216,20.446 118.739,22.096C102.207,28.192 66.306,48.126 57.708,55.983C51.436,61.716 34.634,82.6 35.356,83.767C35.616,84.187 40.386,87.654 45.958,91.471C55.412,97.948 56.501,98.435 62.293,98.774C70.062,99.228 78.186,96.56 86.245,90.908C93.487,85.829 102.877,81.562 110.071,80.08C113.135,79.449 123.485,78.573 133.071,78.134C150.499,77.335 150.5,77.334 157.743,73.658C172.415,66.211 179.471,66.591 193.189,75.565C197.704,78.518 201.564,80.769 201.767,80.566C202.593,79.74 189.482,32.483 188.028,31.05C187.164,30.198 185.341,28.736 183.978,27.802C181.59,26.167 181.991,26.104 195,26.075L208.5,26.046L204.75,28.22C202.688,29.415 201,31.164 201,32.105C201,38.028 213.877,82.523 215.206,81.194C216.223,80.177 222.337,52.037 224.006,40.692C225.303,31.872 224.186,28.587 219.487,27.407C213.759,25.97 217.793,25 229.5,25C236.375,25 242,25.216 242,25.479C242,25.743 239.999,27.804 237.553,30.058C235.056,32.36 232.436,35.987 231.58,38.329C229.424,44.228 222.831,79.637 223.196,83.359C223.472,86.165 224.156,86.73 230.5,89.375C241.273,93.868 243.695,93.576 256.008,86.3C270.681,77.63 277.638,74.619 283,74.62C288.011,74.62 289.901,75.636 300.671,84.121C304.615,87.228 311.653,92.072 316.31,94.885C328.575,102.294 332.22,101.918 343,92.13C345.475,89.883 350.966,86.223 355.201,83.997C362.592,80.113 362.945,80.028 363.951,81.909C364.528,82.987 365,84.117 365,84.42C365,84.723 362.218,86.376 358.818,88.092C349.689,92.7 345.429,95.762 344.106,98.667C343.456,100.092 343.176,101.51 343.484,101.817C344.669,103.003 355.732,103.149 359.874,102.034C362.359,101.365 365.956,99.248 368.261,97.097L372.298,93.332L369.693,89.499C366.727,85.134 366.936,84.342 371.574,82.405C375.89,80.601 379.33,81.861 382.01,86.225C384.894,90.922 384.257,92.5 379.476,92.5C375.682,92.5 375.506,92.64 375.626,95.553C375.724,97.936 375.121,98.968 372.876,100.256C370.948,101.363 370,102.709 370,104.34C370,106.467 370.582,106.86 374.628,107.467C377.173,107.849 379.934,108.421 380.763,108.739C381.808,109.14 381.462,107.938 379.635,104.821C378.186,102.348 377,99.976 377,99.551C377,98.415 384.134,99.912 386.75,101.597C390.015,103.7 389.651,106.877 386,108.15C382.507,109.367 382.549,109.228 384.526,113.05C386.32,116.52 385.989,116.45 390.476,114.31C393.296,112.965 394.273,112.873 395.26,113.86C397.167,115.767 396.76,128.703 394.643,133.5C392.572,138.192 391.964,137.531 390.043,128.5C388.169,119.692 386.515,117.12 381.179,114.719C377.754,113.179 374.389,112.599 368.624,112.557C361.302,112.504 360.612,112.681 358.813,115.07C357.222,117.183 357.077,118.075 357.997,120.093C359.315,122.987 374.115,132.779 384.023,137.312C388.903,139.546 391.173,141.174 391.603,142.75C392.473,145.937 393.575,145.569 396.898,140.982C400.758,135.654 402.346,128.546 401.797,119.063C401.44,112.889 400.772,110.323 398.504,106.409C396.94,103.709 394.164,98.35 392.337,94.5C386.754,82.737 385.383,80.585 381.981,78.25C378.274,75.705 372.877,75.41 366.5,77.405L362.5,78.656L352.5,69.039C330.743,48.115 311.358,33.647 289.044,21.679C279.395,16.503 270.15,11.764 268.5,11.147C266.85,10.531 256.725,8.168 246,5.897C229.728,2.451 224.265,1.719 213,1.473C205.575,1.311 198.15,1.38 196.5,1.626M164.388,76.07C158.886,78.187 155.047,81.522 156.574,82.858C157.083,83.304 159.647,84.46 162.272,85.426C164.896,86.392 170.436,89.616 174.583,92.591C178.729,95.566 183.107,97.993 184.311,97.984C187.369,97.963 200.436,90.685 200.799,88.802C201.111,87.188 187.051,77.08 181.685,75.06C177.412,73.451 170.084,73.879 164.388,76.07M275.971,81.442C270.635,83.408 262.117,87.85 256.25,91.726C248.606,96.776 248.974,98.47 259.25,105.562C271.047,113.702 270.607,113.586 278.073,110.526C286.758,106.966 299.307,104.022 306,103.975C310.788,103.941 315,102.429 315,100.743C315,100.448 310.613,97.219 305.25,93.567C299.887,89.915 293.553,85.369 291.172,83.464C286.395,79.64 282.327,79.099 275.971,81.442M17.058,85.219C14.615,86.473 11.346,89.098 9.793,91.052C7.239,94.267 6.885,95.692 6.075,106.052C5.583,112.348 4.436,119.525 3.527,122C2.619,124.475 1.614,129.519 1.296,133.209C0.601,141.256 1.827,143.716 7.891,146.451C13.136,148.816 13.28,151.492 8.583,159.292C3.333,168.01 2.663,170.994 3.279,182.92C3.656,190.239 5.734,202.745 10.02,223.5C17.47,259.571 17.618,260.064 21.5,261.863C24.856,263.418 29.694,267.619 31.088,270.188C31.783,271.469 30.531,274.178 25.903,281.412C19.012,292.18 18.058,295.213 18.024,306.434L18,314.368L22.865,319.057C26.756,322.807 29.407,324.299 36.115,326.509C45.962,329.755 49.458,331.411 53.393,334.696C57.443,338.077 65.473,342 68.344,342C71.287,342 72.265,340.868 76.88,332.118L80.5,325.254L95.5,335.377C110.325,345.382 110.527,345.568 112.817,351.353C115.774,358.823 116.654,369.195 115.062,377.806L113.824,384.5L118.39,394.273C120.901,399.648 123.707,404.334 124.625,404.686C125.544,405.039 127.691,404.714 129.397,403.965C131.104,403.216 135.057,402.692 138.183,402.801C145.634,403.059 146.011,401.812 142.051,389.994C140.373,384.985 139,380.534 139,380.104C139,379.315 143.402,377 144.9,377C145.343,377 145.958,381.215 146.265,386.367C146.895,396.928 149.059,402.482 153.882,405.916C157.343,408.381 158.781,408.508 160.954,406.542C162.365,405.264 163.098,405.268 166.877,406.57C171.67,408.221 177.212,407.655 179.153,405.315C180.121,404.15 180.095,402.021 179.03,395.17C177.331,384.244 177.55,379.916 180.102,373.984C182.176,369.163 185.049,367 189.378,367C190.633,367 193.873,365.88 196.577,364.511C201.861,361.836 203.724,361.933 206.523,365.026C208.657,367.383 212.732,367.557 217.654,365.5C223.667,362.988 226.48,363.583 234.194,369C238.11,371.75 242.082,374 243.022,374C243.962,374 245.852,373.118 247.222,372.04L249.715,370.079L256.607,373.694C260.398,375.682 263.652,377.429 263.838,377.576C264.024,377.723 263.224,379.13 262.061,380.704C260.071,383.395 259.986,384.326 260.626,396.302C261.282,408.572 261.393,409.061 263.651,409.627C267.508,410.595 268.683,409.464 270.976,402.572L273.163,396L278.149,396C282.423,396 283.063,396.25 282.631,397.75C282.354,398.712 281.986,401.975 281.813,405L281.5,410.5L286.198,410.803C291.923,411.172 296.395,409.071 298.483,405.033C300.547,401.041 300.388,398.042 297.976,395.474C296.077,393.453 296.027,392.882 297.166,386.239C298.334,379.427 297.819,373.839 295.463,367.75C295.009,366.576 295.264,366 296.238,366C298.483,366 300.464,363.093 303.053,356C306.456,346.68 311.218,341.971 322.778,336.495C328.022,334.011 332.452,332.119 332.623,332.289C332.793,332.46 334.037,335.095 335.385,338.145C337.168,342.176 338.645,344.024 340.794,344.915C343.549,346.056 344.689,345.67 357.625,339.217C365.256,335.41 373.229,332.025 375.343,331.695C380.464,330.896 385.185,327.134 387.495,322.012L389.382,317.826L386.171,304.663C384.405,297.423 382.969,290.087 382.98,288.359C382.994,286.19 385.378,281.446 390.689,273.024L398.378,260.829L397.071,253.665C396.243,249.126 395.463,231.289 394.945,205C394.197,167.086 393.672,155.46 392.434,149.311C392.11,147.705 389.528,145.916 382.731,142.587C377.637,140.093 368.983,135.115 363.501,131.526C358.019,127.937 352.934,125 352.201,125C349.406,125 346.196,127.528 336.922,137.03C328.429,145.732 326.7,147.031 321.672,148.493C314.375,150.614 307.515,149.342 299.94,144.462C296.985,142.558 293.999,141 293.305,141C292.61,141 288.545,142.178 284.271,143.617C273.179,147.352 265.993,146.657 253.808,140.672C248.848,138.236 244.032,136.44 243.106,136.683C242.18,136.925 237.164,140.709 231.961,145.092C219.935,155.222 217.044,156.207 208.294,153.153C196.346,148.983 174.541,138.412 168.122,133.678C161.27,128.624 158.324,127.445 155.101,128.468C153.976,128.825 149.331,132.247 144.778,136.073C140.225,139.899 132.96,144.822 128.634,147.014C116.572,153.126 111.034,152.482 98.447,143.499C94.979,141.025 91.039,139 89.692,139C88.344,139 84.6,140.213 81.371,141.697C76.863,143.767 73.504,144.49 66.902,144.812C57.207,145.284 50.396,143.743 40.831,138.915C37.655,137.312 33.898,136 32.481,136C31.065,136 26.552,137.841 22.453,140.09L15,144.181L15,141.116C15,138.663 15.648,137.723 18.25,136.405C21.938,134.537 25,132.055 25,130.933C25,130.516 23.183,129.869 20.963,129.494C17.406,128.893 17.004,128.555 17.587,126.656C17.951,125.47 18.373,124.357 18.525,124.183C18.677,124.009 22.312,124.354 26.603,124.951C34.031,125.984 34.648,125.917 39.453,123.544C42.229,122.173 47.987,118.805 52.25,116.06C60.926,110.472 62.011,108.091 57.05,105.526C52.998,103.431 51.4,103.555 36.719,107.106C29.656,108.814 23.664,109.997 23.402,109.735C23.139,109.473 23.451,108.105 24.093,106.695C24.974,104.761 26.273,103.971 29.381,103.477C34.363,102.684 44,98.496 44,97.123C44,96.58 41.293,94.647 37.985,92.829C33.632,90.436 32.143,89.104 32.596,88.011C34.235,84.057 33.65,83.507 27.5,83.219C22.832,83 20.514,83.444 17.058,85.219M119,83.993C115.425,84.382 110.475,85.26 108,85.943C102.459,87.473 90.754,93.51 88.499,96.001C86.942,97.722 86.953,97.903 88.667,98.802C90.124,99.566 104.929,103.141 116.357,105.487C119.656,106.165 122.318,104.373 132.455,94.653L142.41,85.106L139.64,84.053C136.622,82.906 129.169,82.884 119,83.993M146.5,88.9C140.388,92.859 128.797,104.707 129.154,106.632C129.373,107.816 132.794,110.225 138.5,113.214C150.986,119.753 152.936,119.657 165.346,111.893C174.957,105.881 175.103,105.731 174.804,102.234C174.55,99.266 173.716,98.142 169.739,95.408C165.332,92.379 157.249,88.821 151.791,87.507C150.408,87.175 148.311,87.727 146.5,88.9M24.833,88.85C24.65,89.317 22.502,90.358 20.061,91.163C14.836,92.885 12.269,95.982 11.493,101.5C10.581,107.981 11.759,108.708 18.864,106.051C24.198,104.056 25.054,103.356 26.093,100.144C26.741,98.14 28.097,94.856 29.107,92.846C30.735,89.605 30.767,89.125 29.39,88.596C27.183,87.749 25.222,87.858 24.833,88.85M221,94.346C221,99.07 225.451,104.896 229.115,104.968C231.489,105.015 236,101.138 236,99.051C236,97.744 233.933,96.405 228.5,94.192L221,91.137L221,94.346M199.5,96.975C193.6,99.85 190.032,103.503 191.668,104.995C195.418,108.414 216.725,112.314 219.885,110.159C221.314,109.185 220.923,105.884 219.037,103C218.204,101.726 217.81,101.849 216.427,103.813C214.845,106.06 214.739,106.074 212.769,104.313C211.654,103.316 209.915,100.588 208.906,98.25C207.897,95.912 206.718,94.011 206.286,94.026C205.853,94.04 202.8,95.367 199.5,96.975M237.25,106.603C234.912,108.562 233,110.844 233,111.673C233,113.708 241.688,123.766 244.109,124.535C247.028,125.461 262,116.753 262,114.129C262,112.691 246.183,103 243.867,103.02C242.565,103.03 239.588,104.643 237.25,106.603M74.56,106.132C72.399,107.831 71.98,108.794 72.496,110.882C73.264,113.993 88.327,129 90.681,129C92.404,129 99.893,123.69 108.813,116.144C112.902,112.685 113.791,111.463 112.673,110.837C109.719,109.184 86.395,104 81.91,104C78.688,104 76.441,104.652 74.56,106.132M172.25,113.552C166.241,118.123 165,119.554 165,121.912C165,124.369 166.129,125.505 173.25,130.218C185.478,138.311 189.335,140.34 202.131,145.414C213.05,149.745 213.983,149.949 217.396,148.763C219.396,148.068 225.071,144.125 230.007,140C241.167,130.674 241.254,130.038 232.648,120.571L226.35,113.642L221.67,114.952C213.928,117.12 203.876,115.928 193.953,111.666C189.258,109.65 184.086,108.008 182.459,108.019C180.433,108.031 177.215,109.775 172.25,113.552M307.5,109.024C297.135,109.778 292.226,110.821 283.266,114.173C276.06,116.87 276.33,118.583 285.063,125.55C290.475,129.868 292.66,131.051 294.413,130.611C297.162,129.921 317.424,114.66 319.472,111.737C321.01,109.541 320.653,107.904 318.691,108.148C318.036,108.23 313,108.624 307.5,109.024M320.995,117.655C302.586,131.991 300,134.256 300,136.04C300,137.062 301.629,139.141 303.62,140.659C308.966,144.737 318.256,145.213 324.217,141.716C329.453,138.645 344,122.655 344,119.971C344,117.409 337.231,112.974 332.322,112.319C328.849,111.856 327.815,112.342 320.995,117.655M120.834,113.82C117.983,114.984 97.096,131.418 96.457,133C95.665,134.963 101.723,140.228 108.704,143.644C115.086,146.766 120.228,146.384 126.5,142.322C136.744,135.687 148,126.66 148,125.08C148,123.88 144.735,121.796 137.189,118.18C126.583,113.098 124.177,112.456 120.834,113.82M52,122.318C43.201,127.56 41.5,128.972 41.5,131.037C41.5,133.986 45.267,136.092 54.984,138.577C67.22,141.707 82.127,138.698 82.796,132.963C83.223,129.301 69.51,115.986 65.357,116.031C63.68,116.049 58.162,118.647 52,122.318M259.331,123.522C256.547,124.909 253.463,126.936 252.476,128.026C249.94,130.828 251.751,134.314 257.21,137.138C265.24,141.294 287,140.654 287,136.262C287,133.988 277.875,125.602 272.646,123.071C267.142,120.406 265.471,120.463 259.331,123.522M8.258,126.25C7.715,126.938 7.02,130.068 6.712,133.207C6.233,138.097 6.409,138.995 7.936,139.48C10.525,140.301 12.571,139.238 13.865,136.398C15.61,132.567 15.226,129.561 12.686,127.174C9.999,124.65 9.589,124.565 8.258,126.25M277.5,174.817C265.103,180.101 262.261,183.419 257.463,198.215C253.26,211.176 251.772,225.748 253.97,232.41C256.488,240.038 263.239,245.417 273.429,247.912C276.14,248.576 279.682,250.062 281.3,251.214C286.376,254.828 310.128,265 313.492,265C320.283,265 327.074,257.778 328.998,248.51C330.096,243.219 331.248,241.347 339.857,230.858L344.214,225.55L343.543,218.739C342.777,210.966 340.705,202.155 338.409,196.906C337.045,193.787 335.957,193.005 330.169,190.98C326.501,189.697 318.775,186.537 313,183.957C304.621,180.214 283.427,172.799 281.844,173.056C281.655,173.087 279.7,173.879 277.5,174.817M117.5,176.117C115.85,176.637 107.696,178.811 99.381,180.948C77.318,186.618 69.009,191.492 64.351,201.493C60.085,210.654 61.753,217.86 70.469,227.93C74.888,233.037 75.14,233.634 74.684,237.93C74.417,240.444 73.69,244.75 73.068,247.5C71.647,253.786 72.499,259.18 75.333,261.843C78.356,264.683 84.244,267 88.439,267C99.674,267 131.686,249.333 145.049,235.758C147.781,232.983 151.475,227.747 153.258,224.123C156.399,217.74 156.499,217.147 156.463,205.018C156.421,190.924 155.194,185.368 151.116,180.804C148.568,177.952 147.485,177.574 138.415,176.379C126.917,174.863 121.687,174.798 117.5,176.117M196.572,219.884C196.272,220.37 194.186,227.682 191.938,236.134C189.689,244.585 186.144,255.144 184.061,259.598C178.451,271.588 177.528,276.416 177.576,293.5C177.635,314.564 179.572,322 184.998,322C185.619,322 189.609,318.683 193.866,314.628C201.187,307.654 206.421,304 209.09,304C209.745,304 214.662,308.305 220.018,313.567L229.756,323.135L233.221,318.817C248.376,299.938 249.07,292.628 238.284,265.5C231.586,248.655 231.402,248.066 229.005,235.785C227.961,230.442 226.618,225.154 226.019,224.035C224.405,221.019 221.598,221.555 218.09,225.55L214.973,229.1L206.392,224.05C196.911,218.469 197.335,218.649 196.572,219.884M37.619,345.26C35.607,352.665 35.848,360.606 38.323,368.5C39.702,372.9 41.146,378.488 41.532,380.917C42.057,384.23 43.354,386.533 46.723,390.135C50.723,394.411 51.741,396.563 56.042,409.831C61.587,426.934 63.744,437.242 64.64,450.914C65.156,458.792 64.971,461.155 63.636,463.736C62.615,465.711 62,469.337 62,473.381L62,479.862L75.75,487.606C83.313,491.865 97.15,500.52 106.5,506.839C126.719,520.503 130.752,522.924 138,525.75C149.02,530.045 149.778,530.095 184.811,528.829C211.328,527.871 223.276,527.885 243.391,528.897C262.813,529.875 269.682,529.898 273.08,528.999C283.766,526.172 314.859,509.709 337.839,494.71L350.177,486.657L349.544,482.578C347.94,472.254 347.852,465.815 348.99,442.06C350.31,414.512 351.455,407.784 355.897,401.5C357.452,399.3 359.531,395.925 360.518,394C363.701,387.79 374,355.677 374,351.964C374,348.481 373.824,348.31 368.531,346.641C363.534,345.066 362.8,345.052 360.044,346.477C354.808,349.185 350,354.032 350,356.604C350,359.73 348.067,359.702 339.047,356.449C335.157,355.046 331.527,354.174 330.98,354.512C328.701,355.921 326.758,361.914 323.446,377.749C321.519,386.962 319.741,395.437 319.494,396.583C319.247,397.729 319.893,400.328 320.928,402.358L322.81,406.05L317.173,423.025C311.561,439.925 310.686,441.359 307.301,439.207C306.642,438.788 304.894,434.182 303.417,428.973C301.94,423.763 300.286,418.938 299.743,418.25C299.094,417.429 295.897,417 290.434,417C282.969,417 281.953,417.229 280.557,419.223C279.701,420.445 279,422.898 279,424.673C279,426.449 278.497,430.248 277.882,433.115C276.432,439.875 275.419,437.955 274.715,427.112C274.364,421.715 273.694,418.421 272.835,417.877C270.836,416.61 266.382,416.829 265.246,418.25C264.697,418.938 263.923,424.224 263.526,429.998C263.129,435.773 262.383,441.285 261.867,442.248C260.727,444.379 258.073,444.475 253.468,442.551C250.456,441.293 250,440.646 250,437.634C250,435.605 251.428,431.474 253.441,427.68L256.882,421.194L254.191,420.139C249.638,418.354 239.696,416.07 238.825,416.608C238.371,416.889 238,417.962 238,418.994C238,421.22 229.282,446.118 228.082,447.318C227.626,447.774 223.154,446.088 218.143,443.572L209.034,438.997L210.751,435.396C212.258,432.235 212.592,432.011 213.484,433.56C216.677,439.106 222.973,440.897 226.311,437.209C228.342,434.964 230.277,414.929 228.575,413.765C226.829,412.572 219.692,412.964 217.11,414.396C215.796,415.124 214.185,416.719 213.532,417.94L212.344,420.16L209.422,417.721C205.749,414.654 201.404,412.435 197.374,411.568C192.165,410.447 191.003,412.586 190.985,423.321C190.976,428.37 190.49,433.175 189.904,434C189.132,435.087 188.985,433.091 189.37,426.75L189.903,418.001L186.884,416.44C179.737,412.744 177.27,416.891 176.141,434.5C175.632,442.437 175.191,444.5 174,444.5C172.784,444.5 172.311,441.81 171.5,430.291C170.896,421.708 170.017,415.602 169.28,414.871C168.325,413.923 167.225,413.936 164.217,414.929C161.309,415.888 159.414,415.931 156.437,415.104C154.271,414.503 150.79,414.009 148.699,414.006C145.305,414.001 144.743,414.371 143.449,417.468C141.588,421.921 141.612,426.135 143.523,430.709C144.361,432.714 144.676,434.724 144.223,435.177C143.771,435.629 141.623,432.332 139.45,427.85C136.044,420.822 134.949,419.449 131.5,417.872C126.307,415.499 123.467,415.533 121,418C119.354,419.646 119,421.333 119,427.532C119,431.965 119.617,436.541 120.5,438.654C122.442,443.301 122.423,443.435 119.646,444.922C117.549,446.044 116.125,445.632 106.638,441.157L95.985,436.132L99.493,430.148C101.422,426.856 103,423.68 103,423.09C103,422.499 98.632,412.9 93.294,401.758C84.909,384.255 83.533,380.656 83.181,375.295C82.956,371.883 83.262,367.688 83.86,365.973C84.814,363.234 84.662,362.571 82.607,360.517C76.106,354.015 65.409,351.843 59.911,355.908C58.255,357.132 56.509,357.991 56.03,357.817C55.551,357.643 53.661,355.282 51.83,352.572C48.187,347.181 44.925,344.515 40.864,343.608C38.723,343.13 38.114,343.44 37.619,345.26M194.199,369.238C190.183,370.934 186.533,373.037 186.086,373.911C185.639,374.785 184.991,382.342 184.646,390.705L184.018,405.911L187.759,406.95C193.776,408.621 202.451,408.267 204.924,406.25C206.838,404.689 207.074,403.475 207.113,395C207.157,385.582 204.375,368.946 202.443,367.07C201.868,366.512 198.649,367.359 194.199,369.238M221.259,367.25C220.716,367.938 218.186,373.15 215.635,378.834C209.771,391.902 208.52,400.908 211.964,405.25C213.395,407.054 215.091,408 216.894,408C220.222,408 229.066,405.179 230.621,403.622C231.756,402.485 233.386,393.066 234.58,380.744C235.3,373.305 234.348,371 230.552,371C229.34,371 227.292,369.875 226,368.5C223.337,365.665 222.652,365.484 221.259,367.25M158.224,370.041L155.948,370.955L159.139,377.227L162.329,383.5L163.645,378.5C165.619,371.001 165.429,368.988 162.75,369.063C161.512,369.098 159.476,369.538 158.224,370.041M244.25,376.031C243.012,376.529 242,377.435 242,378.046C242,378.656 241.512,384.507 240.915,391.047L239.83,402.939L244.071,407.97C249.06,413.886 251.845,414.431 254.932,410.096C256.794,407.48 257,405.748 257,392.667C257,380.797 256.713,377.856 255.429,376.571C253.715,374.858 247.872,374.575 244.25,376.031M153.087,434.104C152.411,436.361 151.64,438.775 151.374,439.468C151.108,440.161 153.043,442.322 155.674,444.271C160.222,447.639 160.597,447.743 163.26,446.365L166.062,444.917L160.906,437.458C158.07,433.356 155.428,430 155.033,430C154.639,430 153.763,431.847 153.087,434.104" style="fill:rgb(28,28,28);"/>
    </g>
</svg>
