<?xml version="1.0" encoding="UTF-8" standalone="no"?>
<!DOCTYPE svg PUBLIC "-//W3C//DTD SVG 1.1//EN" "http://www.w3.org/Graphics/SVG/1.1/DTD/svg11.dtd">
<svg width="100%" height="100%" viewBox="0 0 398 532" version="1.1" xmlns="http://www.w3.org/2000/svg" xmlns:xlink="http://www.w3.org/1999/xlink" xml:space="preserve" xmlns:serif="http://www.serif.com/" style="fill-rule:evenodd;clip-rule:evenodd;stroke-linejoin:round;stroke-miterlimit:2;">
    <g id="svgPath">
        <path d="M189.5,2.474C161.082,6.078 150.527,8.846 122,20.179C101.619,28.275 70.139,45.053 58.445,54.053C53.193,58.094 40.296,73.11 33.693,82.872C22.702,99.121 15.046,119.689 11.499,142.5C10.299,150.217 8.985,154.441 5.743,161C0.401,171.808 -0.091,178.136 2.977,196.505C6.469,217.403 15.076,257.304 16.62,259.745C17.401,260.979 19.546,262.619 21.388,263.389C23.23,264.158 25.952,266.382 27.438,268.33C30.529,272.382 30.837,271.356 22.579,284.508C17.3,292.916 17.162,293.326 16.461,302.675C15.882,310.397 16.047,312.875 17.314,315.532C19.472,320.057 25.885,324.199 36.522,327.939C41.46,329.675 47.975,332.814 51,334.916C57.949,339.744 64.349,343 66.892,343C69.132,343 71.523,339.942 75.492,332C77.004,328.975 78.378,326.346 78.546,326.157C79.189,325.437 106.021,344.236 108.422,347.089C113.081,352.626 115.272,365.401 113.725,378L112.681,386.5L117.09,395.466C119.516,400.398 122.249,404.871 123.164,405.407C124.343,406.097 126.042,405.834 128.992,404.504C131.668,403.297 134.915,402.719 138.078,402.887C142.876,403.142 143,403.077 142.987,400.324C142.979,398.771 141.635,393.675 140,389C138.365,384.325 137.021,380.442 137.013,380.371C136.964,379.892 143.159,377.825 143.531,378.197C143.787,378.454 144.254,382.227 144.569,386.582C145.303,396.739 147.266,402.148 151.6,405.953C155.58,409.448 156.634,409.641 159.175,407.341C160.68,405.98 161.464,405.89 163.551,406.841C167.309,408.553 175.549,408.308 177.429,406.429C179.379,404.478 179.379,404.408 177.342,393.776C175.929,386.403 175.862,384.195 176.909,379.515C178.623,371.857 181.839,368.288 187.793,367.436C190.382,367.066 194.21,365.821 196.301,364.669C199.397,362.963 200.417,362.801 201.801,363.793C207.917,368.181 209.504,368.437 216.319,366.135C223.752,363.625 224.694,363.83 233.155,369.809C240.698,375.139 242.11,375.488 245.461,372.852L248.237,370.669L254.368,373.978C262.455,378.343 262.416,378.294 260.585,381.835C259.41,384.107 259,387.851 259,396.295C259,406.064 259.261,407.926 260.829,409.345C264.715,412.862 267.625,410.603 270.103,402.146C271.466,397.496 271.466,397.495 277.394,396.505L281.289,395.855L279.941,410.735L283.72,411.339C290.365,412.402 294.737,410.343 297.602,404.802C299.534,401.066 299.356,399.007 296.87,396.362C294.841,394.202 294.796,393.728 295.927,386.298C296.929,379.705 296.874,377.727 295.567,373.5C293.53,366.908 293.593,366.197 296.249,365.82C297.966,365.576 298.973,364.188 300.499,359.964C303.292,352.236 307.471,345.504 311.272,342.611C314.793,339.931 328.735,333 330.606,333C331.245,333 332.779,335.491 334.014,338.534C336.293,344.149 338.245,346 341.886,346C342.996,346 350.279,342.85 358.07,339C365.862,335.15 373.518,332 375.084,332C378.62,332 384.14,327.332 386.511,322.336C388.218,318.738 388.189,318.457 384.539,303.464L380.834,288.245L383.047,283.873C384.265,281.468 387.976,275.295 391.295,270.155L397.329,260.809L396.033,252.829C395.212,247.773 394.647,233.059 394.491,212.675C394.202,175.053 390.943,133.922 387.407,123.272C383.848,112.551 371.059,91.89 359.42,78.058C346.796,63.055 313.77,35.663 298.335,27.394C294.576,25.38 287.225,21.336 282,18.407C270.008,11.685 267.364,10.765 246,5.891C225.237,1.154 208.085,0.117 189.5,2.474M195,34.878C195,35.36 195.705,36.34 196.566,37.055C200.263,40.123 200.714,43.159 201.358,69.305C202.033,96.658 201.688,99.396 197.258,101.875C193.968,103.717 196.784,104.094 208.553,103.391L220.344,102.686L217.809,100.593C212.155,95.925 212.09,95.561 211.784,66.977C211.502,40.674 211.515,40.479 213.818,37.25L216.136,34L205.568,34C199.756,34 195,34.395 195,34.878M278.999,174.028C274.305,175.288 267.504,179.208 263.727,182.831C260.65,185.783 259.323,188.403 256.532,197.037C246.664,227.563 250.971,242.72 271.006,247.969C273.478,248.617 278.164,250.715 281.419,252.631C288.682,256.907 309.625,266 312.211,266C318.95,266 327.96,255.268 327.994,247.2C328.005,244.752 331.289,239.499 336.133,234.181C338.798,231.256 341.34,227.467 341.782,225.762C342.891,221.483 341.289,208.792 338.674,201.136L336.5,194.773L326.5,190.355C300.96,179.072 283.089,172.93 278.999,174.028M114.5,177.501C83.05,184.562 80.748,185.237 74.364,189.275C68.601,192.92 62.266,200.299 61.062,204.769C60.341,207.449 60.314,210.381 60.978,213.887C62.222,220.441 63.276,222.417 68.599,228.164C73.921,233.91 74.665,236.601 72.602,242.654C71.721,245.24 71,250.154 71,253.575C71,259.407 71.213,259.98 74.437,262.811C76.544,264.661 79.93,266.284 83.187,267.007C88.162,268.11 89.032,267.99 96.869,265.119C112.002,259.575 131.412,247.652 142.097,237.336C146.96,232.641 149.644,228.992 152.12,223.712C155.278,216.974 155.496,215.843 155.433,206.5C155.349,194.172 153.034,184.61 149.197,180.751C146.876,178.417 145.184,177.852 137.982,177.006C133.317,176.459 128.375,175.841 127,175.633C125.625,175.426 120,176.266 114.5,177.501M193.07,227.25C189.061,242.644 185.838,252.477 181.961,261.146C179.835,265.902 177.566,272.829 176.92,276.54C175.491,284.747 176.228,313.017 177.995,317.771C179.053,320.619 181.55,323 183.478,323C183.814,323 188.099,319.199 193.001,314.553C199.665,308.238 202.833,305.934 205.558,305.423C209.123,304.754 209.417,304.953 218.965,314.465L228.728,324.191L234.378,316.173C242.201,305.072 243.954,300.836 243.966,293C243.979,284.92 242.614,279.861 236.101,263.853C231.321,252.105 228.989,244.204 226.032,229.746C225.193,225.644 224.24,223.663 222.711,222.845C220.817,221.832 220.159,222.164 217.064,225.695L213.561,229.691L204.745,224.346C199.897,221.405 195.77,219 195.574,219C195.379,219 194.252,222.713 193.07,227.25M35.689,346.152C33.653,354.437 33.933,358.638 37.444,372.391C41.077,386.628 41.357,387.251 46.5,392.53C48.708,394.796 50.608,399.028 53.697,408.555C59.417,426.202 60.655,431.501 62.416,445.873C63.869,457.738 63.851,458.474 61.966,463.838C60.885,466.914 60,472.009 60,475.161L60,480.891L70.75,486.625C85.239,494.353 94.982,500.431 108.866,510.404C123.088,520.619 131.041,525.047 141.5,528.57L149.5,531.266L176.5,530.406C211.251,529.3 236.709,529.284 255.5,530.356L270.5,531.212L294,519.708C317.309,508.298 347.271,490.063 348.661,486.441C348.997,485.566 348.686,482.971 347.97,480.675C346.516,476.01 346.532,466.326 348.039,437.5C349.296,413.471 349.98,410.229 355.92,400.135C361.163,391.227 373.026,358.08 373.009,352.386C373.001,349.643 372.49,349.077 368.717,347.636C362.578,345.292 360.611,345.564 355.1,349.523C349.952,353.222 349,354.632 349,358.557L349,360.95L340.932,357.975C336.494,356.339 332.034,355 331.021,355C328.058,355 325.478,362.022 321.509,380.887C317.858,398.243 317.71,401.567 320.462,404.319C321.741,405.598 321.202,407.923 316.097,423.139C310.668,439.322 310.115,440.482 307.948,440.228C306.67,440.079 305.445,439.778 305.226,439.559C305.007,439.34 303.587,434.92 302.069,429.736C300.552,424.552 298.989,419.791 298.596,419.155C298.142,418.421 294.633,418 288.976,418C278.754,418 278.645,418.086 277.562,427C275.847,441.12 274.511,441.646 273.532,428.585C272.836,419.303 272.784,419.153 269.795,417.915C263.999,415.514 262.174,419.222 262.058,433.639C262.014,439.032 261.548,441.337 260.151,443.062C258.394,445.232 258.072,445.28 253.651,444.042C250.092,443.046 248.964,442.243 248.844,440.62C248.511,436.077 249.263,433.298 252.232,428.102C255.094,423.092 255.192,422.614 253.592,421.444C251.272,419.747 238.382,416.646 237.056,417.465C236.475,417.824 236,419.103 236,420.308C236,422.575 228.614,445.48 227.125,447.831C226.465,448.873 224.296,448.164 217.141,444.571C212.113,442.046 208,439.737 208,439.44C208,439.144 208.715,437.519 209.588,435.83L211.176,432.76L213.057,435.853C215.104,439.219 218.56,440.578 222.535,439.58C225.888,438.739 226.676,436.314 227.536,424.179L228.258,414L223.176,414C216.961,414 213.579,415.433 212.092,418.698L210.963,421.175L207.304,417.962C201.237,412.635 193.927,410.473 191.2,413.2C190.526,413.874 190,417.102 190,420.56C190,428.859 188.939,436.081 187.822,435.39C187.303,435.069 187.197,431.288 187.576,426.619L188.242,418.413L184.088,416.54C181.269,415.269 179.606,414.994 178.916,415.684C176.914,417.686 175.024,427.647 175.012,436.25C175.001,444.199 174.825,445 173.085,445C171.417,445 171.09,444.001 170.548,437.25C168.889,416.605 168.676,415.525 166.195,415.173C164.927,414.994 163.257,415.372 162.483,416.014C161.431,416.887 159.791,416.906 155.989,416.091C153.191,415.491 149.178,415 147.072,415C143.825,415 143.077,415.418 142.156,417.75C140.034,423.12 139.905,425.651 141.515,430.391C142.411,433.03 142.825,435.484 142.435,435.845C142.045,436.205 141.531,436.05 141.293,435.5C138.134,428.21 133.976,421.245 131.864,419.703C130.415,418.646 127.197,417.551 124.713,417.271C120.77,416.827 120.044,417.049 118.986,419.026C117.759,421.319 118.119,436.486 119.535,442.161C120.063,444.275 119.745,445.066 117.992,446.004C116.083,447.026 114.378,446.502 105.392,442.133C99.676,439.354 95,436.701 95,436.236C95,435.772 96.39,433.2 98.088,430.522C100.178,427.227 101.026,424.82 100.711,423.076C100.455,421.659 96.124,411.881 91.087,401.346C81.139,380.54 79.774,375.452 82.004,367.487C83.211,363.174 83.151,362.789 80.89,360.369C79.576,358.961 77.285,357.178 75.8,356.405C71.727,354.286 62.661,354.622 57.863,357.07C55.632,358.208 53.705,358.996 53.581,358.82C53.457,358.644 52.149,356.392 50.674,353.815C47.685,348.595 43.656,345.281 39.217,344.393C36.713,343.893 36.179,344.159 35.689,346.152M191.357,370.424L184.214,373.776L183.57,386.638C183.216,393.712 182.702,400.938 182.428,402.696C181.787,406.807 183.801,407.956 192.801,408.616C202.275,409.311 204.244,408.07 205.422,400.662C206.031,396.836 205.965,392.257 205.229,387.183C202.611,369.126 202.017,366.966 199.691,367.036C199.036,367.056 195.286,368.58 191.357,370.424M220.241,368.75C219.152,369.712 216.177,375.255 213.631,381.067C209.639,390.176 209,392.557 209,398.317C209,405.64 210.938,409 215.162,409C219.221,409 228.241,405.562 229.517,403.529C231.081,401.037 233.328,383.153 232.85,377C232.519,372.745 232.3,372.451 228.825,371.592C226.598,371.042 224.961,369.959 224.669,368.842C224.066,366.535 222.778,366.508 220.241,368.75M158.25,370.119C156.463,370.635 155,371.509 155,372.062C155,373.252 159.85,383 160.442,383C161.353,383 163.761,372.802 163.282,370.971C162.711,368.787 162.807,368.803 158.25,370.119M242.134,375.883C241.2,376.484 240.396,380.99 239.592,390.131L238.416,403.5L242.871,408.798C248.061,414.971 250.264,415.236 253.716,410.102C255.809,406.989 256,405.595 256,393.463C256,382.287 255.727,379.907 254.25,378.204C252.314,375.972 244.363,374.449 242.134,375.883M151.365,435.512L149.556,441.25L153.528,444.61C157.885,448.296 159.664,448.697 162.49,446.631C164.269,445.33 164.121,444.918 159.529,438.381C156.871,434.596 154.353,431.112 153.935,430.637C153.516,430.162 152.36,432.356 151.365,435.512" style="fill:rgb(28,28,28);"/>
    </g>
</svg>
