<?xml version="1.0" encoding="UTF-8" standalone="no"?>
<!DOCTYPE svg PUBLIC "-//W3C//DTD SVG 1.1//EN" "http://www.w3.org/Graphics/SVG/1.1/DTD/svg11.dtd">
<svg width="100%" height="100%" viewBox="0 0 455 596" version="1.1" xmlns="http://www.w3.org/2000/svg" xmlns:xlink="http://www.w3.org/1999/xlink" xml:space="preserve" xmlns:serif="http://www.serif.com/" style="fill-rule:evenodd;clip-rule:evenodd;stroke-linejoin:round;stroke-miterlimit:2;">
    <g id="svgPath">
        <path d="M191.954,14.644C176.064,30.229 171.553,36.084 170.493,42.5C168.734,53.141 165.639,57 158.865,57C156.739,57 155,57.145 155,57.322C155,57.917 158.286,67.496 158.629,67.901C158.816,68.122 161.114,66.315 163.735,63.886C166.356,61.456 169.666,58.567 171.091,57.465C174.599,54.754 175.998,51.865 176.009,47.316C176.024,41.447 180.656,34.608 192.14,23.5C202.369,13.606 202.482,13.531 202.828,16.482C203.284,20.369 201.584,25.887 197.322,34.352C195.424,38.121 194.044,41.377 194.254,41.588C194.465,41.798 197.118,41.45 200.151,40.814C209.95,38.759 210.073,39.569 201.807,51.728C197.788,57.639 190.055,67.093 184.623,72.737C177.269,80.379 175.258,83 176.748,83C177.849,83 184.318,82.048 191.125,80.884C203.094,78.838 215.48,78.712 220.366,80.587C221.922,81.184 221.794,81.504 219.32,83.187C214.315,86.593 203.672,91.663 197,93.821C190.967,95.772 184.699,96.984 172.69,98.524C169.476,98.936 167.983,99.571 168.19,100.438C168.361,101.151 180.65,141.609 195.5,190.345C215.2,254.997 222.777,278.588 223.523,277.597C224.336,276.518 226.183,277.548 232.523,282.616C236.91,286.124 240.753,288.995 241.063,288.997C241.373,288.999 242.919,287.65 244.5,286C247.825,282.529 250.483,282.165 251.986,284.973C252.567,286.059 253.48,292.471 254.015,299.223C254.928,310.75 255.635,314.359 260.913,334.438C263.849,345.607 263.736,356.877 260.622,363.565C259.324,366.351 256.873,370.214 255.173,372.15L252.083,375.669L253.95,381.835C255.334,386.406 255.496,388 254.576,388C253.893,388 249.433,383.95 244.664,379C232.851,366.74 232.313,366.774 217.801,380.724C209.829,388.387 208.536,388.808 205.272,384.805C202.356,381.227 200.987,354.835 203.057,342.081C203.629,338.551 206.09,331.088 208.524,325.498C212.494,316.381 220,291.358 220,287.241C220,286.032 153.389,137.57 144.165,118.221C143.043,115.868 142.023,115.021 140.551,115.221C138.785,115.461 138.456,114.878 138.181,111.02C137.885,106.858 136.636,104 135.114,104C134.762,104 133.918,106.337 133.24,109.193C131.114,118.143 123.38,130.625 114.461,139.5C107.536,146.391 103.956,148.886 88.633,157.5C78.849,163 71.521,167.639 72.347,167.809C73.173,167.979 75.656,167.196 77.865,166.069C80.073,164.942 85.892,163.328 90.795,162.482C95.698,161.636 101.234,160.506 103.098,159.972C109.076,158.257 109.68,158.924 105.5,162.62C96.456,170.617 73.511,182.627 56.197,188.425L46.5,191.672L46.205,198.311L45.91,204.949L53.058,201.907C62.496,197.891 73.339,195.185 83.335,194.352L91.466,193.674L83.042,201.087C78.408,205.164 71.789,211.037 68.333,214.137C60.966,220.744 53.993,225.491 45.052,229.987C39.367,232.845 37.976,233.155 33.302,232.606L28,231.983L28.016,238.241C28.025,241.684 28.459,249.654 28.98,255.953C29.501,262.252 29.766,267.568 29.569,267.765C28.822,268.511 18.015,253.725 15.654,248.726C13.467,244.094 9.541,232.092 6.912,222C5.606,216.987 6.868,203 8.626,203C9.378,203 13.258,206.1 17.247,209.89L24.5,216.779L24.5,192.64C24.5,168.97 24.556,168.311 27.374,158.792C28.955,153.453 31.042,148.367 32.011,147.49C33.667,145.992 33.966,146.426 36.976,154.698C38.737,159.539 41.414,168.209 42.924,173.965L45.67,184.429L46.299,169.965C47.245,148.219 49.348,138.788 57.662,119C63.705,104.619 64.778,102.607 68.373,98.928L71.5,95.728L72,121.114C72.447,143.824 72.311,147.014 70.708,151.373C69.722,154.052 69.091,156.752 69.307,157.373C69.783,158.742 93.173,135.178 97.812,128.657C104.045,119.893 95.8,124.3 82.67,136.75C78.364,140.833 74.641,143.975 74.398,143.731C74.022,143.355 79.926,129.266 88.295,110.574C91.357,103.733 99.079,92.804 108.299,82.26C116.555,72.819 124.723,65.39 125.734,66.401C126.699,67.366 122.304,85.466 119.449,92.288C115.927,100.703 115.583,102 116.876,102C118.164,102 128.596,88.194 129.899,84.765C130.384,83.49 131.338,77.4 132.019,71.231C133.33,59.354 132.843,57 129.073,57C125.994,57 118.602,62.609 109,72.232C98.1,83.155 90.021,93.935 83.895,105.727C81.545,110.253 79.369,113.704 79.061,113.397C78.752,113.09 78.275,106.917 78,99.68C77.555,87.973 77.299,86.483 75.679,86.174C70.734,85.229 58.696,98.352 55.426,108.252C54.473,111.138 52.455,115.975 50.942,119C47.689,125.504 45.415,132.088 43.359,140.953C42.534,144.509 41.609,147.824 41.303,148.319C40.997,148.814 39.233,146.387 37.383,142.925C30.972,130.926 28.05,132.124 23.435,148.644C18.647,165.782 17.822,172.347 18.56,187.416L19.242,201.332L14.371,198.5C11.692,196.943 8.547,195.056 7.383,194.307C5.479,193.081 5.102,193.195 3.629,195.444C0.975,199.493 -0.312,207.711 0.39,216.122C1.155,225.297 5.42,242.887 8.241,248.5C11.616,255.217 25.938,274.819 29.132,277.094C33.056,279.888 33.43,281.011 38.086,303.99C41.594,321.303 42.327,323.725 44.591,325.5C45.995,326.6 49.246,329.38 51.816,331.677L56.488,335.855L53.66,341.677C52.105,344.88 49.183,349.916 47.166,352.868C43.613,358.071 43.49,358.553 43.16,368.587C42.852,377.953 43.029,379.232 45.017,382.024C48.014,386.233 53.562,389.551 62.461,392.456C71.195,395.307 72.828,396.119 78.431,400.396C80.73,402.151 84.985,404.608 87.886,405.856C92.745,407.946 93.347,408.003 95.522,406.578C96.821,405.727 99.321,401.986 101.079,398.265C102.837,394.544 104.431,391.319 104.623,391.098C105.145,390.494 132.475,408.807 134.805,411.322C135.915,412.52 137.814,416.787 139.025,420.804C140.955,427.205 141.123,429.183 140.383,436.804C139.175,449.239 139.664,452.486 144.144,461.75C147.924,469.567 148.303,470 151.375,470C153.159,470 155.491,469.345 156.559,468.545C157.96,467.494 159.955,467.253 163.729,467.68C171.36,468.542 171.53,467.136 165.658,451.737L163.08,444.973L166.29,443.629C168.055,442.89 169.724,442.482 169.997,442.722C170.27,442.963 170.761,447.287 171.088,452.33C171.728,462.184 173.232,466.279 177.749,470.468C180.673,473.18 183.875,473.725 185.768,471.832C186.658,470.942 187.862,470.942 190.834,471.832C196.157,473.427 200.13,473.297 202.777,471.443C205.428,469.587 205.51,467.681 203.386,457.407C202.028,450.842 201.968,448.723 203.007,444.079C204.592,436.997 209.205,432 214.158,432C216.005,432 219.621,430.88 222.193,429.51L226.871,427.02L229.83,429.51C233.323,432.45 238.56,432.796 243.204,430.394C247.691,428.074 251.955,429.154 259.458,434.508C263.241,437.207 266.911,439.071 268.231,438.963C271.83,438.67 272.724,439.137 270.01,439.892C267.084,440.707 266.54,443.014 265.504,459L264.824,469.5L269.801,474.353C273.568,478.026 275.267,479.05 276.792,478.566C279.479,477.713 282,472.162 282,467.099C282,464.122 282.411,463 283.5,463C285.254,463 285.552,468.588 284.074,473.743C283.564,475.52 283.503,477.193 283.938,477.462C284.373,477.731 287.25,478.247 290.331,478.609C295.772,479.249 296.034,479.166 299.466,475.734C303.4,471.8 304.054,467.95 301.426,464.198C299.977,462.129 300.026,461.432 302.049,455.351C304.164,448.998 304.312,441.582 302.423,436.659C302.008,435.577 302.612,435.056 304.55,434.824C306.669,434.57 307.884,433.324 310.142,429.087C313.985,421.874 319.447,415.337 323.29,413.35C327.944,410.943 343.255,405.923 343.922,406.585C344.24,406.9 345.4,409.932 346.5,413.322C349.507,422.588 350.623,422.73 369.375,416.236C377.694,413.356 386.022,410.999 387.882,410.999C392.275,411 397.33,407.821 400.125,403.298L402.35,399.697L400.609,385.087C398.609,368.307 398.743,367.608 405.387,360.128C407.871,357.33 411.821,352.502 414.165,349.398L418.425,343.755L418.602,331.627C418.836,315.473 420.328,300.079 421.956,297C422.684,295.625 427.225,290.4 432.048,285.389C441.486,275.584 442.589,273.815 448.92,258.34C453.254,247.743 455.006,239.96 454.962,231.5C454.912,221.733 449.801,220.3 441.76,227.799C440.254,229.204 438.815,230.148 438.564,229.897C438.312,229.646 439.295,222.202 440.748,213.355L443.39,197.27L440.795,179.513C438.775,165.686 437.777,161.333 436.284,159.839C435.211,158.767 433.681,158.185 432.81,158.519C431.954,158.848 429.229,162.7 426.756,167.08C422.315,174.942 422.251,175.003 421.629,171.896C421.283,170.166 421,166.606 421,163.985C421,157.892 418.413,144.22 416.011,137.617C414.987,134.803 413.656,130.025 413.054,127C411.709,120.241 407.563,112.874 401.939,107.25C394.714,100.026 393.626,101.213 391.335,118.823C390.392,126.07 389.327,132 388.969,132C388.611,132 387.757,129.491 387.071,126.425C384.366,114.337 365.805,83.506 355.84,74.546C345.699,65.428 343.02,66.343 342.971,78.941L342.941,86.5L339.856,83.106C336.85,79.799 336.788,79.533 337.448,72.829C338.584,61.307 336.727,56.631 320.743,30.75C315.127,21.655 312.325,18 310.97,18C307.425,18 306.573,21.699 306.536,37.259C306.505,49.977 306.293,51.932 305,51.4C300.145,49.403 296.788,48.931 295.432,50.057C293.501,51.659 293.625,54.026 296.071,62.238C297.21,66.062 297.913,69.42 297.634,69.699C297.355,69.978 293.611,69.054 289.313,67.646C273.575,62.487 266.366,61.586 240.5,61.541C227.3,61.519 213.236,61.841 209.246,62.257L201.991,63.015L207.548,54.257C216.209,40.607 217.62,37.452 215.96,35.452C214.899,34.173 213.384,33.886 209.425,34.215L204.271,34.642L206.192,30.298C208.692,24.646 210.961,13.827 210.983,7.45C210.999,2.76 209.798,0 207.742,0C207.27,0 200.166,6.59 191.954,14.644M312.274,41.75C312.615,47.889 313.756,54.637 315.355,59.969C316.752,64.627 317.759,68.574 317.593,68.74C317.428,68.906 313.964,66.368 309.896,63.102C304.671,58.906 302.401,57.597 302.164,58.645C301.564,61.298 310.193,83.061 314.261,89.153C317.793,94.442 320.628,97.274 328.877,103.756C330.647,105.147 331.077,106.183 330.56,107.812C329.585,110.884 327.019,110.555 320.3,106.497C309.836,100.176 294.013,94.097 285.708,93.207C276.867,92.26 276.813,92.618 284.675,100.08C291.727,106.774 296.746,110.411 305.081,114.866C312.075,118.604 329.88,125.454 330.636,124.698C330.827,124.506 331.584,122.616 332.318,120.496C333.051,118.377 334.518,116.067 335.576,115.363C337.41,114.143 337.485,114.35 337.178,119.791C336.928,124.228 337.53,127.324 339.881,133.69C344.977,147.489 347.292,151.099 356.925,160.266C367.676,170.497 372.588,174.015 382.307,178.444C386.285,180.256 390.114,182.433 390.818,183.281C393.427,186.424 390.05,185.851 382.487,181.866C375.839,178.363 356.367,171 353.753,171C351.398,171 359.452,178.906 368.945,185.915C384.14,197.132 395.034,204.054 406.246,209.614C413.248,213.087 415.87,214.878 415.556,215.974C415.315,216.813 414.821,220.045 414.456,223.156L413.793,228.813L408.646,224.859C401.164,219.112 388.787,213.382 378.67,210.982C373.813,209.83 369.344,209.052 368.738,209.254C367.624,209.625 368.914,211.148 390.458,234.899C405.541,251.527 415.119,258.191 421.597,256.565C423.739,256.027 424.069,256.216 423.608,257.711C421.966,263.037 419.971,273.459 419.383,279.793C418.526,289.011 419.781,289.219 427.816,281.184C434.642,274.358 439.708,266.377 443.968,255.738C447.048,248.046 449.954,232.621 448.582,231.248C448.178,230.845 442.933,235.536 436.924,241.673C430.916,247.81 426,252.708 426,252.557C426,252.407 428.065,243.783 430.588,233.392C435.893,211.552 437.047,198.583 435.011,183.685C433.168,170.196 432.854,169.684 429.717,175.056C426.283,180.939 421.696,192.543 418.665,203.017L416.211,211.5L416.313,195.5C416.462,172.08 412.929,147.447 406.547,127.4C404.2,120.027 399.898,112.789 398.617,114.056C398.307,114.362 397.327,117.962 396.438,122.056C394.405,131.424 393.588,152.22 394.701,166.25C395.17,172.163 395.317,176.973 395.027,176.94C393.439,176.761 368.236,144.541 366.804,140.86C364.932,136.045 364.613,133.98 365.75,134.039C366.163,134.061 371.884,140.339 378.465,147.991C385.045,155.644 390.536,161.797 390.667,161.666C391.409,160.924 378.658,120.823 375.748,114.75C369.143,100.963 350.85,75.624 348.993,77.689C348.592,78.135 349.04,85.25 349.989,93.5C350.938,101.75 351.595,108.646 351.45,108.824C351.135,109.209 336.71,90.614 332.703,84.658C330.199,80.937 329.983,79.974 330.643,75.5C331.912,66.902 331.171,62.925 326.48,53.155C321.76,43.323 314.396,32 312.721,32C312.1,32 311.934,35.625 312.274,41.75M224.032,111.662C224.049,112.123 224.724,113.374 225.532,114.441C227.412,116.927 227.393,122.967 225.449,141.621C222.373,171.126 221.382,175.091 216.313,178.167C213.682,179.763 213.786,179.801 222.569,180.454C227.481,180.819 232.798,181.365 234.384,181.668L237.268,182.218L234.642,178.775C233.198,176.882 231.744,173.968 231.41,172.299C231.076,170.631 231.775,159.978 232.963,148.627C236.396,115.821 236.331,116.049 242.172,116.015C245.51,115.996 244.99,114.42 254.474,153.303C258.606,170.245 262.484,185.035 263.091,186.17C264.014,187.895 264.401,188.009 265.447,186.867C266.135,186.115 271.319,174.25 276.968,160.5C282.617,146.75 288.145,133.352 289.252,130.727C291.346,125.764 295.995,121 298.743,121C302.574,121 298.719,119.947 291.432,119.003C287.069,118.438 281.925,117.72 280,117.407L276.5,116.839L279.75,120.038C284.957,125.164 284.441,129.106 275.83,150C268.002,168.994 268.211,168.544 267.539,167.872C266.732,167.066 258,125.079 258,122.008C258,119.838 258.698,118.698 260.656,117.672L263.311,116.281L259.906,115.674C258.033,115.341 250.875,114.373 244,113.524C237.125,112.674 229.813,111.719 227.75,111.402C225.688,111.084 224.014,111.201 224.032,111.662M141,242.556C135.225,243.824 126.239,245.796 121.03,246.939C99.873,251.582 86.99,261.908 87.006,274.21C87.015,281.26 88.779,285.564 94.536,292.589C100.59,299.974 101.04,302.002 98.489,310.409C96.594,316.656 96.586,322.964 98.47,325.653C100.552,328.626 108.643,332.179 113.437,332.226C126.266,332.353 163.426,310.218 173.969,296.17C181.37,286.309 183.705,272.71 180.553,257.836C178.902,250.047 176.748,245.47 174.053,244.028C172.994,243.461 168.611,242.545 164.313,241.991C160.016,241.438 155.375,240.82 154,240.618C152.625,240.416 146.775,241.288 141,242.556M307.487,243.799C296.331,247.656 293.78,249.96 288.214,261.2C274.052,289.8 276.335,307.885 294.953,314.58C297.825,315.613 301.823,317.848 303.838,319.548C311.794,326.259 331.617,338 334.993,338C340.481,338 349.3,330.77 350.641,325.173C351.95,319.703 354.344,316.318 361.824,309.357L369.5,302.214L369.391,291.278C369.331,285.264 368.723,278.012 368.039,275.163C366.846,270.191 366.532,269.838 360.148,266.325C356.492,264.312 349.225,260.068 344,256.892C338.775,253.717 331.125,249.686 327,247.935C322.875,246.183 318.612,244.132 317.527,243.375C315.008,241.618 313.623,241.677 307.487,243.799M62.23,410.75C60.476,415.092 61.578,429.569 64.486,440.371C67.003,449.721 67.998,451.894 71.6,455.9C74.609,459.247 76.681,463.082 78.965,469.529C83.967,483.65 87.711,499.485 89.066,512.241C90.214,523.063 90.169,524.299 88.483,528.038C87.356,530.536 86.624,534.592 86.577,538.6L86.5,545.106L100,552.651C107.425,556.8 118.9,563.845 125.5,568.305C132.1,572.765 141.325,578.991 146,582.14C150.675,585.289 158.1,589.358 162.5,591.183L170.5,594.5L195,594.388C231.838,594.219 276.124,594.207 288.5,594.362L299.5,594.5L313.5,587.698C328.426,580.446 346.581,570.488 347.455,569.072C347.746,568.601 346.366,564.68 344.389,560.358C340.058,550.894 340.006,551.967 346.481,516.544C351.478,489.201 353.036,484.611 360.376,475.599C365.587,469.201 381.807,437.395 382.655,431.911C383.159,428.649 382.904,428.141 379.855,426.342C374.008,422.893 371.962,422.804 366.126,425.745C362.197,427.725 360.323,429.4 359.156,431.976C358.278,433.914 357.48,435.641 357.383,435.813C357.286,435.985 353.582,434.304 349.151,432.076C344.721,429.849 340.408,428.29 339.568,428.612C336.981,429.605 334.488,434.859 328.632,451.661C322.924,468.04 322.085,472.561 324.14,475.852C325.075,477.35 324.437,479.457 320.592,487.574L315.905,497.469L312.478,489.985C309.857,484.26 308.634,482.581 307.276,482.845C304.816,483.323 304.878,483.202 303.486,490.217C302.659,494.381 302.198,495.468 302.119,493.441C302.054,491.759 301.339,489.509 300.532,488.441C299.724,487.374 299.049,485.733 299.032,484.795C298.985,482.275 292.493,481.244 290.131,483.381C289.147,484.272 287.763,485 287.055,485C286.18,485 285.99,485.721 286.462,487.25C286.845,488.488 287.405,492.979 287.706,497.231C288.148,503.452 287.926,505.464 286.572,507.531C284.822,510.201 284.048,510.226 277.75,507.812C275.399,506.91 275,506.19 275,502.85C275,500.475 276.206,496.554 278.077,492.848C279.769,489.496 280.781,486.421 280.327,486.014C279.393,485.18 266.906,482 264.564,482C263.713,482 262.77,483.217 262.431,484.75C260.832,491.997 253.638,512.202 252.501,512.638C251.13,513.164 235.57,505.732 234.535,504.056C234.196,503.508 234.667,501.611 235.582,499.841L237.246,496.623L238.769,499.561C239.606,501.178 240.788,502.831 241.395,503.235C242.901,504.236 249.193,504.164 250.829,503.127C252.215,502.248 253.911,491.847 253.967,483.881C253.999,479.379 253.912,479.247 250.54,478.7C245.795,477.93 240.258,479.636 238.876,482.294C238.245,483.507 237.586,484.667 237.411,484.871C237.236,485.074 235.336,483.85 233.19,482.151C228.489,478.427 224.985,477 220.542,477C216.374,477 216,477.947 216,488.5C216,497.09 215.396,500.363 213.973,499.483C213.524,499.206 213.405,495.681 213.71,491.651C214.22,484.902 214.081,484.153 211.944,482.162C210.667,480.973 208.412,480 206.933,480C204.458,480 204.113,480.517 202.622,486.456C201.73,490.006 201,496.504 201,500.896C201,508.473 199.959,511.41 198,509.363C197.546,508.888 196.688,502.229 196.094,494.564C195.043,480.989 194.449,479.056 191.321,479.015C190.673,479.007 189.51,479.633 188.736,480.407C187.529,481.613 186.486,481.616 181.414,480.423C172.214,478.258 170.306,478.507 168.44,482.116C166.859,485.173 166.857,489.605 168.431,499C168.871,501.627 167.955,500.38 164.759,494C161.031,486.559 159.944,485.22 156.038,483.25C150.493,480.454 148.571,480.429 145.883,483.117C143.947,485.053 143.818,485.968 144.366,493.867C144.696,498.615 145.243,504.148 145.582,506.162C146.64,512.446 144.223,512.57 132.062,506.859C126.321,504.163 121.413,501.746 121.156,501.489C120.898,501.232 122.108,498.737 123.844,495.944C125.58,493.152 127,489.831 127,488.565C127,487.299 122.624,476.866 117.277,465.381C106.817,442.919 107.319,444.914 108.259,429.561C108.478,425.988 108.128,425.362 104.5,422.815C98.515,418.613 92.55,418.144 85.599,421.326L79.987,423.895L78.096,420.198C73.61,411.423 64.218,405.831 62.23,410.75M217,435.303L210.5,438.5L209.621,454.321C208.966,466.129 209.041,470.442 209.919,471.321C210.651,472.055 214.557,472.5 220.261,472.5C229.023,472.5 229.484,472.39 230.733,470C232.335,466.933 231.96,451.27 230.074,442.5C229.365,439.2 228.599,435.488 228.373,434.25C227.805,431.14 224.918,431.408 217,435.303M245.904,433.282C244.039,434.705 237.184,450.68 235.941,456.5C233.777,466.636 235.047,471.465 240.378,473.366C242.47,474.112 254.666,470.337 255.758,468.605C256.14,467.997 257.205,461.425 258.124,454C259.574,442.28 259.607,440.203 258.374,438.25C257.534,436.919 255.957,436 254.512,436C253.094,436 251.622,435.162 251,434C249.786,431.731 248.224,431.511 245.904,433.282M184.037,435.098C180.572,436.498 180.589,436.256 183.551,442.1L186.235,447.398L187.647,444.704C188.423,443.222 189.158,440.338 189.279,438.294C189.524,434.173 188.249,433.396 184.037,435.098M177.466,500.47C176.443,503.478 175.807,506.091 176.053,506.277C176.299,506.462 178.441,508.112 180.814,509.942C184.752,512.98 185.343,513.154 187.601,511.946C188.961,511.218 189.945,510.145 189.787,509.561C189.352,507.954 180.585,495.045 179.912,495.021C179.589,495.009 178.488,497.461 177.466,500.47" style="fill:rgb(28,28,28);"/>
    </g>
</svg>
