<?xml version="1.0" encoding="UTF-8" standalone="no"?>
<!DOCTYPE svg PUBLIC "-//W3C//DTD SVG 1.1//EN" "http://www.w3.org/Graphics/SVG/1.1/DTD/svg11.dtd">
<svg width="100%" height="100%" viewBox="0 0 446 584" version="1.1" xmlns="http://www.w3.org/2000/svg" xmlns:xlink="http://www.w3.org/1999/xlink" xml:space="preserve" xmlns:serif="http://www.serif.com/" style="fill-rule:evenodd;clip-rule:evenodd;stroke-linejoin:round;stroke-miterlimit:2;">
    <g id="svgPath">
        <path d="M157.307,14.984C142.366,33.623 139.093,39.503 138.283,49.161C137.772,55.257 137.249,56.783 134.766,59.412L131.849,62.5L132.44,55.872C133.168,47.708 132.583,46 129.064,46C119.944,46 94.436,73.604 82.86,96L79.5,102.5L79,88.796C78.7,80.562 78.047,74.64 77.365,73.961C74.614,71.22 63.138,81.179 58.702,90.158C52.143,103.434 47.046,116.323 44.529,126C43.027,131.775 41.649,136.657 41.466,136.849C41.284,137.042 39.928,134.792 38.453,131.849C35.139,125.237 33.221,123 30.868,123C27.986,123 26.395,126.523 22.51,141.5C19.191,154.295 18.893,156.576 19.04,168C19.23,182.837 19.121,187.212 18.545,187.788C18.31,188.024 15.364,186.543 11.999,184.499C6.145,180.943 5.819,180.863 4.471,182.641C1.511,186.546 0.755,191.194 1.261,202.381C1.798,214.28 5.265,229.646 9.142,237.318C12.158,243.285 23.413,258.62 29.092,264.5L33.921,269.5L37.997,289.5C40.239,300.5 42.567,310.483 43.17,311.684C43.774,312.885 45.552,314.4 47.123,315.051C48.693,315.701 51.577,318.003 53.53,320.165L57.082,324.097L53.725,330.298C51.878,333.709 48.822,338.933 46.934,341.908C43.728,346.956 43.477,347.961 43.161,357.021C42.822,366.69 42.833,366.74 45.98,370.325C50.266,375.206 54.021,377.352 63.788,380.502C68.423,381.996 74.024,384.662 76.498,386.55C82.27,390.956 90.317,395 93.312,395C96.308,395 97.973,393.103 101.945,385.165C104.092,380.874 105.565,379.003 106.509,379.365C108.788,380.239 134.416,397.59 135.667,399.105C136.3,399.872 137.77,403.331 138.934,406.791C140.763,412.232 141.012,415.004 140.775,427.291L140.5,441.5L144.376,449.33C146.508,453.636 148.937,457.422 149.774,457.743C150.61,458.064 152.691,457.723 154.397,456.985C156.104,456.247 160.2,455.611 163.5,455.572C169.227,455.503 169.514,455.379 169.807,452.847C169.976,451.388 168.74,446.663 167.062,442.347C165.383,438.031 164.007,433.982 164.005,433.348C164.001,432.489 168.829,430 170.498,430C170.608,430 170.979,434.268 171.321,439.485C172.022,450.147 174.112,455.519 178.882,458.916C182.336,461.376 183.782,461.507 185.935,459.559C187.322,458.303 188.143,458.321 192.327,459.699C196.219,460.98 197.851,461.062 200.96,460.13C203.068,459.499 205.025,458.377 205.308,457.639C205.592,456.9 205.189,452.966 204.413,448.898C202.525,438.998 202.666,432.332 204.863,427.5C207.27,422.209 209.102,420.843 215.054,419.902C217.79,419.47 221.372,418.16 223.013,416.99C226.309,414.644 228.729,414.938 231.523,418.026C233.657,420.383 237.732,420.557 242.654,418.5C248.55,416.037 251.277,416.613 259.172,421.993C263.203,424.739 267.227,426.989 268.115,426.993C269.003,426.997 270.846,426.122 272.21,425.049L274.69,423.098L290.044,431.144L287.772,432.985C285.588,434.755 285.513,435.322 285.833,447.66C286.02,454.877 286.639,461.065 287.247,461.798C287.842,462.515 289.457,462.966 290.836,462.801C292.897,462.553 293.802,461.346 295.928,456L298.513,449.5L303.216,449.197L307.918,448.894L307.397,454.197C307.111,457.114 306.721,460.289 306.531,461.254C306.093,463.476 309.599,464.449 315.31,463.691C323.187,462.646 327.74,453.545 322.941,448.437C320.947,446.315 320.929,445.994 322.355,438.441C323.737,431.122 323.709,430.337 321.914,425.782C319.485,419.618 319.504,419.341 322.422,418.609C324.105,418.186 325.215,416.856 326.059,414.25C327.974,408.334 331.727,401.38 335.043,397.604C337.795,394.469 356.494,384.16 357.536,385.203C357.754,385.421 359.037,388.095 360.385,391.145C362.14,395.112 363.655,397.029 365.71,397.88C368.35,398.973 369.757,398.508 383.042,392.145C390.994,388.336 399.213,384.92 401.306,384.554C406.153,383.706 412.637,377.45 413.514,372.775C413.93,370.562 413.107,365.346 411.07,357.278C406.935,340.899 407.009,339.775 412.814,330.878C415.462,326.82 418.91,321.311 420.476,318.635L423.325,313.771L422.191,304.635C421.568,299.611 420.786,289.361 420.454,281.857C419.756,266.076 420.007,265.271 429.239,253.747C436.215,245.039 438.64,240.063 441.698,228.186C445.468,213.546 446.058,209.178 445.351,201.133C444.871,195.674 444.144,193.116 442.545,191.257C440.454,188.826 440.29,188.799 437.272,190.359C435.559,191.245 433.192,193.327 432.011,194.985C430.83,196.643 429.424,198 428.886,198C428.26,198 428.156,192.124 428.596,181.689C429.284,165.397 429.281,165.365 426.069,153.939C419.22,129.582 419.148,129.389 416.582,128.219C413.419,126.778 412.631,127.751 408.446,138.272C405.777,144.98 405.082,146.038 404.682,144C402.301,131.847 398.572,118.704 395.935,113.176C394.184,109.504 391.702,103.676 390.42,100.225C389.138,96.774 386.643,91.938 384.877,89.479C380.805,83.808 373.196,77.827 370.54,78.209C367.871,78.592 367.265,81.735 367.118,95.955L367,107.411L362.652,98.748C353.207,79.929 328.993,52.941 319.252,50.376C314.488,49.122 313.759,50.356 314.152,59.009C314.352,63.404 314.174,67 313.757,67C312.336,67 309.052,63.056 308.574,60.775C308.312,59.524 307.94,55.757 307.746,52.404C307.508,48.274 306.509,44.567 304.648,40.904C301.699,35.101 279.327,6.322 276.563,4.775C275.461,4.158 274.404,4.25 273.448,5.043C271.425,6.722 271.454,25.883 273.489,32.591C275.454,39.068 275.457,39.055 272.071,37.875C270.459,37.313 267.872,36.999 266.321,37.177C262.146,37.655 262.018,42.305 265.95,50.706C267.646,54.332 268.884,57.45 268.699,57.634C268.515,57.818 265.02,57.302 260.932,56.487C246.969,53.702 232.211,53.534 213,55.943C195.989,58.076 178.301,61.119 174.75,62.522C173.787,62.903 173,62.856 173,62.418C173,61.981 175.504,56.291 178.565,49.775C181.625,43.259 183.988,36.931 183.815,35.714C183.526,33.682 182.995,33.514 177.373,33.665L171.247,33.83L172.73,29.165C174.669,23.069 174.898,3.786 173.058,1.569C172.341,0.706 171.207,0 170.537,0C169.867,0 163.914,6.743 157.307,14.984M158.085,24.25C147.571,37.437 144.7,43.221 144.586,51.441C144.501,57.647 144.456,57.74 138.567,64.096C135.303,67.618 129.561,74.639 125.807,79.697C119.107,88.724 117.313,90.646 116.421,89.754C116.175,89.508 117.154,86.651 118.597,83.404C121.412,77.069 126,60.293 126,56.337C126,54.3 125.714,54.083 124.139,54.925C121.438,56.371 107.993,70.36 101.48,78.5C95.131,86.437 89.926,95.261 85.908,104.902C84.395,108.531 81.143,116 78.68,121.5C76.217,127 74.384,131.69 74.607,131.922C74.829,132.154 78.721,128.752 83.255,124.362C96.46,111.578 105.115,107.569 96.919,118.033C91.744,124.64 70.147,146.481 69.464,145.798C69.197,145.531 69.692,143.329 70.564,140.906C71.795,137.483 72.267,130.642 72.681,110.25C72.995,94.754 72.84,84 72.303,84C69.664,84 64.535,91.667 59.891,102.555C49.27,127.451 47.033,137.567 46.967,161L46.926,175.5L43.534,162.41C39.743,147.784 34.955,134.5 33.474,134.5C31.974,134.5 29.345,140.629 26.826,150C24.733,157.782 24.55,160.464 24.656,181.761L24.772,205.022L20.778,200.485C18.581,197.989 14.852,194.618 12.491,192.994C7.251,189.389 7,189.775 7,201.451C7,208.529 7.641,211.706 11.389,223.213C15.943,237.195 17.658,240.537 25.307,250.337L29.864,256.174L29.28,237.658L28.697,219.142L32.598,220.032C34.956,220.57 37.885,220.546 40,219.972C47.27,217.997 60.25,209.219 75.445,196L90.963,182.5L87.231,182.164C79.445,181.463 63.565,185.309 48.75,191.485C47.189,192.135 47,191.519 47,185.778L47,179.343L56.608,176.169C68.428,172.264 79.884,166.951 92.541,159.501C101.186,154.414 110.583,147.249 109.73,146.396C109.552,146.219 107.305,146.706 104.737,147.479C102.168,148.252 96.61,149.365 92.385,149.953C88.16,150.54 82.1,152.189 78.919,153.617C69.61,157.794 70.078,155.872 79.671,150.529C99.702,139.371 110.118,132.755 114.736,128.257C122.462,120.731 131.68,105.127 134.116,95.452L135.319,90.676L137.16,92.949C138.242,94.285 139,96.824 139,99.111C139,102.537 139.283,103 141.372,103C146.484,103 163.518,97.881 172.277,93.712C180.656,89.725 193.887,80.598 193.967,78.75C193.985,78.338 190.51,78 186.244,78C180.181,78 175.432,78.876 164.494,82.014C156.797,84.222 149.938,86.233 149.25,86.483C148.563,86.733 148,86.801 148,86.634C148,86.467 151.386,81.868 155.525,76.415C161.52,68.515 176,43.167 176,40.571C176,39.443 170.962,40.031 166.979,41.625C164.745,42.519 162.676,43.01 162.383,42.716C162.089,42.422 163.232,37.86 164.924,32.579C167.864,23.401 168.98,14 167.129,14C166.65,14 162.58,18.612 158.085,24.25M278,21.707C278,27.132 280.444,35.911 284.561,45.276C286.492,49.668 287.912,53.421 287.716,53.617C287.52,53.813 283.791,51.766 279.43,49.068C274.034,45.73 271.402,44.588 271.193,45.494C271.025,46.226 272.543,50.113 274.566,54.132C283.163,71.202 289.658,78.968 300.418,85.041C306.177,88.291 307.367,90.62 304.489,93.009C303.254,94.034 301.928,93.808 297.239,91.773C282.091,85.201 269.678,81.989 259.638,82.045L251.5,82.091L256.933,87.039C262.929,92.499 275.94,99.584 286.029,102.882C293.576,105.349 307.069,108.076 308.217,107.366C308.648,107.1 309,105.584 309,103.997C309,102.41 310.012,99.935 311.25,98.498L313.5,95.885L313.575,101.192C313.631,105.107 314.514,108.206 316.942,113C323.534,126.018 328.374,132.155 337.181,138.662C347.471,146.265 358.887,152.481 365.5,154.082C371.429,155.517 376,157.669 376,159.026C376,160.697 372.368,160.102 366.175,157.416C360.75,155.064 338.088,149.802 337.073,150.66C335.743,151.783 343.984,157.888 354.942,163.897C374.201,174.458 379.558,176.992 392,181.427L403.5,185.527L403.793,192.707L404.085,199.888L395.293,195.451C385.232,190.375 375.011,187.53 363.5,186.601L355.5,185.956L363,193.039C367.125,196.935 373.819,202.908 377.874,206.311C381.93,209.715 387.549,214.43 390.36,216.789C397.924,223.136 405.363,226.459 412.054,226.481L417.607,226.5L416.863,231C415.949,236.527 415.955,252.626 416.871,255.901C417.521,258.221 417.698,258.13 422.11,253.222C430.429,243.97 437.131,228.349 438.939,214C439.848,206.789 439.392,197.965 438.114,198.033C437.776,198.051 433.464,203.427 428.531,209.98C423.598,216.533 419.452,221.785 419.318,221.651C419.184,221.517 419.956,213.103 421.034,202.954C423.985,175.182 423.524,167.69 417.627,147.517L415.293,139.533L413.669,142.673C411.288,147.278 407.402,161.323 405.97,170.5C404.385,180.656 403.071,183.259 403.03,176.322C402.98,167.769 401.078,156.373 396.942,139.843C390.812,115.346 383.112,96.153 377.191,90.614L374.106,87.728L373.425,90.441C371.969,96.244 373.784,125.139 376.409,137.937C377.812,144.777 378.762,150.571 378.52,150.813C378.279,151.055 373.88,147.258 368.745,142.376C363.61,137.494 356.81,131.06 353.634,128.079C348.146,122.926 342.176,113.607 343.76,112.666C344.167,112.425 350.544,117.57 357.93,124.1C365.317,130.63 371.505,135.828 371.681,135.652C372.448,134.886 355.502,98.081 351.619,92.077C342.998,78.751 320.919,55.579 320.221,59.125C320.067,59.904 321.51,67.04 323.427,74.982C325.343,82.924 326.782,89.552 326.623,89.71C326.464,89.869 320.859,84.415 314.167,77.59L302,65.18L301.956,58.34C301.887,47.595 298.078,39.56 286.556,25.853C279.189,17.088 278,16.512 278,21.707M255.5,108.699C261.718,112.055 262.978,117.145 260.156,127.5C259.107,131.35 256.765,140.025 254.952,146.778C253.139,153.53 251.325,158.705 250.922,158.278C250.096,157.401 236.397,118.868 235.536,115C234.91,112.184 235.595,110.842 238.5,109.195C240.042,108.32 235.855,108.054 220.199,108.03L199.898,108L202.607,111.551L205.315,115.102L205.793,139.924C206.055,153.576 205.974,166.328 205.611,168.261C205.248,170.194 203.776,172.951 202.339,174.388L199.727,177L206.224,177C209.797,177 214.831,176.711 217.411,176.357L222.101,175.714L219.672,173.107C215.009,168.1 214.82,166.934 214.251,139.593C213.755,115.76 213.86,113.283 215.425,111.718C217.243,109.9 219.717,109.533 221.691,110.788C222.346,111.204 228.381,125.71 235.103,143.022C247.499,174.948 249.669,179.738 251.09,178.301C251.874,177.509 260.376,147.251 265.481,127.086C268.667,114.502 270.126,111.504 274.299,108.96L277.5,107.007L265,107.044C252.902,107.079 252.596,107.132 255.5,108.699M299.5,229.342C290.667,233.644 287.749,236.771 284.491,245.428C278.683,260.858 276.575,276.328 279.06,285.277C281.134,292.747 288.123,298.388 298.429,300.912C301.14,301.576 304.515,302.935 305.929,303.933C309.608,306.528 319.1,311.182 329.361,315.421C339.738,319.708 342.285,319.413 348.199,313.234C351.622,309.658 352.543,307.626 354.95,298.334C355.668,295.565 358.029,291.963 361.995,287.586C365.277,283.965 368.242,279.883 368.586,278.515C369.47,274.99 367.247,260.539 364.674,253.092L362.5,246.799L354,243.547C349.325,241.758 341.9,238.691 337.5,236.73C333.1,234.77 326.35,232.218 322.5,231.059C318.65,229.901 314.15,228.475 312.5,227.89C310.85,227.306 308.825,226.627 308,226.381C307.175,226.134 303.35,227.467 299.5,229.342M146,229.177C126.718,233.302 110.642,237.488 106.07,239.575C85.918,248.775 81.543,265.024 95.058,280.469C100.019,286.138 100.154,286.456 99.715,291.404C99.466,294.207 98.683,299.561 97.975,303.302C96.773,309.65 96.82,310.282 98.672,312.762C101.294,316.274 108.61,319.937 113.075,319.972C124.315,320.06 155.458,303.252 169.556,289.488C179.337,279.939 183.584,267.176 181.92,252.334C180.774,242.114 179.301,237.368 176.199,233.897C173.731,231.135 172.583,230.75 162.998,229.468C151.106,227.877 152.005,227.892 146,229.177M221.668,272.75C221.42,273.163 219.566,279.793 217.548,287.485C215.53,295.176 212.511,304.626 210.839,308.485C204.765,322.5 203.936,325.32 202.842,335.685C202.016,343.519 202.026,349.149 202.883,357.595C204.263,371.214 205.099,373.736 208.518,374.594C210.76,375.156 212.155,374.223 218.938,367.622C226.775,359.995 232.033,356.751 234.948,357.743C235.801,358.033 240.681,362.373 245.791,367.386L255.082,376.5L257.063,374C272.99,353.901 274.18,344.926 264.161,320.43C257.899,305.118 255.358,297.197 253.918,288.5C251.594,274.463 248.736,271.857 243.129,278.659L240.113,282.319L231.48,277.159C222.112,271.56 222.325,271.656 221.668,272.75M62.646,398.344C60.64,406.606 60.836,412.839 63.395,422.072C64.832,427.257 66.446,433.312 66.982,435.526C67.602,438.086 69.425,440.986 71.992,443.492C75.554,446.971 76.603,449.195 80.939,462.466C86.826,480.487 88.758,489.467 89.639,502.906C90.188,511.276 90.009,513.653 88.597,516.785C87.42,519.395 86.987,522.525 87.197,526.906L87.5,533.25L100,540.198C106.875,544.019 119.604,551.951 128.287,557.823C151.834,573.748 158.006,577.316 167.403,580.439L175.95,583.279L200.225,582.649C213.576,582.302 231.25,581.724 239.5,581.362C248.593,580.964 262.447,581.22 274.68,582.012C294.802,583.315 294.878,583.313 301.18,581.027C314.835,576.076 342.078,561.43 363.484,547.532C376.109,539.335 376.291,539.041 373.826,530.815C372.27,525.619 374.509,473.319 376.64,465.098C377.438,462.019 379.863,456.56 382.029,452.966C388.171,442.779 399,412.059 399,404.825C399,401.511 398.77,401.293 393.531,399.641C388.589,398.083 387.778,398.063 385.128,399.434C380.029,402.071 375,407.5 375,410.368C375,411.816 374.887,412.994 374.75,412.987C374.613,412.979 370.736,411.663 366.136,410.062C361.535,408.461 357.236,407.356 356.583,407.607C354.009,408.594 352.017,414.216 348.582,430.187C344.633,448.551 344.207,454.064 346.556,456.413C347.963,457.821 347.579,459.636 342.519,475.484C336.864,493.196 336.005,494.616 332.382,492.235C331.768,491.831 330.053,487.225 328.572,482C327.091,476.775 325.146,471.938 324.249,471.25C321.878,469.433 307.597,469.576 306.057,471.432C305.403,472.219 304.451,475.932 303.941,479.682C301.993,493.992 301.241,494.233 299.995,480.946C299.059,470.972 298.36,469.816 293.518,470.239C289.851,470.56 289.362,471.978 288.29,485.401C287.349,497.198 286.468,498.292 279.776,495.978C275.941,494.652 275.469,494.137 275.203,490.978C274.998,488.547 275.85,485.689 277.953,481.747C279.629,478.607 281,475.428 281,474.682C281,473.806 278.133,472.672 272.877,471.472C264.936,469.658 264.723,469.659 263.377,471.499C262.62,472.535 262.005,474.084 262.011,474.941C262.03,477.542 253.767,501 252.832,501C252.352,501 247.927,498.974 242.997,496.498L234.034,491.997L235.702,488.498C237.438,484.859 239,483.912 239,486.5C239,489.178 242.811,492 246.429,492C251.328,492 252.749,490.026 253.441,482.259C253.772,478.542 254.247,473.606 254.497,471.291C254.944,467.141 254.9,467.072 251.379,466.411C246.442,465.485 240.33,467.492 238.718,470.568L237.411,473.064L232.955,469.593C228.637,466.229 222.225,464.029 218.853,464.753C216.611,465.235 216.03,467.985 216.014,478.191C216.005,483.692 215.574,487.145 214.84,487.599C213.977,488.132 213.848,486.331 214.334,480.575C214.976,472.977 214.935,472.781 212.071,469.917C208.865,466.711 206.851,466.27 205.094,468.387C203.308,470.539 201.037,482.762 201.017,490.323C201.002,496.277 200.777,497.104 199.25,496.813C197.743,496.525 197.361,494.553 196.5,482.592C195.389,467.165 194.518,465.314 189.607,467.943C187.581,469.027 185.959,469.067 181.375,468.146C171.744,466.212 170.104,466.507 168.449,470.468C166.579,474.943 166.615,478.834 168.568,483.509C169.471,485.669 169.763,487.637 169.257,488.143C168.751,488.649 166.801,485.654 164.664,481.088C161.406,474.129 160.423,472.899 156.659,471.077C151.881,468.764 149.755,468.526 147.007,469.996C144.214,471.491 143.507,479.862 145.407,488.92C147.006,496.543 146.513,499 143.383,499C142.628,499 137.508,496.91 132.005,494.356C125.369,491.276 122.006,489.171 122.018,488.106C122.028,487.223 123.378,484.52 125.018,482.1C126.658,479.679 128,477.151 128,476.481C128,475.811 123.612,465.866 118.25,454.381L108.5,433.5L108.5,423.171C108.5,414.018 108.272,412.668 106.5,411.314C100.428,406.676 93.123,405.853 86.141,409.022C83.743,410.11 81.448,411 81.04,411C80.633,411 78.924,408.788 77.243,406.085C73.977,400.83 71.072,398.455 66.207,397.06C63.558,396.3 63.103,396.464 62.646,398.344M217.289,422.944C212.776,425.049 210.948,426.478 210.603,428.171C210.341,429.452 209.883,436.894 209.584,444.709L209.041,458.917L212.771,459.953C219.163,461.729 228.429,461.288 230.396,459.115C233.014,456.222 233.001,440.93 230.37,429.5C227.907,418.797 227.074,418.379 217.289,422.944M245.073,422.635C243.933,424.084 243,425.715 243,426.259C243,426.803 241.478,430.68 239.617,434.874C235.166,444.909 234.134,454.629 237.117,458.422C238.418,460.076 240.131,461 241.894,461C245.191,461 254.023,458.196 255.685,456.622C256.337,456.005 257.629,449.086 258.555,441.247C260.418,425.49 260.106,424 254.945,424C253.013,424 251.936,423.375 251.5,422C250.613,419.204 247.532,419.508 245.073,422.635M184,422.938C181.146,423.782 181.182,424.467 184.424,430.846L186.776,435.473L188.388,431.614C189.275,429.492 190,426.461 190,424.878C190,421.818 188.944,421.477 184,422.938M267.543,430.25C267.271,431.488 266.558,437.784 265.959,444.243L264.869,455.986L269.009,460.896C274.77,467.728 277.776,468.267 280.521,462.959C281.625,460.824 282,456.453 282,445.705C282,428.749 281.627,428 273.19,428C268.661,428 267.978,428.272 267.543,430.25M178.633,486.337C175.618,493.552 175.612,493.521 180.699,497.289C185.21,500.63 185.604,500.739 188.239,499.376L191.019,497.939L185.979,490.469C183.207,486.361 180.734,483 180.483,483C180.232,483 179.399,484.502 178.633,486.337" style="fill:rgb(28,28,28);"/>
    </g>
</svg>
