<?xml version="1.0" encoding="UTF-8" standalone="no"?>
<!DOCTYPE svg PUBLIC "-//W3C//DTD SVG 1.1//EN" "http://www.w3.org/Graphics/SVG/1.1/DTD/svg11.dtd">
<svg width="100%" height="100%" viewBox="0 0 438 542" version="1.1" xmlns="http://www.w3.org/2000/svg" xmlns:xlink="http://www.w3.org/1999/xlink" xml:space="preserve" xmlns:serif="http://www.serif.com/" style="fill-rule:evenodd;clip-rule:evenodd;stroke-linejoin:round;stroke-miterlimit:2;">
    <g id="svgPath">
        <path d="M211,2.559C191.169,5.056 177.45,7.874 167.302,11.534C149.24,18.049 129,26.248 129,27.049C129,28.08 162.022,101.255 162.948,102.276C163.335,102.703 166.751,102.333 170.539,101.455C174.411,100.557 178.895,100.133 180.781,100.487C182.851,100.875 186.064,100.475 189.174,99.442L194.213,97.768L193.811,87.134C193.378,75.723 192.091,71.842 187.247,67.353C185.839,66.048 184.87,64.822 185.093,64.629C185.317,64.435 197.2,63.996 211.5,63.652L237.5,63.028L231.048,68.5L235.935,76.838L240.821,85.177L244.921,76.428C248.659,68.45 248.884,67.529 247.47,65.967C246.054,64.402 246.117,64.201 248.21,63.641C251.711,62.703 267,62.885 267,63.864C267,64.339 265.192,65.981 262.982,67.512C259.653,69.819 252,80.181 252,82.381C252,82.721 253.35,83 255,83C259.012,83 259.066,85.837 255.069,86.636C251.422,87.366 248,90.453 248,93.014C248,95.266 245.173,95.632 276.367,89.351C291.209,86.363 298.617,85.267 299.429,85.941C300.086,86.487 304.984,87.24 310.312,87.614C324.574,88.617 323.489,90 306.46,92.529C300.725,93.381 294.151,94.741 291.85,95.553C289.55,96.364 286.28,96.772 284.584,96.46C281.829,95.952 253.531,101.136 252.291,102.375C251.66,103.007 259.808,115.572 263.789,120.106C265.501,122.056 268.711,124.468 270.923,125.465C273.136,126.463 274.706,127.666 274.414,128.14C274.121,128.613 253.996,128.982 229.691,128.96C190.117,128.924 185.785,128.765 188.225,127.441C189.724,126.628 191.411,125.1 191.975,124.047C193.084,121.974 193.42,104 192.349,104C190.357,104 168,112.415 168,113.164C168,113.657 172.761,124.55 178.579,137.372L189.158,160.685L212.329,161.34C225.073,161.701 248.917,161.996 265.316,161.998C283.515,161.999 295.868,162.394 297.023,163.012C298.063,163.569 299.207,165.584 299.564,167.49L300.214,170.956L307.857,170.228C312.061,169.828 325.85,169.5 338.5,169.5L361.5,169.5L375.5,173.855C383.2,176.25 391.398,179.298 393.719,180.629C399.761,184.093 409.796,193.68 412.092,198.18C415.435,204.734 416.96,221.072 416.088,241C415.234,260.53 414.635,262.699 406.933,274.17C392.2,296.112 378.268,306.506 358.774,310.098C349.253,311.852 338.15,309.409 324.055,302.458C289.092,285.218 260.322,251.161 254.981,220.689C253.34,211.328 253.174,211 250.088,211C246.494,211 244.434,208.629 242.972,202.812C241.059,195.202 239.579,194.451 227.155,194.792C220.484,194.975 215.77,195.576 214.504,196.406C211.779,198.191 209.681,205.897 211.31,208.134C211.965,209.033 217.199,215.783 222.941,223.134C228.684,230.485 233.495,236.662 233.634,236.859C234.253,237.744 239.913,232.733 242.482,229.026C244.04,226.778 245.8,225.1 246.392,225.297C247.483,225.661 247.694,226.342 250.34,238C251.151,241.575 254.826,252.825 258.506,263C267.699,288.419 268.473,298.906 261.831,308.075L258.708,312.386L251.995,298.991L245.283,285.596L241.892,290.78C240.026,293.631 238.235,295.972 237.91,295.982C237.586,295.992 232.975,291.95 227.664,287C222.352,282.05 217.218,278.002 216.253,278.004C213.222,278.01 208.317,281.669 200.64,289.651L193.214,297.371L190.657,295.695C187.429,293.58 186.29,289.519 184.795,274.8C183.145,258.553 184.441,247.431 189.378,235.5C192.99,226.768 200.05,200.211 199.951,195.72C199.925,194.499 198.451,190.678 196.676,187.228L193.449,180.956L189.879,184.728C186.768,188.015 186.018,189.851 184.056,199C181.619,210.362 176.731,220.437 165.185,237.897C154.155,254.577 133.807,272.263 116.889,279.873C106.187,284.688 97.781,286.403 85,286.38C75.179,286.363 72.429,285.979 66.165,283.751C41.128,274.844 27.549,255.38 23.488,222.578C20.652,199.668 22.182,188.144 30.074,172.974C34.95,163.602 38.912,159.835 48.596,155.36C65.306,147.64 88.699,144.283 118.691,145.303L135.882,145.888L137.062,142.194C137.711,140.162 138.609,138.101 139.057,137.614C139.505,137.126 146.876,136.815 155.436,136.921C163.996,137.027 171,136.927 171,136.697C171,135.26 147.694,89 146.969,89C146.477,89 143.857,89.874 141.148,90.942C137.173,92.508 135.9,92.647 134.551,91.661C133.099,90.599 133.544,90.199 137.944,88.617C140.729,87.616 143.305,86.316 143.668,85.728C144.085,85.054 143.706,84.899 142.642,85.307C141.715,85.663 136.177,87.346 130.335,89.048C121.203,91.708 119.516,91.945 118.306,90.734C117.095,89.524 118.623,88.66 129.199,84.57C135.965,81.954 141.795,79.518 142.155,79.157C142.516,78.796 134.415,61.739 124.154,41.252L105.497,4.005L93.499,10.839C61.006,29.346 52.685,36.297 40.032,55.5C31.054,69.126 27.127,76.846 22.697,89.576C18.737,100.956 17.487,106.494 15.034,123.528C14.067,130.246 12.538,137.15 11.638,138.871C10.737,140.592 9.213,143.463 8.25,145.25C6.856,147.839 6.517,150.838 6.583,160C6.653,169.577 7.279,174.082 10.333,186.943C12.35,195.437 14,202.957 14,203.655C14,204.352 12.088,205.406 9.75,205.996C2.209,207.899 1,208.709 1,211.856C1,216.264 3,217.312 9.885,216.513L15.822,215.824L16.98,221.662C19.601,234.872 23.267,246.782 27.02,254.279C29.209,258.653 30.986,262.967 30.969,263.866C30.952,264.765 29.829,267.3 28.474,269.5C26.261,273.094 26.01,274.585 26.005,284.173C26,294.79 26.017,294.863 29.116,297.962C33.108,301.954 37.454,304.122 48,307.381C52.858,308.882 58.942,311.676 62.199,313.901C69.568,318.937 76.649,321.69 78.858,320.378C79.761,319.842 82.21,316.049 84.3,311.951C86.39,307.853 88.431,304.382 88.835,304.238C89.896,303.861 114.992,319.644 118.208,322.711C123.772,328.017 127.255,344.374 125.042,354.803L123.803,360.643L128.872,370.745C134.625,382.21 136.132,383.3 141.695,380.018C144.492,378.367 146.206,378.028 149.195,378.533C154.07,379.357 156.226,377.819 155.363,374.136C155.024,372.686 153.386,368.004 151.725,363.732C150.063,359.459 148.905,355.761 149.153,355.514C149.4,355.266 151.214,354.391 153.183,353.568L156.764,352.072L156.27,358.286C155.662,365.951 157.056,371.362 161.264,377.657C163.808,381.464 165.16,382.564 167.585,382.801C169.381,382.976 171.171,382.499 171.868,381.659C172.903,380.412 173.696,380.405 177.684,381.606C183.031,383.215 189.674,382.014 190.735,379.247C191.083,378.34 190.61,373.917 189.684,369.418C188.758,364.918 188.003,359.721 188.006,357.868C188.021,348.746 193.081,341 199.026,341C200.774,341 204.306,339.819 206.874,338.375L211.544,335.751L215.466,338.412C219.647,341.25 222.597,341.242 228.2,338.38C232.66,336.101 235.969,336.773 243.552,341.5C251.452,346.424 254.759,347.029 257.459,344.045C259.206,342.115 259.319,342.135 266.364,345.662C275.053,350.012 274.577,349.566 272.619,351.524C271.336,352.806 271,355.284 271,363.446C271,376.619 271.664,379.89 274.613,381.233C277.774,382.674 279.47,381.11 281.555,374.833C282.471,372.076 283.543,370.198 283.938,370.66C284.333,371.122 287.096,376.999 290.078,383.721L295.5,395.942L303.29,396L302.71,402.918C302.062,410.653 302.346,411.027 308.832,410.965C313.409,410.92 316.56,409.215 319.054,405.433C321.567,401.619 321.513,398.175 318.897,395.39C316.913,393.279 316.861,392.754 317.974,386.152C318.966,380.274 318.902,378.167 317.577,372.996C316.71,369.609 316,366.702 316,366.536C316,366.369 316.889,366.001 317.976,365.717C319.063,365.432 320.476,363.917 321.117,362.35C327.276,347.291 331.341,342.352 341.945,337.045C353.629,331.197 353.25,331.195 355.531,337.118C357.478,342.173 360.975,346 363.648,346C364.406,346 371.208,342.916 378.763,339.148C386.318,335.379 394.151,332.038 396.169,331.724C401.293,330.925 404.648,328.456 407.71,323.232L410.338,318.747L407.015,305.06L403.691,291.374L409.949,280.667C413.391,274.778 417.086,267.648 418.159,264.822C419.809,260.482 421.846,245.653 421.966,237.112C421.999,234.807 422.191,234.747 427.541,235.376C434.702,236.218 437,235.033 437,230.5C437,226.095 434.795,224.882 428.207,225.662L423.161,226.259L422.6,221.88C422.291,219.471 421.525,212.325 420.899,206C420.272,199.675 418.938,192.109 417.933,189.187C416.703,185.608 415.419,175.654 413.999,158.687C412.84,144.834 411.238,130.8 410.44,127.5C407.493,115.311 395.013,94.076 381.054,77.5C367.533,61.443 334.675,35.001 315.103,24.426C288.969,10.306 289.283,10.422 261,4.34C246.426,1.207 227.185,0.521 211,2.559M206,68C204.232,69.768 204,71.333 204,81.477C204,98.056 203.72,97.957 229.297,90.369C230.913,89.889 230.725,89.165 227.43,83.168C223.648,76.283 218.789,69.435 216.136,67.25C213.791,65.319 208.272,65.728 206,68M217,105.455L205.5,108.681L205.17,112.064C204.641,117.487 205.988,123.988 208.072,126.072C209.229,127.229 211.376,128 213.444,128C217.798,128 221.136,124.185 228.101,111.25C234.015,100.267 234.534,100.537 217,105.455M238.459,113.688C234.636,122.332 234.501,123.537 237.142,125.387C241.608,128.515 250,126.89 250,122.898C250,120.689 242.981,108.05 241.737,108.019C241.318,108.009 239.843,110.56 238.459,113.688M158.581,143.954C151.34,144.26 145.524,144.94 145.348,145.5C145.175,146.05 150.513,148.451 157.209,150.834C175.554,157.365 180.561,161.615 183.157,172.859C184.484,178.61 185.984,179.038 187.408,174.074C188.252,171.131 187.656,169.413 181.451,156.902C176.746,147.415 174.072,143.065 173.029,143.204C172.188,143.316 165.686,143.654 158.581,143.954M193.52,170.064C193.881,171.199 196.207,176.487 198.69,181.814C201.173,187.141 203.632,192.603 204.154,193.951L205.104,196.403L207.302,193.721C210.812,189.438 215.67,188.04 227.693,187.853C242.346,187.625 246.523,189.852 249.063,199.25C250.59,204.899 253.119,204.238 255.93,197.456C260.702,185.942 272.651,176.596 286.172,173.804C290.557,172.898 291.991,172.191 291.772,171.043C291.522,169.736 288.339,169.406 270.988,168.888C259.72,168.551 237.532,168.214 221.683,168.138C192.993,168.001 192.868,168.009 193.52,170.064M46,332.065C46,340.525 46.246,341.748 48.649,345.215C50.589,348.014 51.47,350.838 51.943,355.768C52.298,359.471 53.123,363.468 53.776,364.651C54.43,365.833 58.734,370.333 63.343,374.651C71.055,381.875 72.056,383.275 75.912,392.234C83.97,410.958 86.933,436.392 82.938,452.541C81.329,459.043 82.899,462.69 88.511,465.491C100.454,471.45 104.068,474.308 114.167,485.773C128.496,502.041 148.318,522.28 155.597,528.075C168.302,538.189 178.7,540.992 190.572,537.503C195.534,536.045 198.781,535.867 210.5,536.411C233.959,537.5 252.174,539.068 258.812,540.571C272.256,543.615 275.142,542.16 290.155,524.777C297.392,516.396 304.94,508.926 311,504.144C316.225,500.022 323.781,493.746 327.791,490.198C331.8,486.65 335.243,483.917 335.441,484.124C335.639,484.331 338.152,489.788 341.026,496.25C343.9,502.712 346.603,508 347.032,508C347.461,508 351.287,504.172 355.534,499.494L363.256,490.989L362.601,486.052C361.772,479.799 360.067,475.784 355.574,469.503C351.151,463.32 351.072,461.047 354.611,441.743C357.519,425.878 357.586,425.713 366.998,411C373.077,401.498 376.419,395.884 385.156,380.5C388.503,374.605 395,355.269 395,351.201C395,348.648 394.463,348.196 389.618,346.669C383.757,344.821 382.269,345.081 377,348.869C372.142,352.362 371,353.946 371,357.191C371,358.736 370.785,360 370.523,360C370.26,360 367.223,358.945 363.773,357.656C353.035,353.643 352.414,353.61 350.044,356.938C347.505,360.504 339.543,396.937 340.568,400.303C340.936,401.511 341.867,403.22 342.637,404.099C343.855,405.491 343.256,407.937 338.019,422.947C333.567,435.705 332,441.584 332,445.532C332,448.468 331.508,452.137 330.908,453.685C329.843,456.428 329.671,456.214 324.14,445.232C318.885,434.798 318.344,434.085 316.828,435.6C314.127,438.301 313,436.334 313,428.918L313,421.954L310.601,423.526C307.383,425.634 305.653,430.153 305.857,435.917C305.984,439.514 305.548,441.099 304.06,442.446C302.158,444.167 302.073,444.14 301.441,441.62L300.787,439.015L297.894,441.076C296.302,442.209 295,442.961 295,442.746C295,442.532 295.733,440.206 296.628,437.579C298.246,432.83 298.241,432.786 295.758,430.303L293.26,427.805L291.157,430.061C288.484,432.931 285.777,441.031 285.448,447.145C284.974,455.935 282.045,455.787 282.015,446.973C281.988,438.991 277.352,435.758 271.465,439.615C269.539,440.877 269,442.087 269,445.147C269,450.115 271.075,455.119 274.158,457.582C277.144,459.969 276.755,463 273.462,463C270.708,463 269,460.419 269,456.257C269,451.815 266.989,449.788 262.963,450.171C258.446,450.602 256.707,454.098 256.175,463.814C255.851,469.735 255.495,471.02 254.306,470.564C253.498,470.254 252.648,470 252.418,470C252.188,470 251.993,466.962 251.985,463.25C251.97,456.192 250.474,451.712 247.975,451.238C247.164,451.083 244.299,452.779 241.608,455.006C238.918,457.233 235.451,459.802 233.904,460.716C231.119,462.361 231.097,462.451 231.676,469.958C232.128,475.819 231.94,477.805 230.847,478.712C228.017,481.061 226.774,478.701 227.782,472.893C228.297,469.927 228.51,465.7 228.256,463.5C227.809,459.632 227.558,459.392 220.647,456.233C210.449,451.571 207.644,451.837 204.611,457.755C203.049,460.803 202.803,460.919 200.722,459.583C199.5,458.798 196.345,457.842 193.711,457.458C186.75,456.445 185,458.309 185,466.738C185,471.444 184.665,473.051 183.75,472.736C183.063,472.499 182.569,470.999 182.653,469.402C182.873,465.257 181.047,455.783 179.669,453.913C176.836,450.069 169.838,448.68 168.185,451.634C167.66,452.573 167.628,454.805 168.112,456.884C169.32,462.081 169.208,471 167.934,471C164.605,471 163,468.828 163,464.323C163,457.632 159.39,446.297 156.706,444.562C151.187,440.993 146,441.809 146,446.245C146,447.949 145.768,448.052 144.43,446.942C143.555,446.216 143.085,444.784 143.367,443.704C143.875,441.761 139.645,428.59 137.762,426.25C137.208,425.563 136.135,425 135.378,425C133.281,425 133.545,434.902 135.724,438.027L137.448,440.5L134.637,438.67C133.091,437.664 131.729,436.989 131.611,437.17C131.492,437.352 130.584,438.793 129.593,440.373L127.792,443.247L125.555,440.873C124.324,439.568 122.088,435.575 120.586,432C119.084,428.425 117.043,424.6 116.051,423.5C115.059,422.4 113.032,419.542 111.548,417.15C108.99,413.027 108.912,412.537 110.052,407.783C112.244,398.648 110.937,393.494 101.507,374.071C92.396,355.305 92.72,356.555 93.329,342.561C93.484,338.991 93.106,338.344 89.282,335.644C83.832,331.796 75.301,331.445 69.558,334.833C67.538,336.025 65.544,337 65.127,337C64.71,337 63.358,335.202 62.122,333.004C59.298,327.979 54.249,324.077 49.593,323.321L46,322.738L46,332.065M204.466,342.856C194.733,347.46 195,346.848 195,364.596L195,380.05L197.75,381.109C199.262,381.692 203.807,382.007 207.848,381.81C218.004,381.314 218.366,380.741 217.639,366.274C217.281,359.131 216.516,353.966 215.538,352.073C214.692,350.438 214,347.922 214,346.484C214,343.706 212.407,339.999 211.215,340.001C210.822,340.001 207.785,341.286 204.466,342.856M230.137,341.863C229.112,342.888 227.954,345.475 227.563,347.613C227.171,349.751 225.714,353.458 224.324,355.851C222.424,359.123 221.663,362.152 221.258,368.063C220.396,380.644 223.725,383.357 235.221,379.44C242.228,377.053 242.676,376.128 243.982,361.32C245.275,346.666 244.732,344 240.455,344C239.094,344 237.21,343.1 236.268,342C234.135,339.509 232.527,339.473 230.137,341.863M169.037,345.11C167.682,345.651 166.396,346.271 166.179,346.487C165.963,346.704 167.277,349.489 169.101,352.676L172.416,358.471L173.815,352.737C175.834,344.465 174.797,342.811 169.037,345.11M253.22,348.25C252.656,348.938 251.871,355.401 251.476,362.613L250.758,375.727L254.496,379.863C258.865,384.699 262.665,385.319 266.067,381.75C268.126,379.591 268.187,378.914 267.569,365C266.992,352.003 266.71,350.319 264.852,348.75C262.421,346.698 254.762,346.369 253.22,348.25M202.186,466.899C200.79,470.902 200.599,481.634 201.91,482.444C202.41,482.753 203.49,482.749 204.309,482.435C205.484,481.984 205.693,480.562 205.298,475.682C205.024,472.282 204.478,468.15 204.085,466.5L203.371,463.5L202.186,466.899" style="fill:rgb(28,28,28);"/>
    </g>
</svg>
