<?xml version="1.0" encoding="UTF-8" standalone="no"?>
<!DOCTYPE svg PUBLIC "-//W3C//DTD SVG 1.1//EN" "http://www.w3.org/Graphics/SVG/1.1/DTD/svg11.dtd">
<svg width="100%" height="100%" viewBox="0 0 397 414" version="1.1" xmlns="http://www.w3.org/2000/svg" xmlns:xlink="http://www.w3.org/1999/xlink" xml:space="preserve" xmlns:serif="http://www.serif.com/" style="fill-rule:evenodd;clip-rule:evenodd;stroke-linejoin:round;stroke-miterlimit:2;">
    <g id="svgPath">
        <path d="M189.276,2.454C160.782,5.902 151.223,8.407 121.5,20.216C97.665,29.685 65.639,47.067 55.832,55.855C49.516,61.515 36.749,77.422 30.589,87.305C21.192,102.381 15.16,119.53 11.132,142.616C9.65,151.108 8.284,155.476 5.346,161.116C1.523,168.456 1.5,168.568 1.546,180C1.577,187.663 2.342,195.337 3.837,203C8.399,226.369 15.202,257.51 16.123,259.23C16.645,260.205 18.525,261.611 20.302,262.353C22.078,263.095 24.984,265.356 26.759,267.378L29.987,271.054L26.845,276.777C25.117,279.925 22.082,284.916 20.101,287.868C16.637,293.031 16.487,293.626 16.163,303.484L15.826,313.732L19.073,317.43C22.614,321.463 28.447,324.739 37,327.497C43.919,329.729 47.718,331.629 51.393,334.696C55.473,338.102 63.481,342 66.399,342C69.257,342 71.826,338.807 75.602,330.558L78.14,325.015L93.195,335.165C106.087,343.855 108.509,345.902 110.043,349.407C112.981,356.12 114.35,365.328 113.518,372.775C113.105,376.474 112.77,381.13 112.775,383.123C112.787,387.542 120.162,403.741 122.586,404.671C123.526,405.032 125.691,404.728 127.397,403.996C129.104,403.263 133.227,402.48 136.561,402.255L142.622,401.846L141.966,397.173C141.605,394.603 140.34,390.025 139.155,387C136.433,380.05 136.455,379.57 139.547,378.161C144.248,376.019 144.523,376.422 144.176,384.936C143.816,393.744 145.418,398.82 150.431,404.75C153.385,408.245 156.376,408.874 158.954,406.542C160.365,405.264 161.098,405.268 164.877,406.57C169.67,408.221 175.212,407.655 177.153,405.315C178.121,404.149 178.09,402.023 177.007,395.17C176.253,390.402 175.687,385.026 175.749,383.225C176.043,374.678 181.102,367 186.44,367C188.234,367 191.845,365.861 194.464,364.468C199.55,361.764 201.678,361.882 204.523,365.026C206.657,367.383 210.732,367.557 215.654,365.5C221.714,362.968 224.586,363.572 232.29,369C236.194,371.75 240.139,374 241.059,374C241.978,374 243.848,373.121 245.215,372.046L247.699,370.092L254.723,373.796L261.746,377.5L259.797,381C258.098,384.051 257.905,385.943 258.292,395.738C258.762,407.652 259.62,410 263.509,410C265.867,410 267.538,407.346 269.959,399.75C271.099,396.176 271.359,396 275.498,396C279.436,396 279.898,396.26 280.452,398.784C280.789,400.315 280.41,403.421 279.61,405.688C278.208,409.661 278.234,409.828 280.328,410.39C287.115,412.211 293.942,409.947 296.483,405.033C298.549,401.037 298.388,398.041 295.966,395.464C294.057,393.432 294.005,392.854 295.123,386.086C296.265,379.17 295.771,373.715 293.463,367.75C293.009,366.576 293.264,366 294.238,366C296.293,366 298.723,363.02 299.54,359.5C300.503,355.351 304.649,348.155 308.38,344.157C311.114,341.228 327.421,332 329.864,332C330.361,332 331.788,334.515 333.036,337.589C334.732,341.768 336.103,343.558 338.47,344.687C341.587,346.173 341.849,346.089 355.804,339.098C363.597,335.194 370.767,331.99 371.737,331.978C376.113,331.924 381.846,328.119 384.579,323.455L387.35,318.727L385.083,309.114C379.702,286.294 379.873,288.192 382.694,282.553C384.085,279.774 387.647,273.83 390.611,269.345C396.258,260.8 396.726,258.86 394.975,251.271C394.439,248.945 393.809,231.395 393.577,212.271C393.345,193.147 392.695,173.45 392.133,168.5C391.571,163.55 390.633,153.397 390.049,145.937C388.313,123.752 385.672,116.724 370.535,94C360.482,78.908 350.784,68.307 334.705,54.834C316.096,39.241 304.417,30.928 291.531,24.101C285.04,20.663 278.103,16.789 276.115,15.492C271.435,12.44 263.133,9.845 244,5.455C225.499,1.21 207.647,0.231 189.276,2.454M181.5,41.013C171.6,41.345 163.39,41.703 163.257,41.809C163.123,41.914 164.567,44.035 166.466,46.523C168.364,49.01 170.202,52.56 170.549,54.412C170.897,56.263 171.028,66.976 170.84,78.219L170.5,98.66L164.898,106L177.199,105.96C188.516,105.923 189.286,105.804 186.831,104.47C185.323,103.652 183.73,101.603 183.17,99.761C182.624,97.967 181.895,85.522 181.551,72.104C180.93,47.89 180.941,47.691 183.137,45.354C185.335,43.014 190.221,42.196 192.626,43.765C194.607,45.058 205.115,60.299 208.108,66.221C209.699,69.368 211,73.153 211,74.632C211,76.111 208.049,82.801 204.442,89.497C199.172,99.282 197.16,102.093 194.192,103.813L190.5,105.954L221.25,105.977C249.878,105.998 256.19,105.436 249.75,103.436C248.512,103.052 246.233,101.845 244.685,100.755C241.168,98.277 224.994,74.227 225.015,71.506C225.038,68.643 232.402,52.472 235.583,48.302C237.058,46.369 239.797,44.147 241.672,43.364C243.547,42.58 244.811,41.503 244.481,40.97C243.826,39.909 228.893,39.654 225.21,40.641C223.025,41.226 222.999,41.342 224.644,43.16C226.289,44.977 226.19,45.433 222.484,53.032C220.348,57.415 218.282,61 217.895,61C217.507,61 215.963,58.862 214.463,56.25C212.964,53.638 210.881,50.072 209.834,48.327L207.932,45.153L210.966,43.361C212.635,42.375 214,41.216 214,40.784C214,39.976 211.995,39.99 181.5,41.013M215.677,90.52C211.367,101.017 212.241,104 219.629,104C224.06,104 227,102.101 227,99.237C227,97.84 219.4,84 218.633,84C218.48,84 217.15,86.934 215.677,90.52M272.5,175.968C262.883,180.643 259.804,184.627 255.471,198C250.854,212.252 249.655,226.191 252.424,233.441C254.878,239.866 260.51,244.49 269.038,247.08C272.957,248.271 278.652,250.743 281.694,252.575C284.736,254.406 292.666,258.203 299.317,261.012L311.41,266.119L315.254,264.385C320.302,262.109 324.628,257.064 326.075,251.767C326.716,249.42 327.693,245.972 328.246,244.105C328.798,242.238 331.641,238.11 334.562,234.933C342.129,226.701 342.879,223.521 340.224,210.915C336.762,194.477 336.694,194.395 321.5,188.2C306.218,181.969 281.502,172.989 279.735,173.026C279.056,173.04 275.8,174.364 272.5,175.968M116.5,176.489C99.431,179.681 80.578,185.012 75.522,188.076C67.66,192.841 62.304,198.242 61.084,202.638C58.508,211.912 60.321,218.59 67.716,227.069C73.816,234.063 73.845,234.265 70.925,249.182C69.339,257.284 70.076,259.394 75.896,263.428C82.104,267.73 87.574,267.891 97.98,264.078C112.781,258.656 133.952,245.031 143.868,234.546C151.451,226.528 154.306,219.69 154.819,208.321C155.354,196.443 153.003,185.154 149.079,180.762C146.575,177.96 145.448,177.57 136.415,176.379C124.692,174.834 125.375,174.83 116.5,176.489M193.989,221.528C193.461,222.918 192.102,227.755 190.97,232.278C187.979,244.226 185.22,252.382 180.908,262.026C176.299,272.333 174.48,284.541 175.323,299.5C176.272,316.35 178.202,322 183.008,322C183.635,322 186.703,319.612 189.824,316.694C199.37,307.771 204.27,304 206.32,304C207.453,304 212.44,308.087 218.142,313.689C227.542,322.925 228.073,323.287 229.487,321.439C236.574,312.175 242.779,301.782 243.349,298.22C244.514,290.934 242.277,280.487 236.393,265.731C229.87,249.374 228.571,245.229 226.431,233.952C225.557,229.344 224.412,224.769 223.886,223.787C222.408,221.025 219.449,221.657 215.813,225.511L212.5,229.021L204.5,224.033C200.1,221.289 196.151,219.034 195.725,219.022C195.299,219.01 194.518,220.137 193.989,221.528M191.241,369.48C187.248,371.352 183.797,373.472 183.571,374.192C183.345,374.911 182.878,382.339 182.532,390.699L181.904,405.897L186.191,407.051C192.069,408.634 201.91,407.843 203.507,405.66C205.256,403.268 206.23,391.351 205.114,386C204.598,383.525 203.637,378.8 202.977,375.5C201.657,368.892 200.829,366.757 199.429,366.348C198.918,366.198 195.233,367.608 191.241,369.48M218.635,368.278C217.674,368.981 216.441,371.568 215.895,374.028C215.349,376.488 213.743,380.263 212.326,382.418C210.472,385.237 209.479,388.571 208.786,394.31C207.913,401.523 208.006,402.533 209.76,404.892C210.826,406.326 212.905,407.644 214.381,407.82C217.835,408.231 226.318,405.418 228.289,403.209C229.7,401.626 230.96,394.933 232.507,380.806C233.235,374.155 231.984,371 228.62,371C227.349,371 225.495,370.1 224.5,369C222.395,366.674 221.054,366.509 218.635,368.278M160,368.779C159.175,369.058 157.477,369.665 156.227,370.127L153.955,370.968L160.329,383.5L161.645,378.5C163.805,370.297 163.355,367.641 160,368.779M240.661,375.75C240.409,376.163 239.656,382.433 238.987,389.685L237.771,402.87L242.042,407.935C247.23,414.088 249.907,414.505 252.918,409.632C254.769,406.638 255,404.702 255,392.203C255,375.575 254.715,375 246.488,375C243.534,375 240.912,375.337 240.661,375.75" style="fill:rgb(28,28,28);"/>
    </g>
</svg>
