<?xml version="1.0" encoding="UTF-8" standalone="no"?>
<!DOCTYPE svg PUBLIC "-//W3C//DTD SVG 1.1//EN" "http://www.w3.org/Graphics/SVG/1.1/DTD/svg11.dtd">
<svg width="100%" height="100%" viewBox="0 0 414 411" version="1.1" xmlns="http://www.w3.org/2000/svg" xmlns:xlink="http://www.w3.org/1999/xlink" xml:space="preserve" xmlns:serif="http://www.serif.com/" style="fill-rule:evenodd;clip-rule:evenodd;stroke-linejoin:round;stroke-miterlimit:2;">
    <g id="svgPath">
        <path d="M213.5,1.048C194.403,2.982 176.127,6.276 165.5,9.699C153.902,13.435 125.075,24.648 123.68,25.966C122.361,27.212 210.1,220.162 211.469,219.025C212.237,218.389 215.326,219.708 220.866,223.038C225.406,225.767 229.273,228 229.46,228C229.647,228 231.375,226.425 233.3,224.5C235.225,222.575 237.225,221 237.745,221C240.093,221 241.957,225.296 243.916,235.225C246.005,245.817 248.478,253.31 255.421,270.09C259.812,280.702 261.66,292.32 260.004,298.899C259.372,301.41 257.373,305.525 255.563,308.045L252.272,312.626L271.022,354.048L289.771,395.47L293.291,395.166C296.442,394.895 296.875,395.159 297.419,397.682C297.753,399.232 297.571,402.072 297.013,403.993C295.318,409.838 295.455,410 302.1,410C307.704,410 308.477,409.723 311.6,406.6C315.63,402.57 316.163,397.867 312.976,394.474C311.073,392.448 311.025,391.891 312.181,385.151C313.405,378.01 313.329,377.265 310.306,366.879C309.986,365.78 310.641,365.056 312.339,364.63C314.118,364.183 315.192,362.913 316.043,360.25C318.069,353.907 323.179,345.027 326.327,342.378C330.239,339.087 347.328,330.514 347.745,331.634C347.923,332.11 349.29,334.975 350.784,338C355.135,346.811 356.285,346.822 373.557,338.21C381.51,334.244 388.936,331 390.058,331C395.135,331 404,322.601 404,317.791C404,316.742 402.635,310.476 400.967,303.869C399.299,297.261 397.878,290.362 397.809,288.538C397.675,284.971 401.179,278.05 408.646,267.134C413.255,260.395 413.744,257.936 411.989,250.332C411.46,248.04 410.844,230.715 410.621,211.832C410.397,192.949 409.724,173 409.125,167.5C408.526,162 407.58,151.723 407.023,144.662C405.749,128.531 403.989,121.647 398.473,111.225C384.797,85.384 371.865,70.409 343.13,47.138C324.14,31.759 318.418,28.122 290,13.366C287.525,12.081 280.325,9.673 274,8.015C248.077,1.22 231.103,-0.734 213.5,1.048M91.098,12.622C63.077,27.314 55.919,32.641 43.273,48.21C25.168,70.5 17.238,88.418 11.498,120.009C9.692,129.951 8.37,134.257 5.359,140.004C0.417,149.439 -0.059,156.326 2.976,174.505C5.675,190.673 14.661,233.728 15.959,236.709C16.487,237.924 18.681,239.817 20.834,240.915C22.987,242.014 25.923,244.308 27.359,246.015L29.97,249.117L26.875,255.309C25.172,258.714 22.626,263.034 21.217,264.91C17.394,269.996 16.093,274.635 16.044,283.346C16.013,288.825 16.485,292.013 17.608,293.914C20.076,298.092 27.574,302.651 37.473,305.994C42.409,307.661 48.034,310.269 49.973,311.791C55.329,315.994 58.735,317.995 63.229,319.581C66.949,320.893 67.492,320.865 69.269,319.262C70.342,318.293 72.752,314.462 74.623,310.75C76.494,307.038 78.298,304 78.632,304C79.958,304 104.672,321.024 107.211,323.686C112.297,329.018 113.417,333.913 113.461,351L113.5,366.5L117.162,374.167C121.665,383.599 123.486,384.813 128.946,382.028C131.352,380.8 134.871,380 137.865,380L142.81,380L142.243,375.777C141.932,373.455 140.625,368.87 139.338,365.588C138.052,362.306 137,359.121 137,358.511C137,357.6 142.298,355 144.156,355C144.438,355 144.461,358.591 144.207,362.98C143.793,370.131 144.023,371.527 146.424,376.434C147.897,379.445 150.483,383.07 152.171,384.49C155.06,386.921 155.381,386.981 157.639,385.501C159.699,384.151 160.865,384.1 165.892,385.139C170.546,386.1 172.373,386.088 174.801,385.082C178.907,383.382 179.209,382.123 177.48,373.905C175.579,364.868 175.609,359.502 177.595,353.676C179.532,347.989 183.047,345 187.797,345C189.772,345 193.236,343.88 195.669,342.454L200.013,339.908L203.351,342.454C207.178,345.374 211.38,345.704 216.654,343.5C222.146,341.206 223.901,341.606 232,347C240.173,352.443 242.759,353.028 245.459,350.045C247.206,348.115 247.319,348.135 254.364,351.662C258.289,353.627 261.648,355.368 261.83,355.53C262.011,355.693 261.397,356.991 260.464,358.414C259.092,360.509 258.785,363.309 258.854,373.112C258.947,386.265 259.646,388.297 263.911,387.801C266.015,387.556 266.895,386.48 268.657,382C269.847,378.975 271.311,375.956 271.911,375.291C272.72,374.395 268.568,364.297 255.875,336.291C246.455,315.506 238.072,296.925 237.246,295L235.743,291.5L233.622,294.389C227.745,302.39 229.24,302.616 218.663,292.125C211.528,285.048 208.565,282.75 206.573,282.75C203.673,282.75 203.967,282.541 192.321,292.89C180.004,303.833 177.968,302.641 175.943,283.303C174.293,267.545 175.822,252.543 180.078,242.714C185.754,229.605 187.116,225.71 190.602,212.617L194.055,199.648L150.386,103.074C126.368,49.958 106.438,6.181 106.099,5.79C105.759,5.4 99.008,8.474 91.098,12.622M210,40.05C199.275,40.426 187.874,40.794 184.665,40.867L178.83,41L182.891,45.614C185.125,48.151 187.222,51.666 187.552,53.425C187.882,55.183 188.005,65.82 187.826,77.061C187.537,95.184 187.28,97.864 185.556,100.714C184.486,102.482 182.911,104.117 182.056,104.348C181.2,104.579 200.412,104.82 224.75,104.884C249.088,104.948 269,104.803 269,104.562C269,104.322 266.749,102.899 263.997,101.402C259.646,99.034 257.885,96.979 250.497,85.649C245.824,78.483 242,71.681 242,70.534C242,69.386 244.476,63.415 247.501,57.265C252.448,47.211 253.47,45.809 257.64,43.365C262.132,40.733 262.203,40.618 259.889,39.728C257.391,38.768 242.311,39.355 241.21,40.456C240.861,40.805 241.112,41.949 241.767,42.998C242.761,44.59 242.342,46.228 239.229,52.907C237.178,57.308 235.275,60.926 235,60.946C234.725,60.966 232.394,57.277 229.82,52.748L225.14,44.514L228.07,42.659C230.712,40.986 232.13,38.725 230.25,39.183C229.838,39.283 220.725,39.673 210,40.05M200.419,44.49L197.929,46.98L198.504,69.74C199.172,96.199 199.529,99.822 201.703,102.224C204.044,104.811 210.262,104.56 213.408,101.75C216.737,98.778 228,77.065 228,73.619C228,69.291 220.981,57.068 212.283,46.25C208.17,41.134 204.343,40.566 200.419,44.49M232.631,90.066C229.414,97.482 229.318,100.409 232.223,102.443C236.576,105.493 244,103.244 244,98.876C244,96.834 237.016,84.054 235.881,84.019C235.54,84.009 234.078,86.73 232.631,90.066M120,154.108C114.042,155.031 96.501,159.152 85.88,162.125C78.637,164.153 68.81,170.174 64.229,175.392C62.045,177.879 61.141,180.145 60.644,184.374C59.656,192.781 61.395,198.177 67.107,204.426C73.6,211.531 74.436,213.962 72.602,220.393C69.971,229.616 69.603,234.745 71.379,237.455C73.93,241.348 81.574,245.324 86.355,245.245C98.749,245.038 133.199,225.67 144.982,212.283C153.235,202.907 156.688,190.815 154.974,177.294C152.624,158.761 150.201,155.995 135,154.497C131.425,154.144 127.825,153.721 127,153.556C126.175,153.392 123.025,153.64 120,154.108M288.312,175.97C279.415,180.462 276.867,183.88 272.525,197.148C269.692,205.806 268.682,210.772 268.27,218.074C267.615,229.658 268.728,233.665 274.272,239.68C277.513,243.195 279.642,244.436 285.39,246.162C289.301,247.337 295.243,249.938 298.596,251.943C308.308,257.752 327.499,265.343 330.541,264.579C334.734,263.527 341.864,256.255 342.997,251.875C343.549,249.744 344.452,246.255 345.004,244.122C345.609,241.784 348.172,237.818 351.46,234.133C359.057,225.619 359.717,222.848 357.147,210.249C353.79,193.79 353.962,194.024 341.363,188.758C323.168,181.153 302.724,173.782 298.5,173.302C295.407,172.95 293.098,173.555 288.312,175.97M190.771,348.136C187.07,349.873 183.842,352.015 183.599,352.897C183.356,353.779 183.009,361.227 182.828,369.449L182.5,384.399L185,385.1C186.375,385.485 190.693,385.845 194.595,385.9C203.783,386.029 204.936,384.88 205.696,374.838C206.115,369.299 205.741,365.396 204.177,358.994C203.036,354.322 201.967,349.375 201.801,348C201.37,344.419 198.621,344.452 190.771,348.136M218.565,346.928C217.605,347.989 216.403,350.709 215.895,352.972C215.386,355.236 213.792,358.868 212.352,361.044C209.358,365.568 207.451,378.702 209.223,382.591C211.075,386.655 214.52,387.323 221.555,384.982C225.016,383.83 228.351,382.282 228.965,381.543C230.274,379.965 233.259,358.341 232.809,353.692C232.559,351.106 231.898,350.305 229.326,349.474C227.581,348.91 225.296,347.672 224.248,346.724C221.805,344.513 220.715,344.553 218.565,346.928M156.774,348.154L154.047,349.151L157.206,355.325L160.364,361.5L161.605,357.5C162.288,355.3 162.881,352.038 162.923,350.25C163.007,346.695 161.848,346.3 156.774,348.154M241.248,354.25C240.7,354.938 239.723,361.243 239.076,368.262L237.901,381.023L242.048,385.942C247.532,392.446 248.853,392.848 252.248,389.048C254.99,385.979 255,385.915 255,371.041C255,356.749 254.905,356.047 252.777,354.557C250.116,352.692 242.649,352.494 241.248,354.25" style="fill:rgb(28,28,28);"/>
    </g>
</svg>
