<?xml version="1.0" encoding="UTF-8" standalone="no"?>
<!DOCTYPE svg PUBLIC "-//W3C//DTD SVG 1.1//EN" "http://www.w3.org/Graphics/SVG/1.1/DTD/svg11.dtd">
<svg width="100%" height="100%" viewBox="0 0 514 484" version="1.1" xmlns="http://www.w3.org/2000/svg" xmlns:xlink="http://www.w3.org/1999/xlink" xml:space="preserve" xmlns:serif="http://www.serif.com/" style="fill-rule:evenodd;clip-rule:evenodd;stroke-linejoin:round;stroke-miterlimit:2;">
    <g id="svgPath">
        <path d="M0.498,2.007C0.148,3.11 0.333,6.373 0.91,9.257C1.487,12.141 2.874,20.885 3.993,28.689C5.112,36.493 6.966,45.943 8.112,49.689C16.679,77.673 36.212,92.964 82.574,107.981C132.062,124.01 147.603,130.045 160.183,138.117L164.958,141.181L169.729,139.39C176.938,136.682 191,128.122 191,126.441C191,124.673 180.608,117.81 169.5,112.241C158.708,106.832 148.452,103.311 116,93.878C80.836,83.657 72.998,80.975 59.303,74.48C31.305,61.201 19.492,47.856 9.149,17.823C5.347,6.785 2.451,0 1.542,0C1.318,0 0.848,0.903 0.498,2.007M509.688,5.777C508.812,7.825 505.674,15.88 502.714,23.677C495.932,41.544 492.375,47.557 483,57.013C466.966,73.184 449.186,81 390,97.897C358.539,106.879 346.84,111.523 332.681,120.652C327.926,123.718 325.963,125.571 326.193,126.774C326.515,128.455 349,140.912 351.82,140.972C352.546,140.987 355.114,139.642 357.527,137.982C365.831,132.268 376.588,127.94 410,116.87C428.425,110.766 446.779,104.47 450.788,102.881C482,90.503 499.494,73.705 505.906,49.955C507.014,45.855 508.619,37.325 509.474,31C510.33,24.675 511.473,17.062 512.015,14.083C513.938,3.51 512.639,-1.126 509.688,5.777M243.5,116.016C229.877,123.376 218.884,127.821 204,131.985C197.675,133.754 192.126,135.554 191.668,135.983C191.21,136.413 195.437,141.398 201.062,147.062C206.686,152.726 214.796,162.085 219.084,167.86L226.88,178.36L224.819,181.254C223.686,182.845 221.237,184.873 219.377,185.76L215.996,187.373L198.748,170.387C189.261,161.044 178.381,151.094 174.568,148.276L167.636,143.151L162.889,145.556C160.278,146.879 157.907,148.341 157.62,148.805C157.334,149.269 160.485,152.99 164.623,157.074C173.262,165.601 175.009,168.405 174.978,173.7C174.935,181.244 179.392,233 180.085,233C180.811,233 205.019,215.448 235.639,192.721C245.065,185.724 253.086,180 253.464,180C253.842,180 261.204,185.559 269.825,192.353C302.923,218.436 319.491,230.907 320.126,230.217C320.489,229.823 322.413,218.925 324.401,206C326.389,193.075 328.447,180.925 328.974,179C330.296,174.179 342.065,159.754 348.638,154.898C351.617,152.698 353.784,150.46 353.454,149.926C353.124,149.392 350.158,147.594 346.862,145.93L340.87,142.906L335.685,146.606C325.448,153.912 310.305,167.019 299.517,177.911C293.476,184.01 288.179,189 287.745,189C286.586,189 278,180.906 278,179.814C278,176.37 301.159,150.162 311.476,141.929C314.514,139.505 317,137.216 317,136.843C317,136.471 311.262,134.272 304.25,131.959C286.641,126.148 276.151,121.742 264.85,115.408C259.543,112.434 255.043,110.016 254.85,110.036C254.658,110.056 249.55,112.747 243.5,116.016M106.5,147.838C103.2,148.829 97.075,151.238 92.888,153.192L85.276,156.742L80.093,166.328C70.717,183.669 67.249,198.05 68.405,214.796C69.616,232.33 73.791,247.414 82.493,265.686C94.856,291.646 114.153,314.553 132,324.456C140.749,329.31 153.075,333.99 157.176,334.014C161.571,334.039 164.083,335.26 165.54,338.077C166.343,339.63 167,341.213 167,341.595C167,341.977 163.963,342.024 160.25,341.699C152.749,341.042 144.739,338.47 128.814,331.606C116.998,326.513 117,326.514 117,328.165C117,329.878 132.312,356.997 139.492,368C145.982,377.945 159.857,395.72 164.472,400L167.168,402.5L169.334,399.981C170.525,398.596 172.702,395.924 174.172,394.044C176.37,391.231 177.104,390.842 178.313,391.845C179.891,393.154 181.914,391.032 188.851,380.789C190.851,377.837 192.562,376.278 193.434,376.613C195.231,377.302 207,361.62 207,358.538C207,355.22 203.395,345.372 200.84,341.711C196.885,336.043 181.776,317.568 179.405,315.5C176.902,313.317 177.355,318.669 169.993,204.385C168.926,187.821 167.622,173.135 167.095,171.749C165.75,168.213 156.547,159.039 149.961,154.671C141.259,148.899 134.035,146.71 122.5,146.348C115.023,146.114 110.986,146.49 106.5,147.838M373.112,150.518C364.711,152.875 356.145,157.923 348.782,164.856C337.456,175.521 339.017,168.854 328.919,249.706L319.953,321.489L314.557,326.995C309.126,332.537 298.408,348.576 297.355,352.74C296.941,354.375 298.508,357.69 303.143,364.99C309.159,374.467 311.073,376.31 312.5,374C313.815,371.873 315.119,373.28 319.02,381.04C321.243,385.462 323.464,388.831 323.955,388.528C324.445,388.225 327.201,392.057 330.079,397.043L335.312,406.11L339.655,401.848C346.967,394.672 361.616,371.662 371.095,352.463C375.993,342.542 380,334.167 380,333.851C380,333.535 373.813,335.477 366.25,338.167C351.043,343.576 342.182,345.963 337.224,345.985L333.949,346L335.522,342.957C337.345,339.432 339.302,338.538 347.355,337.549C356.769,336.393 362.797,334.206 374.5,327.7C384.386,322.205 386.599,320.417 396.352,310.043C409.526,296.032 416.331,286.298 423.999,270.5C434.744,248.365 439.588,228.134 438.723,209C438.101,195.21 435.265,185.133 428.173,171.5L422.45,160.5L415.475,157.12C403.252,151.197 398.159,149.761 388,149.371C381.555,149.124 376.768,149.492 373.112,150.518M104.993,191.75C104.986,196.278 105.812,200.654 111.646,227C116.354,248.26 121.194,255.362 146.078,277.528C156.14,286.491 157.997,287.786 157.982,285.824C157.963,283.363 155.348,258.724 152.391,233.136L150.615,217.772L146.058,213.476C134.669,202.74 126.055,196.435 116.5,191.839C111,189.193 106.162,187.022 105.75,187.014C105.338,187.006 104.997,189.137 104.993,191.75M384.305,192.428C373.242,196.964 365.039,202.096 357.343,209.296C346.9,219.065 347.54,217.186 344.149,248.037C342.489,263.142 340.832,278.875 340.467,283L339.802,290.5L344.151,286.42C346.543,284.175 353.337,278.181 359.249,273.1C377.233,257.642 382.905,247.605 387.889,222.415C389.511,214.212 391.354,205.461 391.983,202.968C392.613,200.476 392.986,196.329 392.814,193.752L392.5,189.068L384.305,192.428M221.5,213.654C208.501,220.365 194.84,229.464 187.735,236.144C180.758,242.704 180.67,242.85 180.837,247.644C181.035,253.295 184.711,299.983 185.576,307.831C186.161,313.136 186.252,313.255 204.237,332.331C227.212,356.699 225.469,355.312 230.128,352.935C232.166,351.895 237.134,350.526 241.167,349.894C250.842,348.377 272.011,349.29 278,351.482C280.475,352.388 283.019,353.213 283.653,353.315C285.611,353.629 312.938,319.908 313.474,316.516C313.736,314.857 315.372,298.01 317.109,279.077C320.185,245.558 320.221,244.566 318.468,241.311C314.35,233.665 281.496,209.34 278.111,211.431C277.66,211.71 277.017,214.539 276.682,217.719C275.625,227.747 271.376,242.309 262.884,265.01C258.359,277.104 254.395,287 254.074,287C253.188,287 238.285,244.608 236.008,235.612C234.91,231.274 233.5,223.737 232.875,218.862C231.536,208.42 231.591,208.445 221.5,213.654M239.5,355.894C235.65,356.938 229.85,358.967 226.61,360.403C222.061,362.419 220.406,362.752 219.336,361.864C218.575,361.232 217.798,360.892 217.61,361.107C217.422,361.323 214.674,367.462 211.503,374.75C208.333,382.038 205.254,388 204.661,388C204.069,388 201.886,386.342 199.811,384.315C197.735,382.288 195.864,380.826 195.653,381.065C193.641,383.346 189.729,390.946 187.437,397.032C184.919,403.714 184.616,405.816 184.561,417C184.492,431.204 185.802,436.566 191.743,446.379C198.43,457.427 208.604,465.951 227.084,475.992C240.376,483.215 245.755,482.7 240.101,474.748C232.912,464.637 234.736,452.669 244.517,445.775L248.919,442.672L246.009,439.357C242.497,435.358 241.394,430.366 242.968,425.598C244.049,422.321 248.307,417.731 251.141,416.786C251.966,416.511 252.499,412.666 252.799,404.825C253.367,389.996 250.777,379.901 244.717,373.315L240.866,369.131L244.683,367.993C251.887,365.845 261.224,365.632 267.555,367.473L273.46,369.19L270.785,371.138C267.022,373.879 264.199,378.832 261.903,386.717C260.235,392.447 260.028,395.208 260.571,404.5L261.214,415.5L265.001,419.038C271.689,425.285 272.093,434.061 265.973,440.18L263.135,443.019L265.818,444.424C277.877,450.742 280.601,466.795 271.351,477.033C269.417,479.173 268.124,481.392 268.477,481.962C269.728,483.987 273.451,482.937 282.917,477.893C311.599,462.609 324.518,446.467 325.75,424.375C326.502,410.903 324.943,405.752 314.463,387.073C313.097,384.638 311.752,382.419 311.474,382.141C311.197,381.864 309.453,383.108 307.598,384.905C305.743,386.703 303.981,387.778 303.681,387.293C303.224,386.554 301.113,381.023 294.843,364.141C294.137,362.24 293.69,362.012 292.542,362.965C291.419,363.897 290.524,363.712 288.309,362.087C286.764,360.954 282.125,358.84 278,357.389C267.706,353.769 249.883,353.077 239.5,355.894" style="fill:rgb(28,28,28);"/>
    </g>
</svg>
