<?xml version="1.0" encoding="UTF-8" standalone="no"?>
<!DOCTYPE svg PUBLIC "-//W3C//DTD SVG 1.1//EN" "http://www.w3.org/Graphics/SVG/1.1/DTD/svg11.dtd">
<svg width="100%" height="100%" viewBox="0 0 640 580" version="1.1" xmlns="http://www.w3.org/2000/svg" xmlns:xlink="http://www.w3.org/1999/xlink" xml:space="preserve" xmlns:serif="http://www.serif.com/" style="fill-rule:evenodd;clip-rule:evenodd;stroke-linejoin:round;stroke-miterlimit:2;">
    <g transform="matrix(1,0,0,1,-1,-1)">
        <path d="M201,31L201,41L141,41L141,61L101,61L101,81L81,81L81,101L61,101L61,121L41,121L41,161L21,161L21,281L41,281L41,321L61,321L61,361L41,361L41,441L61,441L61,481L81,481L81,501L101,501L101,521L141,521L141,541L201,541L201,561L441,561L441,541L501,541L501,521L541,521L541,501L561,501L561,481L581,481L581,441L601,441L601,361L581,361L581,321L601,321L601,281L621,281L621,161L601,161L601,141L581,141L581,101L561,101L561,81L541,81L541,61L501,61L501,41L441,41L441,21L201,21L201,31M121,191L121,201L81,201L81,221L61,221L61,281L81,281L81,301L121,301L121,321L201,321L201,341L161,341L161,361L201,361L201,341L221,341L221,321L241,321L241,281L261,281L261,201L241,201L241,181L121,181L121,191M401,191L401,201L381,201L381,281L401,281L401,321L421,321L421,341L441,341L441,361L481,361L481,341L441,341L441,321L501,321L501,301L561,301L561,281L581,281L581,221L561,221L561,201L521,201L521,181L401,181L401,191M161,261L161,281L201,281L201,241L161,241L161,261M441,261L441,281L481,281L481,241L441,241L441,261M301,321L301,341L281,341L281,401L361,401L361,341L341,341L341,301L301,301L301,321M121,381L121,401L81,401L81,421L121,421L121,441L141,441L141,461L161,461L161,481L201,481L201,501L241,501L241,521L421,521L421,501L461,501L461,481L481,481L481,461L501,461L501,441L521,441L521,421L561,421L561,401L541,401L541,381L521,381L521,361L501,361L501,401L461,401L461,421L201,421L201,401L161,401L161,381L141,381L141,361L121,361L121,381M141,421L141,441L161,441L161,401L141,401L141,421M181,441L181,461L201,461L201,481L241,481L241,441L201,441L201,421L181,421L181,441M461,441L461,461L481,461L481,421L461,421L461,441M261,471L261,501L301,501L301,441L261,441L261,471M321,471L321,501L381,501L381,441L321,441L321,471M401,471L401,501L421,501L421,481L441,481L441,441L401,441L401,471" style="fill:white;"/>
        <path d="M201,11L201,21L141,21L141,41L101,41L101,61L81,61L81,81L61,81L61,101L41,101L41,121L21,121L21,161L1,161L1,281L21,281L21,321L41,321L41,361L21,361L21,441L41,441L41,481L61,481L61,501L81,501L81,521L101,521L101,541L141,541L141,561L201,561L201,581L441,581L441,561L501,561L501,541L541,541L541,521L561,521L561,501L581,501L581,481L601,481L601,441L621,441L621,361L601,361L601,321L621,321L621,281L641,281L641,161L621,161L621,121L601,121L601,101L581,101L581,81L561,81L561,61L541,61L541,41L501,41L501,21L441,21L441,1L201,1L201,11M201,31L201,41L141,41L141,61L101,61L101,81L81,81L81,101L61,101L61,121L41,121L41,161L21,161L21,281L41,281L41,321L61,321L61,361L41,361L41,441L61,441L61,481L81,481L81,501L101,501L101,521L141,521L141,541L201,541L201,561L441,561L441,541L501,541L501,521L541,521L541,501L561,501L561,481L581,481L581,441L601,441L601,361L581,361L581,321L601,321L601,281L621,281L621,161L601,161L601,141L581,141L581,101L561,101L561,81L541,81L541,61L501,61L501,41L441,41L441,21L201,21L201,31M121,191L121,201L81,201L81,221L61,221L61,281L81,281L81,301L121,301L121,321L201,321L201,341L161,341L161,361L201,361L201,341L221,341L221,321L241,321L241,281L261,281L261,201L241,201L241,181L121,181L121,191M401,191L401,201L381,201L381,281L401,281L401,321L421,321L421,341L441,341L441,361L481,361L481,341L441,341L441,321L501,321L501,301L561,301L561,281L581,281L581,221L561,221L561,201L521,201L521,181L401,181L401,191M161,261L161,281L201,281L201,241L161,241L161,261M441,261L441,281L481,281L481,241L441,241L441,261M301,321L301,341L281,341L281,401L361,401L361,341L341,341L341,301L301,301L301,321M121,381L121,401L81,401L81,421L121,421L121,441L141,441L141,461L161,461L161,481L201,481L201,501L241,501L241,521L421,521L421,501L461,501L461,481L481,481L481,461L501,461L501,441L521,441L521,421L561,421L561,401L541,401L541,381L521,381L521,361L501,361L501,401L461,401L461,421L201,421L201,401L161,401L161,381L141,381L141,361L121,361L121,381M141,421L141,441L161,441L161,401L141,401L141,421M181,441L181,461L201,461L201,481L241,481L241,441L201,441L201,421L181,421L181,441M461,441L461,461L481,461L481,421L461,421L461,441M261,471L261,501L301,501L301,441L261,441L261,471M321,471L321,501L381,501L381,441L321,441L321,471M401,471L401,501L421,501L421,481L441,481L441,441L401,441L401,471"/>
    </g>
</svg>
