<?xml version="1.0" encoding="UTF-8" standalone="no"?>
<!DOCTYPE svg PUBLIC "-//W3C//DTD SVG 1.1//EN" "http://www.w3.org/Graphics/SVG/1.1/DTD/svg11.dtd">
<svg width="100%" height="100%" viewBox="0 0 413 559" version="1.1" xmlns="http://www.w3.org/2000/svg" xmlns:xlink="http://www.w3.org/1999/xlink" xml:space="preserve" xmlns:serif="http://www.serif.com/" style="fill-rule:evenodd;clip-rule:evenodd;stroke-linejoin:round;stroke-miterlimit:2;">
    <g id="svgPath">
        <path d="M192.5,1.637C190.85,1.823 184.775,2.48 179,3.097C159.997,5.128 139.038,11.561 114.75,22.816C104.772,27.44 105.129,25.643 111.456,39.405C113.455,43.752 114.723,47.677 114.274,48.126C113.825,48.575 108.747,51.467 102.99,54.553C75.582,69.245 69.012,74.094 57.074,88.442C48.356,98.92 43.241,106.568 38.074,116.849C29.974,132.967 23,158.673 23,172.413L23,179.011L11.534,184.718C1.725,189.601 0.139,190.72 0.554,192.463C0.82,193.583 14.042,253 29.936,324.5C67.986,495.674 67.631,494.206 72.497,500.586C73.849,502.358 92.121,516.095 113.101,531.111L151.246,558.414L153.239,555.957C154.335,554.606 155.773,552.729 156.434,551.787C157.479,550.298 160.898,549.94 182.568,549.047C211.546,547.853 234.498,547.732 255.93,548.66L271.178,549.32L274.339,553.621C276.078,555.987 277.795,557.94 278.156,557.961C278.516,557.982 286.391,553.215 295.656,547.368C304.92,541.52 317.563,533.6 323.75,529.768C329.938,525.935 335,522.697 335,522.572C335,522.447 333.2,518.195 331,513.122C328.8,508.05 327,503.58 327,503.188C327,502.796 330.564,500.119 334.919,497.238C347.315,489.039 353.466,482.878 357.459,474.658C360.556,468.283 361.493,464.165 366.028,437C368.828,420.225 380.275,353.4 391.467,288.5C402.658,223.6 411.969,169.196 412.157,167.601C412.488,164.807 412.146,164.551 402.646,160.493C397.227,158.177 392.438,155.709 392.005,155.009C391.572,154.308 390.91,149.407 390.534,144.117C389.172,124.959 385.51,115.487 371.169,94.02C353.822,68.053 319.439,38.504 286.242,21.031C267.5,11.167 262.42,9.466 235.5,4.041C223.113,1.544 218.322,1.042 208,1.159C201.125,1.236 194.15,1.452 192.5,1.637M196.771,31.958C177.726,32.37 168.677,32.923 167.876,33.724C166.548,35.052 168.769,35.784 175.488,36.233C179.283,36.487 179.514,36.695 180.245,40.5C181.352,46.262 182.409,86.785 181.594,92.22C180.717,98.073 177.463,101.603 171.58,103.084C166.267,104.422 165.535,106.012 170.25,105.974C178.847,105.904 233.288,103.045 233.691,102.642C234.229,102.104 231.983,101.425 226.742,100.541C220.324,99.458 220.177,98.768 219.874,68.5C219.633,44.382 219.791,41.148 221.354,38.199C223.143,34.824 223.454,34.616 228.291,33.554C231.739,32.797 230.877,30.934 227.191,31.178C225.711,31.276 212.022,31.627 196.771,31.958M197.285,35.476C195.337,36.323 193.884,37.786 193.599,39.187C192.305,45.545 192.079,54.534 192.675,75.914C193.257,96.771 193.529,99.529 195.164,101.164C198.657,104.657 205.114,102.735 207.843,97.39C208.602,95.904 208.645,88.214 207.988,71.39C207.476,58.25 207.044,45.362 207.028,42.75C207.008,39.36 206.427,37.427 205,36C202.661,33.661 201.621,33.591 197.285,35.476M179.146,124.065C169.051,126.71 160.573,129.093 160.306,129.361C159.907,129.759 233.041,288.321 239,299.979L240.778,303.457L245.018,299.217C250.001,294.234 250.148,298.489 243.664,260C237.924,225.921 236.398,214.176 237.574,213.124C238.705,212.112 353.019,188.686 353.667,189.333C353.92,189.587 352.762,199.403 351.094,211.147C349.425,222.891 347.162,239.025 346.064,247C343.759,263.736 343.036,266.556 339.505,272.582C331.741,285.829 300.922,303.641 268.826,313.429L260.152,316.075L260.55,321.287C260.769,324.154 261.165,332.058 261.43,338.851L261.911,351.201L292.055,421.851C308.634,460.708 322.335,492.643 322.501,492.818C323.255,493.613 341.113,481.635 343.892,478.471C347.496,474.365 351.039,467.624 353.335,460.5C354.751,456.106 376.137,334.303 396.965,212C400.852,189.175 404.21,169.703 404.428,168.73C405.388,164.432 388.214,159.671 319,145.043C255.993,131.728 201.348,120.142 199,119.601C198.175,119.41 189.241,121.419 179.146,124.065M144,153.141C127.311,158.017 30.537,187.008 19.25,190.513C12.73,192.538 11,193.472 11,194.966C11,196.005 12.365,202.765 14.034,209.987C15.703,217.209 22.008,246.09 28.045,274.166C34.083,302.243 45.323,353.854 53.024,388.857C60.724,423.861 68.409,458.8 70.1,466.5C73.828,483.472 77.325,491.199 84.828,499.04C91.112,505.607 149.862,546.542 151.146,545.248C152.661,543.721 154.043,526.36 155.981,484.5C158.008,440.716 160.988,356.619 160.996,342.971L161,335.443L153.75,333.585C146.208,331.652 132.357,326.034 116.534,318.491C96.757,309.062 83.178,297.231 76.447,283.565C73.45,277.48 72.822,274.905 71.919,265C71.342,258.675 69.777,245.4 68.439,235.5C65.473,213.541 65.385,210.275 67.75,209.781C68.712,209.579 74,210.235 79.5,211.238C85,212.241 110.794,216.829 136.821,221.435C162.848,226.04 184.368,230.034 184.643,230.31C185.392,231.058 176.245,293.204 173.969,302.829C172.886,307.41 172,311.987 172,313.001C172,314.114 179.238,321.485 190.25,331.587C200.288,340.795 210.128,349.863 212.117,351.738L215.735,355.147L229.117,343.456C236.478,337.027 242.893,331.403 243.373,330.96C244.72,329.717 160.89,148.978 159.022,149.099C158.185,149.153 151.425,150.972 144,153.141M300.5,207.189C276.85,212.148 257.322,216.373 257.105,216.58C256.888,216.787 256.502,219.131 256.246,221.79C255.861,225.799 256.331,227.723 259.001,233.062C263.622,242.303 266.226,245.372 271.151,247.383C275.56,249.184 276.784,249.798 287.5,255.592C290.8,257.376 297.737,260.524 302.915,262.589L312.33,266.342L317.915,263.421C325.528,259.44 334.113,250.573 337.856,242.828C340.448,237.462 341.224,233.915 342.957,219.5C345.195,200.88 345.372,197.957 344.25,198.087C343.837,198.135 324.15,202.231 300.5,207.189M73.465,224.25C77.784,261.502 79.926,276.238 81.335,278.389C83.105,281.089 92.408,285.867 97.508,286.695C101.315,287.313 111.447,284.243 120.5,279.728C130.686,274.649 151.273,260.592 155.835,255.601C159.926,251.128 166.812,238.479 165.741,237.408C165.141,236.808 128.948,227.865 113,224.376C100.633,221.67 82.875,219.051 76.678,219.02L72.856,219L73.465,224.25M208.256,383.939C207.022,384.968 203.687,386.13 200.845,386.521C194.395,387.408 191.765,389.898 189.421,397.334C187.744,402.652 187.74,403.417 189.332,411.725C191.471,422.889 191.437,424.696 189.066,425.965C186.54,427.317 178.419,427.295 175.867,425.929C174.345,425.114 173.297,425.231 171.489,426.415C169.947,427.425 168.039,427.758 166.056,427.361C163.106,426.771 163,426.874 163,430.308C163,434.045 163.178,434.181 169.817,435.52C172.113,435.983 173.652,435.732 174.817,434.705C175.956,433.701 177.194,433.486 178.646,434.04C181.027,434.948 181.439,437.079 182.554,454.25C183.102,462.691 183.425,464 184.965,464C186.532,464 186.796,462.718 187.188,453.213C187.514,445.278 188.144,441.377 189.566,438.463C191.882,433.717 193.693,433.184 197.451,436.14C200.222,438.319 200.259,438.487 199.669,446.14C199.339,450.422 199.452,454.161 199.921,454.451C201.284,455.294 201.972,451.133 201.986,441.95C202.001,432.739 202.779,431 206.884,431C210.181,431 217.104,434.418 219.955,437.452L222.242,439.886L225.489,436.443C228.816,432.915 232.216,432.148 237.848,433.656C240.175,434.279 240.189,434.371 239.504,444.392C238.702,456.101 237.394,459 232.911,459C228.593,459 226.386,457.533 225.042,453.771L223.873,450.5L221.979,454C220.937,455.925 220.065,457.833 220.042,458.24C219.972,459.476 238.198,468.208 239.002,467.324C239.798,466.448 247.408,443.387 248.431,438.75C248.765,437.238 249.602,436 250.291,436C252.68,436 265.187,439.787 266.225,440.825C266.949,441.549 266.432,443.293 264.538,446.526C261.178,452.258 259.867,456.621 260.611,459.587C261.044,461.312 262.345,462.123 266.143,463.034C268.874,463.689 271.259,464.062 271.444,463.863C272.147,463.103 268.765,395.451 267.976,394.5C267.52,393.95 265.533,392.639 263.562,391.586C259.988,389.679 259.97,389.679 257.674,391.836C254.494,394.824 253.157,394.596 246.676,389.955C237.504,383.387 235.448,382.819 229.02,385.083C221.908,387.588 220.087,387.502 216.594,384.499C213.151,381.537 211.285,381.412 208.256,383.939M205.5,388.629C196.076,392.622 196.251,392.247 195.444,410.167L194.74,425.834L198.62,426.911C204.157,428.449 213.247,428.271 215.559,426.581C219.301,423.844 218.598,404.611 214.187,389.082C213.243,385.758 212.381,385.714 205.5,388.629M230.713,388.765C229.834,389.735 228.695,392.4 228.182,394.686C227.668,396.973 226.221,400.285 224.966,402.047C223.364,404.298 222.378,407.726 221.655,413.566C220.464,423.176 221.405,426.562 225.556,427.603C228.742,428.403 239.408,425.354 241.322,423.097C242.829,421.318 245,406.317 245,397.677L245,392.08L241,390.882C238.8,390.223 237,389.08 237,388.342C237,386.397 232.587,386.694 230.713,388.765M170.75,389.283C168.688,389.787 167,390.619 167,391.133C167,393.192 172.209,402.184 172.931,401.372C174.436,399.677 176.209,391.195 175.353,389.78C174.693,388.688 173.651,388.575 170.75,389.283M253.075,397.304C252.593,398.57 251.9,404.983 251.534,411.554L250.869,423.5L255.012,428.25C257.291,430.863 259.998,433 261.027,433C262.056,433 264.046,431.495 265.449,429.656C267.891,426.454 268,425.738 268,412.878C268,396.162 267.442,395 259.419,395C254.63,395 253.842,395.286 253.075,397.304M275.293,412.5C275.608,418.55 276.895,450.613 278.153,483.75C279.596,521.76 280.81,544 281.442,544C281.992,544 291.987,538.287 303.653,531.304L324.863,518.609L323.573,515.554C293.18,443.608 275.636,402.394 275.233,402C274.952,401.725 274.979,406.45 275.293,412.5M163.487,454.669L161.599,460.224L165.049,463.136C170.563,467.79 171.307,468.031 173.963,466.028L176.362,464.218L171.445,457.023C168.741,453.065 166.269,449.666 165.952,449.47C165.635,449.274 164.526,451.614 163.487,454.669" style="fill:rgb(28,28,28);"/>
    </g>
</svg>
