<?xml version="1.0" encoding="UTF-8" standalone="no"?>
<!DOCTYPE svg PUBLIC "-//W3C//DTD SVG 1.1//EN" "http://www.w3.org/Graphics/SVG/1.1/DTD/svg11.dtd">
<svg width="100%" height="100%" viewBox="0 0 424 538" version="1.1" xmlns="http://www.w3.org/2000/svg" xmlns:xlink="http://www.w3.org/1999/xlink" xml:space="preserve" xmlns:serif="http://www.serif.com/" style="fill-rule:evenodd;clip-rule:evenodd;stroke-linejoin:round;stroke-miterlimit:2;">
    <g transform="matrix(1,0,0,1,-0.547491,-1.08162)">
        <path d="M198,2.084C177.643,4.029 160.431,8.477 139.569,17.185C115.203,27.355 81.533,45.582 70.213,54.73C65.336,58.671 51.784,74.48 46.088,82.874C33.791,100.993 23,133.368 23,152.141L23,159.54L11.582,165.224C2.509,169.74 0.248,171.277 0.578,172.704C0.807,173.692 13.346,230.3 28.444,298.5C59.585,439.171 67.023,471.18 69.842,476.652C70.933,478.769 73.327,481.903 75.162,483.617C82.37,490.347 149.199,537.25 151.581,537.25C154.81,537.25 157,535.281 157,532.378C157,530.159 157.384,529.995 162.75,529.922C165.912,529.879 171.65,529.627 175.5,529.362C192.559,528.188 267.493,528.496 270.793,529.754C271.504,530.025 272.986,532.013 274.088,534.172C275.189,536.331 276.73,538.343 277.512,538.643C278.294,538.943 280.861,537.65 283.217,535.771C288.391,531.642 300.235,524.347 325.4,509.79C355.097,492.611 363.869,485.494 369.224,474.233C372.589,467.156 371.401,473.434 390.003,364.5C397.141,322.7 403.893,283.325 405.008,277C412.889,232.281 424.002,167.097 423.99,165.662C423.985,165.023 419.294,162.539 413.566,160.143L403.151,155.786L402.58,148.143C401.622,135.31 399.911,125.777 397.495,119.814C392.318,107.031 378.195,85.787 366.453,73.117C353.361,58.989 320.259,32.654 307.704,26.377C303.742,24.396 296.225,20.374 291,17.44C280.797,11.71 269.976,8.461 244.481,3.477C231.002,0.842 215.785,0.386 198,2.084M206,31.94C181.758,32.472 174.935,33.289 179.566,35.102C180.63,35.519 183.617,35.891 186.205,35.93C190.815,35.999 190.925,36.075 191.705,39.75C192.142,41.813 192.5,55.576 192.5,70.336L192.5,97.172L189.695,99.585C188.152,100.913 184.889,102.503 182.445,103.118C180,103.734 178,104.689 178,105.241C178,106.278 197.577,105.657 235.75,103.411C246.452,102.781 248.391,101.642 240.312,100.732C232.897,99.896 232.007,98.127 231.964,84.139C231.944,77.738 231.672,66.145 231.361,58.377C230.847,45.577 230.986,43.819 232.846,39.615C234.918,34.932 235.251,34.661 240.291,33.554C244.77,32.571 242.353,30.983 236.691,31.19C233.836,31.295 220.025,31.632 206,31.94M210.182,35.219C204.641,36.678 204.162,39.192 204.121,67C204.101,80.475 204.471,93.498 204.943,95.941C206.401,103.483 211.879,105.274 217.205,99.949L220.255,96.899L219.582,68.699C219.211,53.19 218.442,39.305 217.872,37.845C216.645,34.701 214.688,34.033 210.182,35.219M180,126.57C164.325,130.666 129.45,139.651 102.5,146.538C75.55,153.424 51.039,159.72 48.032,160.529C45.025,161.338 40.416,162 37.791,162C32.543,162 16.144,167.655 12.914,170.578C10.201,173.033 10.458,176.179 14.99,196C17.19,205.625 23.923,236.481 29.951,264.569C35.979,292.657 45.174,334.957 50.386,358.569C55.597,382.181 61.96,411.175 64.525,423C71.913,457.055 73.692,463.719 76.878,469.279C81.885,478.018 86.627,482.65 99.841,491.706C106.803,496.479 120.6,505.99 130.5,512.843C140.4,519.696 149.175,525.347 150,525.401C151.915,525.527 153.521,514.815 154.407,496C154.757,488.575 155.246,478.675 155.493,474C155.74,469.325 156.196,459.2 156.508,451.5C156.819,443.8 157.274,433.9 157.518,429.5C158.962,403.52 161.162,316.77 160.396,316.048C159.903,315.583 156.086,314.279 151.914,313.15C142.808,310.685 114.094,298.055 103.845,292.006C92.928,285.563 80.941,273.19 76.444,263.719C73.216,256.923 72.692,254.62 71.386,241.531C70.585,233.497 68.88,219.404 67.596,210.212C65.151,192.716 65.357,190 69.123,190C70.253,190 82.274,192.026 95.838,194.502C109.402,196.978 134.672,201.498 151.993,204.546C169.315,207.593 183.822,210.422 184.231,210.831C184.64,211.24 184.545,214.258 184.019,217.537C183.493,220.817 181.24,235.875 179.012,251C176.785,266.125 174.301,280.975 173.493,284C170.561,294.975 169.586,293.449 193.551,315.396C205.403,326.251 215.495,334.991 215.976,334.816C216.458,334.642 225.097,327.226 235.176,318.334C245.254,309.443 254.677,301.246 256.115,300.118C260.732,296.497 261.504,293.011 259.635,284.213C257.686,275.037 250.445,230.56 249.223,220.26C248.487,214.061 248.589,212.953 249.932,212.557C255.219,211 364.438,189.105 364.853,189.52C366.198,190.865 356.262,260.226 353.77,266.886C347.896,282.584 320.05,300.412 282.5,312.516L272.5,315.739L272.503,321.119C272.505,326.793 273.381,351.591 274.988,391.5C275.519,404.7 276.196,421.8 276.491,429.5C276.787,437.2 277.253,449.35 277.528,456.5C277.803,463.65 278.236,474 278.489,479.5C278.743,485 279.247,497.512 279.611,507.305C280.072,519.749 280.607,524.981 281.386,524.682C284.886,523.337 351.969,482.413 354.283,480.211C357.672,476.986 361.21,471.077 364.016,463.961C365.822,459.378 371.334,429.347 386.584,341C387.961,333.025 391.111,314.8 393.586,300.5C396.06,286.2 399.434,266.625 401.084,257C402.734,247.375 406.765,223.912 410.042,204.86C413.319,185.808 416,169.339 416,168.262C416,163.914 403.233,160.189 348.5,148.568C242.972,126.163 212.247,119.673 210.5,119.417C209.4,119.255 195.675,122.474 180,126.57M334,202.467C322.725,204.824 304.275,208.667 293,211.007C281.725,213.346 271.488,215.641 270.25,216.106C266.707,217.436 267.071,226.217 270.993,233.985C275.313,242.543 279.236,246.585 285.117,248.539C287.88,249.456 292.386,251.686 295.131,253.494C297.876,255.302 305.533,258.931 312.147,261.558L324.173,266.336L329.81,263.418C336.579,259.914 344.295,252.341 348.796,244.784C351.825,239.7 352.291,237.725 354.546,220.449C357.38,198.738 357.421,197.97 355.75,198.09C355.063,198.14 345.275,200.109 334,202.467M73,200.811C73,205.69 79.157,254.716 80.057,257.008C81.165,259.83 87.546,264.139 93.369,265.998C102.558,268.932 115.673,263.991 138.309,249.067C155.518,237.72 157.639,235.623 163.365,224.283C164.814,221.414 166,218.651 166,218.144C166,217.636 160.938,216.001 154.75,214.51C148.563,213.019 136.46,210.075 127.856,207.969C109.168,203.394 92.514,200.331 81.25,199.397C73.321,198.739 73,198.794 73,200.811M208.207,363.978C206.946,365.03 203.796,366.198 201.207,366.573C194.485,367.548 193.131,368.522 190.427,374.33C187.595,380.412 187.432,384.499 189.596,395.178C190.474,399.511 190.948,403.693 190.649,404.472C190.35,405.251 188.327,406.421 186.153,407.072C182.883,408.052 181.377,407.976 177.427,406.63C172.979,405.114 172.526,405.119 170.777,406.702C169.228,408.104 168.384,408.206 165.95,407.287L163,406.174L163,414.605L167.966,415.622C171.895,416.427 173.22,416.352 174.31,415.262C175.154,414.417 176.646,414.124 178.161,414.504C180.579,415.111 180.658,415.442 181.779,429.692C182.409,437.703 183.147,444.481 183.419,444.753C183.691,445.025 184.608,444.981 185.457,444.655C186.687,444.183 187,442.267 187,435.213C187,426.157 188.946,417.119 191.322,415.148C192.294,414.341 193.53,414.542 196.068,415.92L199.5,417.783L199.209,426.391C199.049,431.126 199.324,435 199.82,435C200.84,435 201.971,426.986 202.007,419.5C202.038,412.942 203.014,411.576 207.577,411.705C210.194,411.779 212.988,413.009 217.051,415.873L222.812,419.936L224.328,417.621C226.415,414.437 231.207,412.629 235.448,413.424C237.363,413.784 239.189,414.496 239.505,415.008C240.408,416.469 238.12,436.151 236.873,437.653C235.543,439.255 230.655,439.421 227.92,437.957C226.848,437.383 225.376,435.471 224.648,433.707L223.326,430.5L218.976,438.968L228.097,443.549C233.114,446.068 237.732,447.931 238.359,447.688C239.501,447.246 248,422.756 248,419.91C248,416.734 249.941,416.177 255.833,417.659C258.95,418.443 262.719,419.562 264.21,420.147L266.92,421.209L263.46,428.08C258.452,438.024 259.021,442.219 265.544,443.442C267.523,443.814 269.743,444.348 270.478,444.63C271.46,445.007 271.735,444.262 271.516,441.821C271.351,439.995 270.891,429.5 270.492,418.5C270.094,407.5 269.618,396.7 269.434,394.5C269.251,392.3 269.078,387.055 269.05,382.845L269,375.19L264.413,372.502L259.827,369.814L257.469,372.029C254.484,374.834 251.944,374.264 245.505,369.349C238.075,363.675 234.596,362.794 228.74,365.102C222.35,367.621 219.743,367.496 216.182,364.5C212.648,361.526 211.258,361.435 208.207,363.978M203.232,369.967C199.784,371.598 196.751,373.51 196.492,374.216C196.233,374.922 195.675,382.173 195.254,390.33C194.657,401.861 194.77,405.394 195.758,406.214C197.309,407.501 209.866,408.501 213.384,407.619C218.448,406.347 219.25,393.62 215.39,375.753C213.175,365.504 212.921,365.383 203.232,369.967M231.226,368.555C229.844,369.522 228.764,371.622 228.365,374.118C228.012,376.323 226.687,379.655 225.421,381.522C222.47,385.87 221.376,389.977 221.111,397.699C220.937,402.794 221.264,404.264 222.949,405.949C224.077,407.077 225.973,408 227.162,408C231.21,408 240.239,404.565 241.541,402.529C242.255,401.413 243.416,394.486 244.123,387.136C245.35,374.366 245.323,373.709 243.513,372.386C242.47,371.623 240.82,371 239.844,371C238.869,371 237.589,370.1 237,369C235.713,366.596 234.19,366.478 231.226,368.555M172.5,368.824C171.4,369.054 169.461,369.636 168.19,370.119L165.881,370.996L169.114,377.063C172.666,383.727 173.185,383.597 174.977,375.603C176.172,370.268 175.422,368.215 172.5,368.824M253.226,376.634C252.694,377.66 251.942,383.388 251.555,389.362C251.168,395.336 250.639,400.777 250.38,401.453C250.12,402.129 252.016,405.026 254.593,407.892C260.051,413.963 262.284,414.206 265.715,409.103C267.856,405.919 267.983,404.839 267.75,391.902C267.583,382.709 267.094,377.694 266.285,376.885C265.617,376.217 262.623,375.467 259.632,375.219C255.061,374.84 254.04,375.066 253.226,376.634M163.226,434.795L161.215,440.753L166.001,444.403C170.314,447.692 171.046,447.936 173.394,446.866C174.827,446.213 176,445.269 176,444.769C176,444.008 168.266,432.393 165.946,429.669C165.557,429.212 164.333,431.519 163.226,434.795" style="fill:rgb(28,28,28);"/>
    </g>
</svg>
