<?xml version="1.0" encoding="UTF-8" standalone="no"?>
<!DOCTYPE svg PUBLIC "-//W3C//DTD SVG 1.1//EN" "http://www.w3.org/Graphics/SVG/1.1/DTD/svg11.dtd">
<svg width="100%" height="100%" viewBox="0 0 418 530" version="1.1" xmlns="http://www.w3.org/2000/svg" xmlns:xlink="http://www.w3.org/1999/xlink" xml:space="preserve" xmlns:serif="http://www.serif.com/" style="fill-rule:evenodd;clip-rule:evenodd;stroke-linejoin:round;stroke-miterlimit:2;">
    <g id="svgPath">
        <path d="M200.5,0.676C191.569,1.321 165.722,5.064 156.76,7.01C139.245,10.812 95.891,29.824 71.012,44.612C58.599,51.99 52.501,57.386 42.352,69.971C24.552,92.042 15.967,111.52 10.859,141.426C9.202,151.122 8.044,154.838 4.661,161.305C0.55,169.165 0.501,169.38 0.584,179.38C0.652,187.546 1.766,194.854 6.358,217.233C15.294,260.788 14.804,258.998 18.302,260.875C22.665,263.216 29,268.995 29,270.634C29,271.404 26.075,276.694 22.5,282.389L16,292.743L16,314.767L19.94,318.327C24.769,322.69 27.283,323.997 37.5,327.455C41.9,328.945 47.198,331.506 49.273,333.147C53.997,336.884 63.634,342 65.947,342C68.316,342 70.193,339.671 74.006,332C75.783,328.425 77.375,325.346 77.543,325.158C78.077,324.563 103.89,342.044 106.854,345.008C112.168,350.322 114.709,365.34 112.616,379.067C111.824,384.265 112.024,385.22 115.634,393.437C117.846,398.474 120.494,402.899 121.824,403.783C123.958,405.201 124.505,405.153 128.527,403.199C132.146,401.441 133.437,401.257 135.966,402.138C142.555,404.435 143.57,400.889 139.605,389.425C138.288,385.616 136.898,381.735 136.517,380.8C135.986,379.496 136.688,378.739 139.534,377.55C141.575,376.698 143.427,376 143.65,376C143.873,376 143.769,378.813 143.419,382.25C143.031,386.05 143.253,390.247 143.985,392.957C145.472,398.465 149.923,405.086 153.382,406.937C155.68,408.167 156.208,408.122 157.945,406.55C159.594,405.057 160.42,404.951 163.104,405.886C167.867,407.547 173.474,407.246 176.008,405.195L178.237,403.389L176.467,392.945C174.818,383.22 174.808,382.118 176.317,376.954C178.365,369.946 181.306,367.147 187.683,366.139C190.42,365.707 193.735,364.598 195.052,363.676C198.368,361.353 200.707,361.576 204.241,364.55C207.498,367.29 209.883,367.259 216.872,364.386C221.893,362.322 222.837,362.563 231,368C239.018,373.34 242.664,374.134 245.379,371.134C247.019,369.322 247.257,369.367 253.508,372.686C257.05,374.567 260.203,376.519 260.515,377.025C260.828,377.53 260.375,379.024 259.51,380.345C258.249,382.269 257.992,385.197 258.218,395.087L258.5,407.427L261.306,408.964C263.916,410.392 264.215,410.362 265.573,408.537C266.375,407.457 267.767,404.243 268.665,401.394C270.164,396.637 270.593,396.165 273.899,395.618C275.88,395.29 278.063,395.017 278.75,395.011C280.332,394.997 280.449,403.293 278.907,406.173C277.281,409.212 279.255,410.536 285.042,410.289C291.171,410.028 293.251,408.948 295.911,404.645C298.574,400.335 298.539,398.738 295.707,395.445C293.507,392.888 293.462,392.495 294.598,385.805C295.561,380.139 295.52,377.703 294.382,372.825L292.981,366.82L295.991,364.009C297.646,362.463 299,360.591 299.001,359.849C299.002,357.16 304.822,346.431 307.793,343.641L310.836,340.783L312.336,343.684C313.162,345.279 314.35,349.491 314.977,353.042C315.604,356.594 317.442,362.365 319.061,365.867C321.978,372.176 321.984,372.229 319.752,371.631C318.514,371.299 316.747,371.021 315.827,371.014C314.906,371.006 312.816,369.875 311.182,368.5C309.548,367.125 307.714,366 307.106,366C304.815,366 306.182,368.78 311.962,375.871C318.947,384.441 319.459,385.686 318.062,390.716C316.58,396.052 316.744,399.392 318.651,402.715C320.26,405.518 320.157,406.028 314.601,422.696C308.947,439.661 308.879,439.795 306.312,439.108C304.032,438.498 303.407,437.286 301.077,428.958C299.622,423.756 298.083,418.938 297.657,418.25C296.584,416.52 279.632,416.52 278.237,418.25C277.682,418.938 276.726,423.288 276.113,427.918C274.408,440.783 273.528,440.577 272.334,427.035L271.5,417.569L268.196,416.625C262.827,415.089 261.81,416.986 261.045,429.955C260.238,443.637 259.391,444.963 252.848,442.784C246.286,440.599 245.816,438.026 250.265,428.658C252.896,423.118 253.535,420.877 252.673,420.212C250.903,418.846 237.163,415.781 236.008,416.495C235.454,416.838 235.001,418.104 235.003,419.309C235.007,421.737 227.168,444.943 225.835,446.454C224.92,447.49 207,439.204 207,437.745C207,437.28 207.713,435.521 208.585,433.835C210.206,430.702 211.525,430.944 212.165,434.492C212.959,438.892 222.763,440.18 224.911,436.167C225.402,435.248 226.129,429.921 226.525,424.329L227.246,414.162L223.647,413.168C218.954,411.872 216.195,412.613 212.394,416.19L209.288,419.113L206.233,416.543C200.495,411.714 192.776,409.624 190.2,412.2C189.49,412.91 189,416.328 189,420.575C189,428.822 188.16,434 186.823,434C186.274,434 186.17,430.623 186.567,425.722L187.239,417.444L183.75,415.565C181.831,414.531 179.552,413.958 178.685,414.291C176.119,415.275 174,424.498 174,434.682C174,443.139 173.826,444 172.117,444C170.496,444 170.149,442.959 169.617,436.5C169.278,432.375 168.726,425.668 168.391,421.596C167.818,414.615 167.634,414.163 165.18,413.694C163.6,413.392 162.169,413.749 161.538,414.602C160.648,415.806 159.449,415.787 153.147,414.469C144.594,412.679 142.593,413.067 141.189,416.783C139.139,422.21 139.002,424.965 140.586,428.924C143.632,436.536 141.292,435.474 137.213,427.393C133.969,420.965 132.404,418.945 129.659,417.643C125.289,415.569 120.604,415.539 118.571,417.571C116.421,419.722 116.374,435.276 118.506,439.364C120.361,442.92 120.443,442.48 117.575,444.359C115.257,445.878 114.68,445.724 104.575,440.897C98.759,438.119 94,435.519 94,435.119C94,434.719 95.35,432.263 97,429.661C98.65,427.059 100,423.891 100,422.621C100,421.35 95.937,411.892 90.97,401.603C80.344,379.588 79.111,375.375 80.993,367.53C82.559,361.003 81.86,359.783 74.441,356.078C67.214,352.468 62.891,352.288 57.623,355.375C55.159,356.819 52.935,358 52.68,358C52.425,358 51.96,356.975 51.645,355.723C50.631,351.681 44.161,345.129 39.935,343.862C37.764,343.212 35.71,342.957 35.37,343.296C35.031,343.635 34.526,347.916 34.247,352.81C33.832,360.076 34.121,362.879 35.821,368.103C36.966,371.621 38.209,376.3 38.583,378.5C39.467,383.697 40.5,385.641 45.001,390.574C51.139,397.304 59.612,425.2 62.044,446.69C63.116,456.159 63.049,457.309 61.099,462.944C59.944,466.279 59,471.263 59,474.019C59,479.755 58.307,479.151 75.331,488.247C84.664,493.233 92.717,498.412 116.252,514.562C121.913,518.446 130.134,523.163 134.522,525.046L142.5,528.468L200,528.723C231.625,528.864 260.034,529.036 263.13,529.106C270.23,529.267 273.445,528.207 289.5,520.407C314.238,508.388 346.599,488.448 347.555,484.635C347.849,483.461 347.388,480.513 346.531,478.085C345.17,474.231 345.105,470.739 346.014,450.585C347.627,414.83 349.085,405.095 353.156,402.917C354.828,402.022 356.237,402.975 363.167,409.688C377.779,423.841 388.976,440.619 392.624,453.83C394.139,459.314 394.94,460.55 398.616,463.08C400.951,464.686 403.117,466 403.43,466C404.565,466 403.963,460.247 402.324,455.439C399.435,446.958 386.131,422.615 381.48,417.299C378.3,413.663 376.597,410.551 375.515,406.395C373.218,397.578 373.445,396.48 378.25,393.154C387.356,386.851 390.128,381.523 392.38,366C394.416,351.963 396.22,334.887 395.72,334.386C395.498,334.164 392.208,336.731 388.408,340.089C384.609,343.448 379.534,347.351 377.132,348.762C373.165,351.093 372.677,351.175 371.827,349.655C370.658,347.566 364.671,345 360.968,345C359.222,345 356.276,346.505 353.09,349.023C349.011,352.247 348,353.638 348,356.023C348,359.691 347.206,359.727 338.369,356.463C334.591,355.067 330.954,353.738 330.287,353.508C329.403,353.204 329.655,351.652 331.217,347.795C332.396,344.883 333.475,342.342 333.616,342.148C333.756,341.954 334.9,342.517 336.158,343.398C337.416,344.279 339.476,345 340.736,345C341.996,345 349.315,341.85 357,338C364.685,334.15 371.902,331 373.036,331C378.824,331 386,323.366 386,317.209C386,315.38 384.616,308.4 382.924,301.698C381.057,294.304 380.078,288.361 380.433,286.583C380.756,284.971 383.655,279.568 386.876,274.576C396.51,259.645 396.26,260.434 394.51,250.399C393.395,244.001 393,234.081 393,212.431L393,183.124L397.401,179.963C402.383,176.386 407.153,170.21 409.405,164.42C412.512,156.433 418.311,127 416.778,127C416.504,127 414.68,128.509 412.724,130.354C410.768,132.198 405.524,135.177 401.07,136.972C396.616,138.767 392.727,140.633 392.427,141.118C392.127,141.603 391.234,142 390.441,142C389.41,142 389,140.779 389,137.71C389,123.7 375.74,97.955 357.637,76.819C343.299,60.078 311.17,34.267 291.295,23.522C266.666,10.208 267.075,10.361 243.408,5.586C221.959,1.26 210.531,-0.048 200.5,0.676M198.371,51.104C199.462,56.558 193.712,102 191.931,102C190.936,102 190.135,99.445 184.035,76.835C178.313,55.624 178.026,52.924 181.25,50.674C183.353,49.207 182.764,49.101 172.208,49.052L160.916,49L164.852,52.75C169.221,56.911 168.67,55.345 180.4,96.942C184.937,113.029 187.692,121.107 189.18,122.692C191.317,124.966 194,125.79 194,124.171C194,122.319 204.062,53.381 204.562,51.805C205.447,49.015 209.124,48.435 211.026,50.784C212.384,52.461 212.794,56.43 213.336,73.161C213.698,84.348 213.996,97.932 213.997,103.349C214,113.004 213.941,113.253 211,116C209.35,117.541 208,119.072 208,119.401C208,119.731 217,120 228,120C239,120 248,119.832 248,119.626C248,119.42 247.248,117.282 246.33,114.876C244.97,111.314 244.58,105.604 244.232,84.179C243.996,69.703 244.093,56.32 244.446,54.438C244.877,52.137 245.973,50.538 247.794,49.549C250.233,48.225 247.898,48.076 224.125,48.04L197.75,48L198.371,51.104M224.655,50.829C222.624,53.073 222.508,61.932 224.103,93C225.279,115.903 226.02,119 230.323,119C234.483,119 235,117.345 234.995,104.05C234.989,90.234 233.303,54.808 232.481,51.25C231.825,48.407 227.078,48.151 224.655,50.829M282,134.93C280.075,135.315 277.54,136.151 276.368,136.787C273.457,138.367 265.403,147.452 262.503,152.426C258.37,159.517 246.985,192.113 247.022,196.75C247.047,199.918 250.73,208.604 251.655,207.678C251.996,207.338 252.628,203.184 253.059,198.449C253.601,192.5 254.627,188.238 256.379,184.658C259.761,177.745 274.268,159.765 282.708,152.026C291.197,144.242 295.809,141.516 304.025,139.429C307.586,138.524 310.682,137.613 310.904,137.405C311.125,137.197 309.677,136.345 307.686,135.513C303.88,133.923 288.752,133.58 282,134.93M402.293,139.971C395.683,143.079 392.23,145.626 384.543,153.062C379.115,158.313 375,163.108 375,164.182C375,166.883 377.94,171.001 379.865,170.996C382.759,170.99 387.653,167.31 391.039,162.595C392.853,160.07 394.529,158.196 394.765,158.431C395,158.667 393.714,161.633 391.907,165.023C388.783,170.884 383.74,176 381.086,176C380.388,176 379.998,176.967 380.18,178.25C380.569,180.989 384.631,181.727 390.177,180.065C394.457,178.783 402.232,171.435 404.923,166.13C408.285,159.501 413.35,135.931 411.386,136.057C410.899,136.088 406.807,137.849 402.293,139.971M311.459,144.067C311.096,144.653 310.957,145.248 311.15,145.388C311.342,145.528 318.925,150.286 328,155.961C349.491,169.4 358.699,175.791 368.623,184.154C373.09,187.919 377.252,191 377.873,191C379.671,191 379.207,187.645 376.053,177.835C372.48,166.726 367.585,159.328 360.678,154.6C353.939,149.987 348.706,148.216 336.5,146.42C331,145.611 325.195,144.51 323.601,143.974C319.737,142.676 312.283,142.732 311.459,144.067M291.84,150.921C287.938,154.934 284.773,159.429 282.823,163.73C279.379,171.326 277.852,181.023 280.11,180.963C280.875,180.943 290.05,178.434 300.5,175.388C310.95,172.342 321.736,169.209 324.468,168.425C327.2,167.641 331.475,166.99 333.968,166.978L338.5,166.956L336,165.032C331.571,161.624 302.952,145.714 300.36,145.218C298.31,144.826 296.756,145.866 291.84,150.921M271.727,168.847C261.152,179.934 256,191.262 256,203.427C256,222.89 270.029,234.722 298.275,239.082C302.552,239.742 306.309,240.024 306.625,239.709C306.941,239.393 304.968,238.004 302.242,236.623C294.235,232.565 291.338,229.434 285.633,218.671C278.818,205.815 275.612,193.428 275.754,180.505C275.813,175.192 276.48,169.757 277.382,167.25C278.223,164.912 278.55,163 278.108,163C277.666,163 274.795,165.631 271.727,168.847M325.946,173.71C322.724,175.314 317.193,179.704 312.401,184.46C300.089,196.682 294.937,208.56 301.397,209.831C302.726,210.092 302.95,209.65 302.467,207.723C301.665,204.531 303.954,199.2 307.758,195.396C309.432,193.722 314.558,190.456 319.151,188.137C325.842,184.758 328.644,183.894 333.261,183.784C338.608,183.656 338.975,183.497 338.366,181.573C336.609,176.018 333.934,171 332.732,171C331.995,171 328.942,172.22 325.946,173.71M338.336,172.25C345.34,188.154 347.397,198.203 346.806,213.633C346.395,224.374 346.465,224.89 348.118,223.393C349.079,222.524 351.797,217.467 354.159,212.156C357.896,203.756 358.454,201.59 358.448,195.5C358.442,190.133 357.897,187.45 356.11,184C353.34,178.651 349.516,174.352 345.8,172.411C342.374,170.621 337.574,170.518 338.336,172.25M113.5,176.035C111.85,176.588 103.633,178.806 95.241,180.963C77.853,185.432 71.604,188.422 65.529,195.179C57.084,204.571 57.544,214.171 67.005,226.006C69.773,229.469 72.297,233.337 72.615,234.601C72.932,235.866 72.474,239.764 71.596,243.264C69.775,250.525 69.552,256.294 70.987,258.976C72.413,261.64 77.846,264.733 83.213,265.936C89.136,267.263 96.496,265.13 110.377,258.063C130.046,248.048 145.435,234.958 151.122,223.401C154.357,216.829 154.498,216.07 154.442,205.519C154.377,192.956 152.155,183.433 148.484,179.985C147.224,178.801 144.462,177.42 142.347,176.915C136.411,175.498 116.876,174.902 113.5,176.035M293.203,181.115C283.903,182.663 279.299,186.072 280.429,190.573C281.07,193.128 289.518,203 291.062,203C291.873,203 310,181.498 310,180.536C310,179.737 299.262,180.107 293.203,181.115M362.134,196.238C358.907,213.549 354.121,223.864 344.927,233.318C340.775,237.588 339.388,239.628 340.26,240.182C342.59,241.661 345.043,240.998 354.136,236.432C365.452,230.749 371.878,224.615 374.857,216.653C378.95,205.712 377.055,197.188 368.746,189.169L364.258,184.837L362.134,196.238M329.5,187.986C327.731,188.733 327.875,188.913 330.75,189.54C332.551,189.934 334,190.881 334,191.665C334,193.977 330.022,201.102 325.3,207.25L320.883,213L336.923,213L337.923,209.25C340.142,200.927 341.162,191.171 340.032,189.061C338.852,186.856 333.474,186.307 329.5,187.986M319.685,194.017C315.422,195.296 310.759,199.27 308.24,203.77L305.981,207.806L309.067,210.403C313.153,213.841 314.616,213.687 318.672,209.387C321.983,205.876 330,194.671 330,193.555C330,192.729 322.918,193.046 319.685,194.017M284,205.597C284,209.872 291.707,223.453 296.879,228.29C299.669,230.899 303.972,233.594 307.393,234.874C315.021,237.728 326.389,238.689 330.843,236.857L334.187,235.481L325.843,230.834C314.505,224.519 299.896,214.883 291.803,208.38C288.12,205.421 284.858,203 284.553,203C284.249,203 284,204.169 284,205.597M312.401,218.444C316.578,221.859 328.972,228.802 334.942,231.07C340.663,233.244 340.243,233.601 341.955,225.102C342.891,220.455 342.809,219.447 341.366,217.852C339.873,216.202 338.046,216.004 324.595,216.036L309.5,216.072L312.401,218.444M194,218.337C194,221.468 185.029,251.182 182.077,257.825C175.696,272.191 175.535,273.015 175.517,291.5C175.508,300.85 175.87,310.67 176.322,313.322C177.11,317.941 179.8,322 182.074,322C182.665,322 185.703,319.612 188.824,316.694C198.999,307.182 203.283,304 205.912,304C207.801,304 210.954,306.48 218.042,313.541L227.619,323.083L233.188,315.291C240.757,304.703 242.182,301.602 242.754,294.479C243.416,286.229 242.081,280.727 234.938,262.258C231.596,253.618 228.011,242.411 226.97,237.354C224.16,223.698 223.94,223.038 221.805,221.895C220.148,221.009 219.247,221.467 216.065,224.811L212.29,228.779L207.895,226.061C199.508,220.874 194,217.813 194,218.337M251.163,223.541C249.109,228.049 252.495,236.593 258.383,241.763C262.659,245.518 277.983,250.625 279.205,248.703C279.625,248.041 279.976,247.218 279.985,246.874C279.997,246.358 262.075,229.472 254.418,222.785C252.385,221.01 252.308,221.028 251.163,223.541M351.25,241.768C348.363,243.223 346.003,244.883 346.007,245.457C346.015,246.822 349.558,252.183 350.4,252.104C351.15,252.033 361,240.363 361,239.544C361,238.216 356.062,239.343 351.25,241.768M285.073,246.058C280.54,252.315 280.382,254.825 284.057,262.16C289.324,272.672 295.601,281.375 300.406,284.825C306.507,289.207 315.731,293.244 316.563,291.898C316.917,291.325 316.882,283.506 316.486,274.523C316.09,265.539 316.068,257.699 316.437,257.102C316.858,256.421 320.536,258.343 326.299,262.258C335.396,268.436 335.57,268.504 343.391,268.863L351.292,269.225L350.594,264.863C350.211,262.463 348.205,257.35 346.137,253.5L342.378,246.5L337.036,246.192L331.695,245.885L333.347,248.407C335.805,252.158 335.444,252.237 330.422,249.053C325.521,245.945 322.293,245.171 309.73,244.091L301.729,243.404L300.243,246.952C299.426,248.903 298.442,253.65 298.057,257.5C297.399,264.064 297.282,264.325 296.178,261.685C295.53,260.137 295,255.074 295,250.435L295,242L291.506,242C288.572,242 287.542,242.649 285.073,246.058M321.201,335.298C315.497,338.175 314.959,338.712 315.507,340.988C317.358,348.688 318.203,351.029 319.872,353.091L321.719,355.371L324.869,351.022C330.061,343.854 332.447,331.86 328.642,332.06C328.014,332.093 324.666,333.55 321.201,335.298M384,348.109C375.188,353.916 366.551,362.802 364.922,367.737C363.561,371.86 364.125,379.088 366.192,384L367.664,387.5L368.942,383.5C371.067,376.85 375.214,368 376.204,368C376.716,368 376.836,368.943 376.47,370.095C374.369,376.714 371.027,390.361 371.413,390.746C372.404,391.737 378.821,388.795 381.271,386.227C384.158,383.199 387.098,376.844 388.778,370C389.974,365.126 392.412,344.078 391.846,343.512C391.655,343.322 388.125,345.39 384,348.109M191.5,368.842C188.2,370.405 184.827,372.496 184.005,373.49C182.892,374.834 182.371,379.036 181.969,389.898C181.673,397.929 181.701,404.846 182.033,405.268C182.364,405.69 185.305,406.5 188.568,407.068C196.333,408.418 202.065,407.242 203.727,403.957C205.487,400.479 205.326,384.194 203.5,381C202.714,379.625 202.055,376.558 202.035,374.184C201.996,369.441 200.6,366 198.715,366.001C198.047,366.001 194.8,367.28 191.5,368.842M219.736,366.692C217.806,367.195 215,371.892 215,374.619C215,375.565 213.655,378.722 212.01,381.636C209.85,385.463 208.841,388.858 208.376,393.865C207.543,402.831 208.253,405.448 211.934,406.973C214.454,408.016 215.865,407.875 221.436,406.021C225.034,404.824 228.298,403.326 228.689,402.693C229.594,401.23 231.889,383.005 231.952,376.785C232.003,371.821 230.454,370 226.182,370C225.074,370 224.008,369.137 223.71,368C223.18,365.971 222.879,365.872 219.736,366.692M156.75,369.162C153.475,370.358 153.404,370.953 155.961,375.79C159.651,382.77 159.717,382.783 161.447,376.831C163.803,368.725 162.733,366.977 156.75,369.162M239.925,375.25C239.884,375.387 239.288,381.575 238.601,389L237.353,402.5L241.867,407.75C244.35,410.637 247.189,413 248.177,413C249.164,413 251.166,411.194 252.627,408.987C255.25,405.024 255.276,404.808 254.768,391.493C254.44,382.886 253.802,377.466 253.004,376.505C252.151,375.477 249.891,375 245.878,375C242.645,375 239.966,375.113 239.925,375.25M319.54,379.75C324.866,389.016 326.325,390.325 335.866,394.4C344.447,398.064 345.553,398.289 354.183,398.133C359.234,398.041 363.568,397.766 363.813,397.52C364.398,396.935 360.514,395.323 355.452,394.05C352.118,393.211 339.235,385 341.253,385C341.591,385 346.734,386.795 352.683,388.989C358.633,391.183 363.933,392.983 364.462,392.989C365.86,393.005 356.056,383.229 352.38,380.94C349.336,379.045 327.537,375.034 320.155,375.011L316.81,375L319.54,379.75M150.594,433.677C149.717,436.251 149,438.855 149,439.464C149,440.768 156.849,447 158.491,447C159.111,447 160.465,446.381 161.5,445.624C163.292,444.313 163.147,443.904 158.455,437.037C155.746,433.071 153.227,429.64 152.859,429.413C152.49,429.185 151.471,431.104 150.594,433.677" style="fill:rgb(28,28,28);"/>
    </g>
</svg>
