<?xml version="1.0" encoding="UTF-8" standalone="no"?>
<!DOCTYPE svg PUBLIC "-//W3C//DTD SVG 1.1//EN" "http://www.w3.org/Graphics/SVG/1.1/DTD/svg11.dtd">
<svg width="100%" height="100%" viewBox="0 0 449 509" version="1.1" xmlns="http://www.w3.org/2000/svg" xmlns:xlink="http://www.w3.org/1999/xlink" xml:space="preserve" xmlns:serif="http://www.serif.com/" style="fill-rule:evenodd;clip-rule:evenodd;stroke-linejoin:round;stroke-miterlimit:2;">
    <g id="svgPath">
        <path d="M104.5,7.694C82.947,19.451 76.573,23.22 71.659,27.107C66.372,31.29 52.547,47.357 46.244,56.645C35.937,71.831 28.614,91.107 24.456,114C22.359,125.544 21.129,129.752 18.424,134.639C13.175,144.123 12.488,149.023 14.474,162.836C16.159,174.557 24.726,217.737 27.401,227.997C28.19,231.02 29.601,233.945 30.538,234.497C35.62,237.49 38.527,239.784 40.338,242.23L42.361,244.96L39.93,250.166C38.594,253.029 36.212,257.154 34.638,259.332C29.972,265.788 29,269.205 29,279.152L29,288.368L33.864,293.056C37.879,296.926 40.389,298.298 48.238,300.913C54.001,302.833 59.715,305.549 62.743,307.808C69.776,313.056 77.271,316.4 80.296,315.64C82.129,315.181 83.844,312.95 86.937,307.004L91.108,298.988L104.304,307.975C111.562,312.918 118.625,317.86 120,318.959L122.5,320.956L97.908,320.978L73.315,321L63.742,317C51.884,312.045 49.176,311.869 48.35,316L47.75,319L34.625,319.015C27.406,319.024 20.966,319.37 20.313,319.786C19.659,320.201 18.658,321.769 18.087,323.27C17.155,325.724 16.56,326 12.216,326C4.595,326 4.279,326.537 1.854,343.601C0.674,351.907 0.011,359.906 0.38,361.377C1.502,365.846 4.291,367.692 12.013,369.072C17.558,370.063 20.15,371.119 23.116,373.597L26.985,376.829L15.34,382.429L3.696,388.028L4.305,399.264C4.64,405.444 5.432,411.976 6.065,413.78C7.18,416.957 11.253,420 14.39,420C15.208,420 17.958,421.8 20.5,424C24.744,427.673 25.595,428 30.906,428C35.329,428 37.097,427.551 38.419,426.09C40.791,423.469 50.149,422 64.477,422L76.29,422L75.707,428.949C75.387,432.771 74.684,436.722 74.145,437.73C73.605,438.737 72.864,442.698 72.498,446.531L71.831,453.5L84.618,460.5C96.015,466.739 106.406,473.376 132.192,490.887C136.423,493.76 143.848,497.763 148.692,499.783L157.5,503.456L176,503.39C246.909,503.135 267.577,503.113 275.5,503.282L284.5,503.473L308.065,491.812C321.025,485.399 332.198,479.467 332.892,478.63C333.947,477.359 330.97,470.07 314.84,434.431C304.217,410.959 294.892,391.512 294.118,391.215C291.872,390.353 290.278,393.583 289.538,400.494C288.672,408.574 287.456,413.066 286.692,411C286.387,410.175 285.844,405.593 285.485,400.819C284.847,392.337 284.764,392.113 281.888,391.111C275.956,389.043 275.117,390.522 274.308,404.477C273.988,409.99 273.322,415.287 272.828,416.25C271.735,418.379 269.073,418.475 264.468,416.551C261.372,415.258 261,414.694 261.002,411.301C261.003,408.98 262.219,405.195 264.126,401.577C267.038,396.053 267.131,395.569 265.509,394.383C263.293,392.762 250.696,389.855 249.956,390.793C249.649,391.182 247.225,398.025 244.568,406C241.911,413.975 239.433,420.841 239.062,421.257C238.29,422.121 219.978,413.481 220.042,412.283C220.065,411.852 220.937,409.925 221.979,408L223.873,404.5L225.042,407.771C226.374,411.501 228.592,413 232.779,413C237.566,413 238.745,410.616 239.533,399.35C240.205,389.754 240.131,389.141 238.187,388.1C233.415,385.546 226.82,387.538 224.319,392.288C223.461,393.918 222.985,393.762 218.939,390.535C214.97,387.369 209.613,385.021 206.321,385.006C203.152,384.991 202,388.129 201.985,396.821C201.976,401.595 201.533,406.175 201,407C200.332,408.033 200.026,405.834 200.015,399.935L200,391.37L196.466,389.685C194.522,388.758 192.546,388 192.075,388C189.945,388 187.696,396.937 187.229,407.25C186.802,416.691 186.527,418 184.97,418C183.41,418 183.121,416.593 182.563,406.25C181.607,388.513 180.364,385.862 174.483,389.009C172.685,389.971 170.855,389.902 165.439,388.667C157.832,386.932 155.509,387.53 153.952,391.626C152.683,394.963 152.746,400.974 154.09,404.83C156.444,411.582 154.215,409.772 150.291,401.744C146.587,394.167 145.723,393.106 142.056,391.639C133.37,388.164 130.757,389.939 130,399.832L129.5,406.364L118.5,409.134C93.179,415.511 88.365,416.23 66,416.972C48.524,417.553 42.861,418.112 35.741,419.958C25.466,422.623 24.775,422.349 22.503,414.699C20.92,409.368 20.393,388.503 21.786,386.313C23.619,383.43 32.622,381.404 49.743,380.021C56.977,379.436 67.081,378.072 72.197,376.989C77.314,375.906 86.675,374.537 93,373.946C99.325,373.356 106.862,372.644 109.75,372.365C115.412,371.816 116.61,370.442 112.356,369.375C108.919,368.512 79.34,369.752 66.5,371.297C50.06,373.275 41.43,372.889 35,369.887C27.609,366.437 23.598,362.867 20.937,357.371C18.97,353.307 18.784,351.752 19.298,343.644C19.821,335.378 22.157,325.603 23.844,324.62C24.794,324.065 122.903,326.822 123.888,327.431C124.342,327.712 125.307,330.735 126.032,334.149C127.073,339.057 127.109,342.047 126.202,348.428C124.715,358.896 125.218,360.959 132.899,375.933C134.389,378.838 136.782,379.53 140.225,378.05C142.026,377.276 146.2,376.611 149.5,376.572C157.125,376.481 157.317,375.622 152.521,363.055C150.56,357.916 149.078,353.642 149.228,353.558C151.662,352.189 155.358,351.103 156.075,351.546C156.584,351.861 157,355.16 157,358.878C157,368.868 159.193,375.153 164.163,379.407C168.277,382.929 168.288,382.931 170.892,381.1C172.662,379.854 174.143,379.521 175.5,380.062C178.83,381.39 187.476,381.104 189.535,379.598C191.411,378.226 191.414,377.964 189.676,367.348C188.05,357.42 188.03,356.068 189.443,351.403C191.604,344.268 194.509,341.457 200.559,340.647C203.277,340.283 206.85,339.091 208.5,337.999C212.414,335.408 213.999,335.507 216.855,338.517C219.547,341.356 224.058,341.753 228,339.5C232.846,336.73 237.148,337.61 245.099,343C249.156,345.75 253.127,348 253.923,348C254.719,348 256.362,347.069 257.573,345.931L259.776,343.862L267.138,347.548C271.187,349.576 274.658,351.377 274.851,351.551C275.043,351.725 274.256,352.882 273.101,354.122C271.204,356.158 271,357.564 271,368.617C271,378.411 271.314,381.171 272.571,382.429C276.183,386.04 279.502,383.606 282.019,375.5C282.702,373.3 283.705,370.94 284.248,370.256C284.946,369.377 279.846,357.109 266.892,328.506C256.803,306.227 248.312,288.018 248.024,288.039C247.736,288.06 245.993,290.126 244.151,292.629L240.801,297.179L230.924,287.475C222.023,278.73 220.777,277.839 218.308,278.459C214.765,279.348 207.799,284.527 201.538,290.928C196.084,296.502 193.789,297.154 191.597,293.75C189.154,289.959 187.666,275.694 188.29,262.061C188.907,248.568 190.133,243.601 196.325,229.5C198.257,225.1 201.367,215.626 203.235,208.446L206.631,195.391L162.632,98.196C138.432,44.738 118.153,1.033 117.566,1.074C116.98,1.115 111.1,4.094 104.5,7.694M216,7.56C192.031,10.643 181.867,13.115 169,18.989C163.225,21.625 157.15,24.09 155.5,24.466C152.788,25.085 139.992,29.86 139.155,30.565C138.854,30.82 225.77,223.754 226.735,224.971C226.941,225.23 227.488,224.829 227.951,224.08C228.609,223.015 230.695,223.884 237.517,228.068L246.242,233.419L249.218,229.709C252.326,225.836 254.957,225.039 256.902,227.382C257.533,228.143 258.911,233.205 259.963,238.632C262.325,250.814 263.403,254.25 269.839,270.096C278.517,291.462 279.047,299.563 272.563,311.696L268.927,318.5L287.31,359L305.694,399.5L309.597,400C313.486,400.498 313.5,400.517 313.481,405C313.47,407.475 313.11,410.488 312.681,411.695C311.992,413.631 312.32,413.969 315.45,414.557C320.97,415.592 325.577,414.291 328.44,410.889C332.003,406.654 332.164,402.943 328.936,399.46C327.297,397.691 327.191,396.893 328.138,393.461C329.183,389.679 328.81,378.527 327.45,372.89C326.947,370.805 327.234,370.172 328.877,369.742C330.096,369.424 331.589,367.569 332.539,365.194L334.144,361.183L379.822,361.718C417.878,362.164 425.779,362.497 427.174,363.713C429.794,365.997 431.312,377.29 430.055,385.153C428.718,393.527 426.414,400.149 424.283,401.75C423.036,402.686 415.028,403 392.44,403C361.63,403 348.389,404.16 342.2,407.403L339.613,408.759L343.556,409.352C345.725,409.679 358.525,410.415 372,410.989C385.475,411.562 400.223,412.523 404.774,413.123C409.325,413.723 414.595,413.923 416.486,413.569C420.584,412.8 423.125,414.86 426.067,421.339C428.656,427.041 428.457,432.476 425.422,438.997C421.071,448.345 421.905,448.001 403.595,447.991C386.892,447.982 366.025,446.798 350.5,444.979C336.409,443.328 337.699,444.255 335.016,433.851C331.992,422.12 330.901,421 322.5,421C318.925,421 316,421.29 316,421.644C316,422.621 354.021,506.391 354.846,507.232C355.761,508.165 380.895,491.436 381.69,489.365C382.017,488.514 381.511,486.199 380.568,484.219C379.08,481.099 378.945,478.734 379.554,466.43L380.257,452.24L400.379,452.37C418.948,452.49 420.963,452.327 426.5,450.26C429.8,449.028 433.764,447.775 435.309,447.476C436.854,447.177 440.117,445.09 442.559,442.839L447,438.745L447,428.327C447,418.599 446.837,417.746 444.545,415.455C442.411,413.32 441.186,413 435.156,413C429.957,413 427.663,412.548 425.989,411.192L423.755,409.384L427.064,406.6C430.051,404.086 430.87,403.878 435.495,404.456C440.715,405.108 445.804,403.906 447.214,401.687C448.347,399.906 448.142,375.052 446.96,370.795C445.699,366.256 441.784,363 437.588,363C435.348,363 433.689,362.138 431.813,360L429.18,357L417.658,357C406.992,357 406.087,356.85 405.497,354.989C404.641,352.293 399.958,350 395.308,350C392.616,350 390.056,351.006 386.477,353.471L381.437,356.943L373.286,355.257C366.397,353.833 364.225,353.76 359.257,354.786C353.382,355.999 337,356.488 337,355.45C337,353.632 340.474,348.746 343.249,346.66C346.122,344.501 362.208,336 363.422,336C363.678,336 365.083,338.664 366.545,341.92C368.521,346.324 369.973,348.161 372.213,349.088C375.037,350.258 376.133,349.895 389.862,343.246C397.913,339.347 406.386,335.661 408.691,335.056C414.248,333.596 420,327.089 420,322.262C420,320.403 418.612,313.397 416.916,306.692C415.094,299.488 414.042,293.191 414.345,291.3C414.627,289.539 416.626,285.489 418.788,282.3C420.949,279.11 424.171,273.917 425.948,270.761C428.913,265.493 429.132,264.507 428.605,258.761C428.29,255.317 427.633,236.075 427.145,216C426.261,179.611 424.185,149.676 421.491,134.5C418.9,119.9 403.922,94.67 387.475,77.201C368.858,57.428 342.411,37.228 319,24.902C302.781,16.363 300.367,15.408 286.016,11.851C255.849,4.373 245.638,3.747 216,7.56M253.5,42.614C244.15,43.268 236.176,43.848 235.78,43.902C235.384,43.956 236.213,45.688 237.621,47.75C239.755,50.876 240.083,52.233 239.589,55.904C239.263,58.327 238.082,69.554 236.965,80.854C235.848,92.154 234.716,101.617 234.45,101.883C233.052,103.281 231.218,98.202 226.297,79.308C219.67,53.862 219.241,51.088 221.423,47.758C223.065,45.252 223.054,45.233 219.652,44.595C215.583,43.831 199.719,45.481 197.239,46.926C195.809,47.759 196.087,47.945 198.8,47.97C203.372,48.012 207.512,50.381 208.817,53.703C209.421,55.241 211.738,63.7 213.966,72.5C220.372,97.805 228.392,122.724 231.034,125.537C233.593,128.26 237,128.824 237,126.525C237,123.599 245.077,50.459 245.584,48.801C246.633,45.363 253.153,45.353 254.474,48.788C255.662,51.88 257.124,117.543 256.066,120.326C255.527,121.744 253.675,123.634 251.95,124.526C250.225,125.418 249.006,126.339 249.241,126.574C249.91,127.243 277,125.766 277,125.061C277,124.714 275.648,123.632 273.995,122.656C268.148,119.202 267.777,117.29 266.796,85.501C266.304,69.55 266.169,54.715 266.497,52.534C266.825,50.352 268.199,47.117 269.55,45.345C270.902,43.573 271.669,41.966 271.254,41.774C270.839,41.582 262.85,41.96 253.5,42.614M124.5,151.558C119,152.872 110.589,154.834 105.809,155.916C85.123,160.603 73.083,171.023 73.022,184.29C72.996,190.044 75.241,194.776 81.447,202.046C86.543,208.017 86.84,209.726 84.48,219.5C82.171,229.061 82.492,231.785 86.358,235.431C89.659,238.544 95.63,241 99.898,241C106.387,241 123.01,233.368 138.367,223.337C161.412,208.284 168.897,196.352 167.709,176.56C167.03,165.24 164.965,157.511 161.767,154.313C159.749,152.295 157.489,151.587 149.399,150.441C136.888,148.669 136.519,148.685 124.5,151.558M307.007,179.576C299.763,182.948 295.365,186.393 293.364,190.262C287.858,200.91 283.224,221.799 284.318,231.038C285.597,241.84 292.34,249.227 303,251.504C304.925,251.915 311,254.646 316.5,257.574C322,260.501 330.639,264.492 335.699,266.443C345.652,270.281 347.051,270.236 353.153,265.891C356.402,263.578 359.989,257.258 360.022,253.79C360.059,249.911 363.552,243.515 368.795,237.726C371.549,234.685 374.12,231.197 374.507,229.976C375.694,226.239 374.021,213.932 371.188,205.547L368.5,197.594L359.221,193.857C350.45,190.325 313.791,176.989 312.911,177.01C312.685,177.015 310.028,178.17 307.007,179.576M7.012,342.898C5.797,353.445 6.203,357.866 8.11,354.857C8.583,354.111 8.984,351.925 9.002,350C9.021,347.959 10.27,344.416 12,341.5C13.631,338.75 14.974,335.488 14.983,334.25C14.997,332.359 14.463,332 11.634,332L8.267,332L7.012,342.898M204.352,343.399C200.438,345.274 197.014,347.189 196.743,347.654C196.471,348.119 195.93,355.56 195.541,364.189L194.833,379.878L199.155,381.042C205.33,382.704 214.904,381.852 216.634,379.485C219.222,375.946 217.356,348.846 214.057,342.06C212.902,339.683 211.783,339.838 204.352,343.399M232.829,341.25C231.975,341.938 229.117,347.183 226.478,352.906C222.535,361.456 221.597,364.6 221.216,370.532C220.807,376.913 221,378 222.876,379.876C224.044,381.044 226.191,382 227.647,382C231.728,382 241.89,377.95 242.385,376.126C243.177,373.203 243.964,367.662 244.945,358.1C246.024,347.581 245.343,345 241.488,345C239.987,345 238.415,344.037 237.408,342.5C235.543,339.654 234.997,339.505 232.829,341.25M170.75,343.364C168.688,343.908 167,344.775 167,345.291C167,346.719 172.219,356 173.022,356C174.173,356 176.393,343.978 175.398,343.135C174.904,342.717 172.813,342.82 170.75,343.364M253.541,349.933C253.224,350.446 252.436,356.694 251.791,363.816L250.617,376.766L254.902,381.883C260.125,388.121 262.874,388.557 265.918,383.632C267.767,380.641 268,378.701 268,366.287C268,349.813 267.587,349 259.23,349C256.419,349 253.859,349.42 253.541,349.933M435.414,374.74C435.842,378.917 436.644,381.781 437.523,382.273C438.303,382.709 439.421,384.851 440.009,387.033C440.596,389.215 441.625,391 442.294,391C443.208,391 443.345,388.823 442.843,382.25C442.475,377.438 442.135,372.97 442.087,372.321C441.945,370.395 439.009,368 436.79,368C434.838,368 434.762,368.371 435.414,374.74M11,390.5C8.658,391.754 8.543,392.219 8.859,399.162C9.287,408.553 10.009,409.991 12.865,407.135C14.662,405.338 15,403.823 15,397.559C15,393.466 14.657,389.906 14.237,389.647C13.818,389.388 12.361,389.772 11,390.5M163.594,408.678C162.717,411.251 162,413.666 162,414.044C162,414.423 164.086,416.357 166.635,418.343C171.164,421.872 171.332,421.917 174.035,420.32L176.801,418.687L171.695,411.343C168.888,407.304 166.275,404 165.889,404C165.504,404 164.471,406.105 163.594,408.678M121.25,413.706C117.974,414.337 118.45,415.241 123.513,418.007C128.702,420.842 131.284,420.108 131.816,415.649C132.118,413.127 131.926,413.007 127.816,413.136C125.442,413.211 122.487,413.467 121.25,413.706M431,419.257C431,421.713 433.429,423.922 437.806,425.449L442.113,426.951L441.806,422.726L441.5,418.5L436.25,418.198C432.34,417.973 431,418.243 431,419.257" style="fill:rgb(28,28,28);"/>
    </g>
</svg>
