<?xml version="1.0" encoding="UTF-8" standalone="no"?>
<!DOCTYPE svg PUBLIC "-//W3C//DTD SVG 1.1//EN" "http://www.w3.org/Graphics/SVG/1.1/DTD/svg11.dtd">
<svg width="100%" height="100%" viewBox="0 0 429 530" version="1.1" xmlns="http://www.w3.org/2000/svg" xmlns:xlink="http://www.w3.org/1999/xlink" xml:space="preserve" xmlns:serif="http://www.serif.com/" style="fill-rule:evenodd;clip-rule:evenodd;stroke-linejoin:round;stroke-miterlimit:2;">
    <g id="svgPath">
        <path d="M195,2.612C172.032,5.611 159.018,8.792 148.582,13.956C144.137,16.155 136.225,19.311 131,20.969C125.117,22.835 114.837,27.572 104,33.41C77.259,47.816 70.919,52.08 63.219,60.835C39.7,87.577 30.312,107.232 24.12,142.689C22.579,151.514 21.373,155.297 18.409,160.597C11.828,172.364 12.454,181.884 23.088,231.754C25.815,244.543 28.544,256.1 29.153,257.436C29.761,258.772 31.546,260.398 33.119,261.049C34.692,261.701 37.577,264.003 39.53,266.165L43.082,270.097L39.725,276.298C37.878,279.709 34.822,284.933 32.934,287.908C29.726,292.959 29.478,293.957 29.16,303.055L28.819,312.794L32.439,316.801C36.37,321.152 41.83,324.086 51.63,327.113C55.089,328.181 59.945,330.601 62.42,332.491C68.262,336.95 76.302,341 79.312,341C82.302,341 83.974,339.102 87.902,331.25C89.622,327.813 91.398,325 91.85,325C93.576,325 121.28,344.55 120.9,345.5C120.643,346.143 111.958,346.36 96.568,346.109L72.637,345.718L63.153,341.859C51.644,337.176 50.215,337.085 48.867,340.951C47.618,344.535 44.207,345.237 30.177,344.794C20.413,344.486 20.674,344.391 17.5,349.407C16.882,350.383 14.652,351.132 11.663,351.366C9.003,351.575 6.217,352.365 5.471,353.123C4.148,354.468 -0.25,381.932 0.475,384.322C0.672,384.97 1.091,386.684 1.406,388.131C2.097,391.309 6.351,393.51 13.677,394.481C17.217,394.951 20.143,396.158 22.927,398.298C25.167,400.019 26.98,401.669 26.955,401.964C26.931,402.259 22.543,404.504 17.205,406.954C3.067,413.443 3.631,412.692 4.411,424C5.496,439.715 6.969,443.069 13.591,444.897C15.529,445.432 18.89,447.474 21.06,449.435C24.709,452.732 25.482,453 31.348,453C36.321,453 38.063,452.588 39.419,451.09C41.759,448.504 51.106,447 64.832,447L76,447L76,452.341C76,455.279 75.33,459.891 74.511,462.591C73.692,465.291 73.017,470.054 73.011,473.176L73,478.853L85.75,486.029C92.763,489.976 105.609,497.997 114.299,503.853C138.109,519.899 144.06,523.334 153.459,526.458L162.063,529.316L189.781,528.455C226.282,527.322 248.047,527.304 267.215,528.392L282.93,529.285L293.215,524.22C298.872,521.435 309.125,516.452 316,513.148C329.595,506.614 359.41,487.972 360.992,485.016C361.682,483.726 361.524,482.105 360.46,479.557C359.296,476.771 359.01,472.647 359.223,461.717L359.5,447.5L378.5,447.87C397.112,448.232 397.631,448.186 403.922,445.62C407.455,444.179 411.415,443 412.722,443C416.027,443 419.901,440.794 423.896,436.637L427.292,433.103L426.743,422.339C426.062,408.999 425.252,408 415.112,408C408.686,408 404,406.299 404,403.966C404,401.471 409.607,399.499 416.834,399.451C427.423,399.381 428.002,398.51 427.994,382.639C427.991,375.963 427.504,368.755 426.912,366.622C425.434,361.299 421.922,358 417.733,358C415.306,358 413.576,357.167 411.5,355C408.635,352.01 408.588,352 397.219,352C386.579,352 385.777,351.863 385.279,349.96C384.574,347.262 380.016,344.999 375.3,345.005C371.758,345.01 370.027,345.798 363.844,350.222C361.575,351.845 360.972,351.847 353.286,350.258C346.397,348.833 344.225,348.76 339.257,349.786C330.614,351.571 317,351.418 317,349.535C317,346.263 323.604,340.715 333.276,335.862C338.739,333.12 343.373,331.039 343.571,331.238C343.77,331.437 345.037,334.095 346.385,337.145C348.165,341.169 349.646,343.025 351.785,343.911C354.521,345.044 355.768,344.636 369.209,338.207C377.171,334.398 385.356,330.968 387.398,330.585C391.756,329.768 398.592,323.472 399.636,319.316C400.077,317.556 399.187,311.93 397.141,303.54C395.391,296.368 393.969,289.095 393.98,287.378C393.993,285.361 395.703,281.647 398.814,276.878C408.878,261.452 409.246,260.604 408.606,254.254C408.287,251.089 407.6,232.075 407.079,212C406.558,191.925 405.67,171.225 405.105,166C404.541,160.775 403.598,150.513 403.01,143.195C402.329,134.716 401.104,127.255 399.633,122.622C395.497,109.6 380.404,86.06 366.957,71.661C353.903,57.683 321.507,31.83 308.347,24.888C280.557,10.23 280.925,10.385 265.182,6.607C234.726,-0.703 224.736,-1.271 195,2.612M232.5,37.536C223.15,38.226 215.374,38.838 215.22,38.896C215.066,38.953 215.897,40.294 217.065,41.875C219.742,45.495 219.742,46.795 217.051,73.5C215.031,93.554 214.076,98.41 212.47,96.804C211.524,95.857 200.704,53.787 200.235,49.231C199.942,46.384 200.324,44.154 201.382,42.539C202.962,40.128 202.951,40.115 198.734,39.491C193.809,38.763 180.068,40.285 177.358,41.859C175.785,42.773 176.073,42.944 179.234,42.97C181.89,42.991 183.83,43.794 185.953,45.75C188.513,48.109 189.447,50.561 192.526,63C197.006,81.102 207.78,116.992 209.337,119C211.201,121.404 213.385,122.934 215,122.967C216.239,122.992 217.244,116.083 220.769,83.329C223.116,61.511 225.534,43.062 226.141,42.33C227.695,40.457 231.408,40.677 233.219,42.75C234.991,44.777 235.953,62.48 236.111,95.957C236.216,118.252 236.577,116.694 230.369,120.708C228.877,121.672 231.125,121.807 241.5,121.375C257.659,120.702 258.13,120.562 253.874,117.697C247.888,113.667 247.679,112.531 246.645,78.264L245.701,47.029L248.351,41.922C251.228,36.376 251.375,35.93 250.25,36.14C249.838,36.217 241.85,36.845 232.5,37.536M285.472,175.376C281.637,177.232 277.264,180.068 275.752,181.678C270.484,187.29 263.995,209.186 264.006,221.315C264.013,229.52 265.455,234.31 269.203,238.578C272.739,242.606 276.123,244.55 283.308,246.684C286.087,247.509 292.153,250.235 296.789,252.742C301.425,255.248 309.538,258.999 314.819,261.076C324.031,264.699 324.562,264.792 327.96,263.375C333.033,261.259 337.896,256.163 339.026,251.778C339.562,249.7 340.452,246.255 341.004,244.122C341.602,241.808 344.144,237.85 347.306,234.305C355.175,225.486 355.64,223.857 353.685,211.943C352.791,206.5 351.034,199.898 349.78,197.273C347.64,192.794 346.976,192.278 339,188.892C331.57,185.738 294.063,172 292.882,172C292.641,172 289.306,173.519 285.472,175.376M126.5,176.438C121,177.681 112.248,179.665 107.05,180.848C89.97,184.735 79.736,191.077 75.351,200.493C71.098,209.625 72.757,216.867 81.384,226.832C86.729,233.006 86.953,234.607 84.281,247.587C82.589,255.805 82.595,255.98 84.61,258.68C87.369,262.374 94.487,266 98.982,266C110.605,266 141.792,249.137 155.791,235.284C165.366,225.809 169.566,213.014 167.92,198.334C166.774,188.114 165.301,183.368 162.199,179.897C159.731,177.135 158.583,176.75 148.998,175.468C136.413,173.784 138.67,173.687 126.5,176.438M207.668,218.75C207.42,219.162 205.566,225.793 203.548,233.485C201.53,241.176 198.511,250.626 196.839,254.485C190.765,268.5 189.936,271.32 188.842,281.685C188.011,289.569 188.026,295.15 188.904,303.81C190.928,323.774 193.13,325.113 204.979,313.582C212.779,305.992 218.037,302.752 220.948,303.743C221.801,304.033 226.681,308.373 231.791,313.386L241.082,322.5L243.063,320C258.992,299.899 260.217,290.545 250.112,266.186C243.975,251.392 241.379,243.323 239.918,234.5C237.594,220.463 234.736,217.857 229.129,224.659L226.113,228.319L217.48,223.159C208.112,217.56 208.325,217.656 207.668,218.75M23.046,350.976C21.175,354.622 19.622,364.151 19.598,372.137C19.574,380.023 19.819,381.131 22.416,384.879C29.716,395.413 43.423,399.803 60.354,397.03C69.473,395.536 108.052,393.592 112.38,394.408C119.002,395.656 115.041,397.123 102.356,398.122C95.835,398.635 86.675,399.703 82,400.496C60.864,404.078 54.768,404.94 43.969,405.875C37.627,406.424 30.202,407.701 27.469,408.714L22.5,410.556L21.661,421.001C20.989,429.378 21.141,432.735 22.429,437.955C24.841,447.727 25.099,447.855 36.736,445.03C44.668,443.105 50.629,442.516 68.5,441.893C86.958,441.249 92.191,440.713 101,438.564C106.775,437.154 115.662,435.024 120.75,433.829L130,431.657L130,425.964C130,418.121 132.694,414.532 137.855,415.501C144.802,416.804 146.773,418.582 150.631,427.022C152.637,431.41 154.666,435 155.139,435C156.259,435 156.256,434.977 154.5,430C152.616,424.659 152.601,420.89 154.449,416.468C156.104,412.507 157.744,412.212 167.375,414.146C171.959,415.067 173.581,415.027 175.607,413.943C180.437,411.358 181.406,413.261 182.306,427.102C183.268,441.908 183.691,444.269 185.287,443.74C186.062,443.484 186.753,439.76 187.202,433.419C187.967,422.6 189.521,415.643 191.548,413.96C192.503,413.168 193.946,413.442 196.988,414.994L201.128,417.106L200.422,425.2C199.902,431.163 200.017,433.108 200.858,432.588C201.576,432.144 202,428.564 202,422.941C202,415.202 202.281,413.719 204.092,411.908C205.478,410.522 206.914,410.011 208.342,410.394C209.529,410.712 211.017,410.979 211.65,410.986C212.282,410.994 215.154,412.769 218.031,414.931L223.264,418.863L226.5,415.431C229.998,411.722 233.733,411.01 238.44,413.155C240.623,414.149 240.911,414.808 240.516,417.905C240.263,419.882 239.783,424.542 239.448,428.259C238.751,435.998 237.323,438 232.5,438C228.946,438 226.541,436.281 225.498,432.994C224.586,430.12 223.599,430.521 221.682,434.541L219.993,438.083L229.517,442.687C234.755,445.22 239.192,447.114 239.376,446.896C240.274,445.836 249,419.63 249,417.996C249,416.963 249.371,415.889 249.825,415.608C250.698,415.069 260.643,417.356 265.209,419.147L267.919,420.209L264.385,426.955C261.888,431.721 260.946,434.699 261.176,437.101C261.462,440.105 261.997,440.672 265.776,441.978C272.591,444.334 273.318,443.329 274.519,429.898C275.08,423.629 275.894,417.938 276.328,417.25C277.22,415.839 281.823,415.601 283.814,416.864C284.625,417.378 285.459,421.231 285.995,426.946C287.241,440.233 287.993,439.992 289.941,425.682C290.451,421.932 291.403,418.219 292.057,417.432C293.595,415.578 307.848,415.436 310.325,417.25C311.292,417.959 313.165,422.7 314.648,428.2C317.009,436.949 317.522,437.954 319.883,438.453C334.838,441.615 395.547,444.383 399.818,442.098C402.158,440.845 406.589,432.307 407.649,427.006C408.499,422.754 406.335,415.862 402.804,411.579C400.115,408.317 399.458,408.011 396.373,408.59C394.483,408.944 389.463,408.736 385.218,408.127C380.973,407.518 366.7,406.561 353.5,405.999C316.31,404.416 313.369,403.624 331.097,399.967C339.214,398.292 344.751,398.024 371.595,398.013C406.632,397.998 404.375,398.503 407.653,389.95C410.152,383.431 410.2,363.486 407.727,359.708L405.954,357L377.227,356.997C361.427,356.995 340.729,356.699 331.232,356.339L313.963,355.684L312.322,359.863C311.255,362.578 309.899,364.238 308.452,364.601C306.276,365.148 306.256,365.283 307.6,370.33C309.226,376.439 309.33,381.855 307.938,387.895C307.046,391.762 307.17,392.552 308.962,394.46C314.665,400.53 308.144,410.024 298.3,409.985C292.444,409.961 291.607,409.044 293.049,404.231C293.716,402.004 293.963,398.99 293.598,397.535C292.994,395.128 292.552,394.916 288.723,395.194C284.545,395.498 284.492,395.551 281.927,402C279.801,407.346 278.897,408.553 276.836,408.801C275.457,408.966 273.842,408.515 273.247,407.798C272.639,407.065 272.02,400.877 271.833,393.66C271.511,381.264 271.579,380.762 273.81,378.954L276.12,377.082L268.173,373.087C260.335,369.146 260.203,369.118 258.458,371.046C255.743,374.047 252.787,373.417 245.949,368.383C238.713,363.057 234.252,362.032 228.592,364.397C223.127,366.681 219.742,366.419 217,363.5C214.172,360.49 212.607,360.378 209.337,362.949C207.974,364.021 204.753,365.195 202.18,365.558C195.938,366.437 193.211,368.322 190.938,373.328C188.651,378.366 188.516,384.294 190.457,394.441C191.259,398.631 191.663,402.715 191.355,403.518C190.34,406.162 183.456,407.284 178.022,405.691C173.46,404.354 173.055,404.39 171.146,406.299L169.117,408.327L165.55,405.606C160.078,401.432 158.042,396.454 157.321,385.485C156.979,380.268 156.527,376 156.317,376C156.107,376 154.422,376.633 152.572,377.406L149.207,378.811L152.66,388.004C154.559,393.06 155.975,398.165 155.807,399.349C155.533,401.268 154.852,401.508 149.5,401.572C146.2,401.611 142.104,402.247 140.397,402.985C138.691,403.723 136.599,404.06 135.748,403.734C134.897,403.407 132.356,399.345 130.101,394.707C125.784,385.829 125.041,380.279 126.859,370.5C127.472,367.202 125.887,353.554 124.76,352.427C124.604,352.27 105.131,351.653 81.488,351.054C57.844,350.456 35.199,349.851 31.164,349.71C25.416,349.508 23.659,349.782 23.046,350.976M8.578,359.25C7.822,362.943 6,376.93 6,379.041C6,380.118 6.619,381 7.376,381C8.317,381 8.892,379.312 9.195,375.658C9.478,372.245 10.47,369.149 11.942,367.082C13.209,365.303 14.593,362.306 15.017,360.424C15.778,357.049 15.741,357 12.414,357C9.716,357 8.946,357.452 8.578,359.25M415.18,369.491C415.458,373.846 416.118,376.397 417.186,377.241C418.063,377.934 419.314,380.188 419.967,382.25C420.621,384.313 421.57,386 422.078,386C423.188,386 423.191,376.389 422.083,369.647C421.267,364.679 419.922,363.042 416.634,363.015C414.96,363.002 414.81,363.67 415.18,369.491M233.25,366.253C232.012,366.832 231,367.771 231,368.339C231,368.908 229.016,373.677 226.592,378.937C220.979,391.114 219.712,400.093 223.015,404.292C224.408,406.063 226.097,407 227.894,407C230.822,407 239.755,404.297 241.614,402.848C242.801,401.924 244.525,392.157 245.602,380.257C246.325,372.261 245.412,370 241.461,370C240.199,370 238.342,368.92 237.333,367.6C235.794,365.586 235.139,365.369 233.25,366.253M203.236,369.173C199.033,371.245 196.834,372.958 196.55,374.38C196.318,375.546 195.883,382.894 195.584,390.709L195.041,404.917L198.771,405.953C204.225,407.468 213.199,407.249 215.636,405.543C218.753,403.359 219.596,391.717 217.386,381.361C216.464,377.037 215.432,371.925 215.093,370C214.271,365.333 211.427,365.135 203.236,369.173M171,368.658C170.175,368.933 168.926,369.338 168.225,369.558C167.31,369.844 167.845,371.731 170.115,376.227L173.28,382.498L174.625,377.999C176.551,371.556 176.416,367.981 174.25,368.079C173.287,368.122 171.825,368.383 171,368.658M253.641,375.75C253.37,376.712 252.619,382.991 251.973,389.701L250.799,401.903L255.056,406.951C260.061,412.886 262.842,413.435 265.932,409.096C267.794,406.48 268,404.748 268,391.667C268,374.525 267.747,374 259.496,374C255.245,374 254.033,374.362 253.641,375.75M411.473,415.748C411.852,417.259 412.238,418.544 412.331,418.603C412.424,418.662 414.637,419.423 417.25,420.294C421.953,421.863 422,421.857 421.986,419.689C421.951,413.959 421.061,413 415.775,413C410.83,413 410.79,413.026 411.473,415.748M11.618,415.462L8.737,416.479L9.329,424.866C9.654,429.479 10.176,433.509 10.488,433.821C10.8,434.134 11.963,433.482 13.071,432.373C14.813,430.631 15.047,429.279 14.793,422.402L14.5,414.446L11.618,415.462M164.087,433.104C163.411,435.361 162.64,437.775 162.374,438.468C162.108,439.161 164.043,441.322 166.674,443.271C171.21,446.63 171.603,446.74 174.239,445.376L177.019,443.939L171.979,436.469C169.207,432.361 166.574,429 166.128,429C165.682,429 164.763,430.847 164.087,433.104M122.75,438.728C120.688,438.944 119,439.431 119.001,439.81C119.002,440.19 121.203,441.736 123.894,443.247C128.661,445.925 128.842,445.949 131.02,444.185C132.657,442.86 133.068,441.791 132.56,440.188C131.841,437.923 131.266,437.838 122.75,438.728" style="fill:rgb(28,28,28);"/>
    </g>
</svg>
