<?xml version="1.0" encoding="UTF-8" standalone="no"?>
<!DOCTYPE svg PUBLIC "-//W3C//DTD SVG 1.1//EN" "http://www.w3.org/Graphics/SVG/1.1/DTD/svg11.dtd">
<svg width="100%" height="100%" viewBox="0 0 397 530" version="1.1" xmlns="http://www.w3.org/2000/svg" xmlns:xlink="http://www.w3.org/1999/xlink" xml:space="preserve" xmlns:serif="http://www.serif.com/" style="fill-rule:evenodd;clip-rule:evenodd;stroke-linejoin:round;stroke-miterlimit:2;">
    <g id="svgPath">
        <path d="M199.126,1.17C183.469,2.396 157.046,6.762 149.34,9.396C116.598,20.586 77.288,39.426 60.438,52.003C52.095,58.23 37.527,75.57 29.727,88.557C21.514,102.232 14.48,122.431 11.607,140.585C9.757,152.274 8.914,154.962 4.354,163.71C1.526,169.136 1,171.192 1,176.823C1,185.14 3.722,201.988 9.577,229.915C16.014,260.616 15.289,258.581 21.037,262.118C23.753,263.789 26.93,266.497 28.097,268.136L30.219,271.116L25.45,278.808C22.827,283.039 19.81,287.959 18.746,289.742C17.315,292.141 16.688,295.519 16.334,302.742C15.914,311.3 16.103,312.89 17.865,315.671C20.409,319.685 26.829,323.455 38.029,327.511C42.87,329.263 48.556,332.057 50.665,333.718C55.074,337.191 64.227,342 66.428,342C68.673,342 71.455,338.55 74.976,331.397C77.025,327.235 78.557,325.215 79.32,325.667C87.039,330.233 107.219,344.463 108.768,346.432C112.217,350.816 114.352,361.941 113.545,371.319C113.157,375.818 112.799,380.85 112.749,382.5C112.625,386.617 120.738,403.782 123.173,404.555C124.24,404.893 126.79,404.269 128.959,403.138C132.174,401.463 133.463,401.289 136.487,402.124C140.436,403.214 143,402.081 143,399.246C143,398.416 141.601,393.664 139.892,388.684C136.935,380.072 136.871,379.568 138.583,378.316C142.775,375.25 143.66,376.433 144.34,386.007C145.064,396.206 146.491,400.329 150.627,404.166C154.12,407.407 155.794,407.81 158.821,406.137C160.568,405.171 161.903,405.119 164.22,405.927C171.612,408.504 179.958,405.759 178.595,401.199C178.315,400.264 177.564,396.422 176.925,392.659C174.132,376.217 179.025,366.019 189.718,365.993C191.248,365.99 193.85,365.093 195.5,364C199.4,361.417 200.601,361.487 204.182,364.5C207.769,367.518 208.488,367.549 215.74,365C218.87,363.9 221.942,363 222.567,363C223.191,363 227.622,365.539 232.413,368.642L241.123,374.285L244.2,372.01L247.278,369.735L255.129,373.563L262.981,377.391L260.859,379.651C258.576,382.08 258.46,383.117 258.789,398.215C258.976,406.847 259.227,408.051 261.038,409.02C264.708,410.985 266.73,409.32 269.015,402.454C270.197,398.904 271.745,396 272.457,396C273.168,396 275.126,395.725 276.809,395.388C279.686,394.813 279.907,394.99 280.54,398.363C280.915,400.359 280.708,403.398 280.075,405.215C278.519,409.678 280.731,411.386 286.897,410.48C292.239,409.694 294.27,408.506 296.384,404.928C298.541,401.275 298.422,397.807 296.035,394.772C294.242,392.492 294.171,391.732 295.226,386.061C296.34,380.068 295.939,375.883 293.423,367.25C292.898,365.45 293.165,365 294.761,365C297.36,365 298.073,363.946 301.459,355.105C305.077,345.656 309.165,341.561 320.586,335.946C325.489,333.535 329.778,331.419 330.118,331.242C330.458,331.066 331.754,333.43 332.998,336.495C335.295,342.154 338.036,345 341.189,345C342.148,345 349.002,342.068 356.42,338.484C363.839,334.901 371.391,331.691 373.204,331.353C378.462,330.371 382.534,327.354 385.081,322.553L387.448,318.092L384.204,304.796C380.103,287.986 380.116,285.786 384.358,279.487C386.205,276.744 389.629,271.375 391.966,267.555L396.217,260.61L395.135,250.055C394.539,244.25 393.582,222.4 393.007,201.5C391.979,164.153 390.162,137.145 388.039,127.674C385.162,114.838 371.466,92.077 355.95,74.345C343.136,59.703 310.097,33.513 292.561,24.098C267.559,10.675 266.53,10.262 247.515,5.982C237.623,3.756 226.148,1.703 222.015,1.419C217.882,1.135 213.375,0.78 212,0.63C210.625,0.48 204.832,0.723 199.126,1.17M170.5,44.927L163.5,45.5L167.5,47.5C169.7,48.6 172.022,50.625 172.66,52C174.032,54.959 175.548,108.898 174.307,110.617C173.863,111.231 171.25,112.898 168.5,114.32L163.5,116.907L174.587,116.953C195.364,117.041 243,115.68 243,115C243,114.626 241.897,113.818 240.548,113.204C235.534,110.919 235.135,108.512 234.805,78.579L234.5,50.844L237.306,48.422C238.849,47.09 241.185,46 242.497,46C243.809,46 245.16,45.55 245.5,45C246.161,43.93 183.414,43.869 170.5,44.927M187.649,47.268C186.058,48.431 185.939,51.058 186.208,79.189L186.5,109.842L188.924,112.421C192.094,115.793 196.39,115.861 198.544,112.573C199.928,110.461 200.093,106.246 199.817,80.176C199.523,52.361 199.363,50.055 197.595,48.103C195.433,45.716 190.354,45.289 187.649,47.268M215.225,46.709C213.974,46.949 212.236,48.237 211.362,49.571C209.959,51.711 209.859,55.234 210.509,79.49C211.317,109.683 211.991,113.24 217,113.759C222.363,114.315 222.339,114.438 223.102,82.385C223.491,66.02 223.424,51.616 222.953,50.376C222.229,48.472 218.855,45.688 217.816,46.136C217.642,46.211 216.476,46.469 215.225,46.709M97.105,162.082C91.155,163.251 84,166.057 84,167.222C84,167.745 86.337,172.634 89.193,178.087C94.892,188.967 94.51,188.737 103.455,186.654L108.409,185.5L111.13,175.5C115.173,160.637 115.253,160.978 107.75,161.11C104.313,161.17 99.522,161.607 97.105,162.082M287.5,162.022C278.785,163.771 265.342,170.431 264.331,173.5C264.15,174.05 265.464,176.138 267.251,178.14C274.727,186.514 280.132,192 280.907,192C281.361,192 284.043,191.04 286.867,189.867L292,187.733L292,174.367C292,167.015 291.887,161.049 291.75,161.11C291.613,161.17 289.7,161.58 287.5,162.022M300,173.867L300,186.733L305.133,188.867C307.957,190.04 310.801,191 311.455,191C312.108,191 316.637,186.891 321.518,181.869L330.394,172.737L327.947,170.719C322.834,166.503 307.474,161 300.816,161C300.367,161 300,166.79 300,173.867M121.431,164.319C121.165,165.011 119.66,170.498 118.087,176.512C114.916,188.629 114.732,187.84 121.622,191.609L124.744,193.317L135.122,186.541C140.83,182.815 145.657,179.624 145.848,179.451C146.761,178.627 141.895,173.767 136.5,170.115C129.169,165.152 122.148,162.451 121.431,164.319M70.027,176.75C64.281,182.68 59.605,189.74 58.496,194.162L57.861,196.689L70.467,198.515C82.848,200.309 83.097,200.307 84.455,198.421C85.215,197.364 86.518,195.6 87.351,194.5C88.75,192.65 88.44,191.692 83.224,181.75C80.122,175.838 77.137,171 76.591,171C76.045,171 73.091,173.588 70.027,176.75M326.25,186.939C321.712,191.711 318,196.139 318,196.779C318,197.419 319.1,200.431 320.445,203.471L322.89,209L336.445,209C351.902,209 351.23,209.51 348.388,199.932C345.536,190.316 338.229,177.83 335.631,178.131C335.009,178.203 330.788,182.167 326.25,186.939M255.068,182.914C250.764,188.349 246.219,199.289 245.411,206.159L244.768,211.627L254.134,211.283C271.736,210.637 271.185,210.847 273.737,203.841L275.962,197.732L270.569,192.116C267.603,189.027 263.642,184.758 261.768,182.629L258.359,178.758L255.068,182.914M142.5,190.075C138.1,192.888 133.343,196.279 131.929,197.61C129.378,200.013 129.367,200.086 130.537,207.539C131.184,211.669 131.913,215.246 132.156,215.489C133.061,216.394 158.187,220.003 159.205,219.374C160.855,218.354 159.454,203.372 157.066,196.5C155.919,193.2 153.972,189.254 152.74,187.731L150.5,184.961L142.5,190.075M97.5,192.408C93.109,194.354 89.17,198.41 86.975,203.246C77.641,223.808 103.253,242.511 120.012,227.37C130.785,217.637 128.681,199.987 115.944,193.252C111.035,190.656 102.349,190.259 97.5,192.408M291.764,191.996C284.215,194.269 278.145,200.953 276.509,208.794C274.868,216.661 280.677,227.721 288.368,231.37C292.801,233.474 302.199,233.474 306.632,231.37C314.321,227.722 319.853,217.298 318.41,209.18C316.192,196.71 303.434,188.482 291.764,191.996M55.537,205.25C53.509,211.584 55.029,226.066 58.533,233.799L60.934,239.098L68.217,233.94C72.223,231.103 77.208,227.633 79.295,226.228C81.382,224.824 82.87,223.104 82.602,222.405C82.334,221.707 81.812,218.46 81.442,215.19C81.072,211.92 80.468,208.757 80.1,208.161C79.463,207.131 63.049,204.013 58.219,204.004C56.964,204.002 55.757,204.563 55.537,205.25M321.018,220.458C319.967,222.91 318.97,225.679 318.803,226.611C318.606,227.715 322.121,231.458 328.877,237.339C338.771,245.953 339.322,246.283 340.707,244.436C345.396,238.185 349.964,225.79 349.988,219.25L350,216L322.929,216L321.018,220.458M256.785,217.958C250.892,218.309 245.827,218.84 245.53,219.136C245.233,219.433 245.443,222.112 245.997,225.088C247.187,231.487 251.821,240.983 256.349,246.301L259.585,250.102L277.861,229.756L274.716,223.378C272.295,218.469 271.102,217.037 269.535,217.16C268.416,217.247 262.678,217.607 256.785,217.958M193.131,224.787C192.068,228.479 190.025,235.698 188.59,240.828C187.155,245.959 183.986,254.738 181.547,260.339C177.734,269.096 176.947,272.111 175.923,281.888C173.818,301.991 176.759,320.721 182.188,321.791C183,321.951 186.507,319.318 189.981,315.939C198.068,308.075 203.716,304 206.527,304C208.008,304 211.719,307.013 217.61,313C222.482,317.95 226.995,322 227.639,322C228.283,322 231.057,318.962 233.802,315.25C246.795,297.677 246.986,291.631 235.461,262.5C231.122,251.533 228.488,243.072 227.088,235.604C225.965,229.611 224.335,223.923 223.466,222.962C221.396,220.675 218.421,221.512 215.742,225.135C214.577,226.711 213.229,228 212.746,228C212.264,228 208.088,225.767 203.466,223.037L195.063,218.073L193.131,224.787M127.188,225.96C125.985,227.587 125,229.135 125,229.398C125,230.363 141.192,253 141.882,253C143.289,253 149.881,245.4 152.768,240.449C155.712,235.4 158.528,228.194 157.829,227.496C157.328,226.995 133.779,223 131.327,223C130.254,223 128.391,224.332 127.188,225.96M76.285,236.838C71.216,240.502 66.535,244.042 65.881,244.704C64.088,246.52 75.057,256.756 83.03,260.705C93.643,265.963 93.09,266.322 95.668,252.5C98.748,235.991 98.844,236.691 92.985,233.086C90.227,231.389 87.414,230.04 86.735,230.088C86.056,230.136 81.353,233.174 76.285,236.838M308.032,235.122C305.574,236.212 303.403,237.263 303.208,237.458C302.872,237.795 305.463,257.406 306.616,263.249C307.242,266.422 308.636,266.332 317.832,262.527C323.101,260.347 333.984,253.137 333.995,251.82C334,251.14 313.454,232.938 312.831,233.071C312.649,233.109 310.489,234.033 308.032,235.122M112,235.738C108.975,236.606 106.328,237.453 106.119,237.622C105.777,237.897 100.148,264.42 100.043,266.25C99.98,267.352 109.726,267.163 116.566,265.931C122.717,264.822 136.27,259.209 135.779,257.973C134.772,255.436 119.308,234.09 118.5,234.122C117.95,234.144 115.025,234.871 112,235.738M273.552,245.167C263.262,256.749 263.13,255.634 275.5,261.603C281.807,264.647 298.096,268.237 299.451,266.883C299.903,266.431 296.396,239.017 295.827,238.555C294.947,237.84 285.446,235.006 284.072,235.048C283.207,235.075 278.474,239.628 273.552,245.167M35.646,345.25C33.701,356.218 33.78,358.755 36.341,367.622C37.752,372.505 39.217,378.268 39.598,380.43C40.036,382.915 41.658,385.856 44.011,388.43C48.813,393.682 49.995,396.119 54.475,410C61.95,433.163 64.942,455.49 61.628,463.372C60.721,465.528 60,469.964 60,473.381L60,479.519L70.75,485.436C84.183,492.83 97.305,501.089 111.5,511.084C123.165,519.297 133.013,524.612 141.956,527.522C146.958,529.15 150.29,529.233 181.956,528.515C223.156,527.582 230.392,527.647 252.209,529.138L268.917,530.28L279.209,525.258C284.869,522.496 293.775,518.157 299,515.614C310.195,510.168 345.834,488.21 347.33,485.838C348.061,484.68 347.968,482.535 347.016,478.565C345.892,473.881 345.875,468.356 346.914,445.717C347.6,430.748 348.571,416.325 349.071,413.668C349.571,411.01 352.42,404.26 355.402,398.668C361.54,387.159 372,357.758 372,352.015C372,348.514 371.685,348.091 367.98,346.609C362.263,344.321 360.16,344.578 354.835,348.212C350.314,351.297 348,354.457 348,357.547C348,359.593 346.124,359.374 338.069,356.388C334.194,354.952 330.367,354.029 329.564,354.337C326.917,355.353 325.001,360.781 321.479,377.24C317.609,395.326 317.234,400.496 319.602,403.113C321.084,404.75 320.81,406.075 315.967,420.692C309.517,440.16 309.672,439.851 306.652,439.274C304.546,438.871 303.942,437.695 301.976,430.156C298.515,416.883 298.639,417 287.952,417C277.498,417 277.76,416.735 276.591,428.5C275.369,440.796 273.855,439.14 272.551,424.081C272.245,420.551 271.851,417.518 271.675,417.341C270.74,416.407 265.306,416.074 264.095,416.877C263.119,417.525 262.407,421.425 261.762,429.655C260.649,443.856 260.017,444.919 253.793,443.061C251.432,442.356 249.169,441.266 248.765,440.639C247.245,438.281 248.135,433.321 251.018,428.09C252.658,425.115 254,422.095 254,421.379C254,420.123 247.495,417.746 240.432,416.421C237.977,415.961 236.928,416.162 236.688,417.141C236.211,419.088 226.753,447.438 226.456,447.812C226.243,448.081 208.069,439.282 207.176,438.477C206.998,438.317 207.579,436.781 208.467,435.065L210.081,431.943L213.408,435.472C217.14,439.428 220.56,440.008 223.893,437.25C225.672,435.778 226.148,433.834 226.89,425C227.376,419.225 227.572,414.163 227.327,413.75C227.082,413.337 224.494,413 221.576,413C215.946,413 211,415.648 211,418.661C211,419.765 210.115,419.431 207.75,417.434C203.608,413.938 197.292,411.05 193.725,411.022C189.974,410.992 189,413.887 189,425.065C189,430.901 188.618,434 187.899,434C187.159,434 186.913,431.319 187.149,425.824L187.5,417.647L184.124,415.658C181.715,414.239 180.304,413.949 179.198,414.647C177.118,415.959 173.916,427.399 174.061,433C174.299,442.198 174.044,444 172.5,444C171.675,444 170.947,443.887 170.883,443.75C170.819,443.613 170.256,436.975 169.633,429L168.5,414.5L165.69,414.178C164.144,414.001 162.29,414.344 161.57,414.942C160.621,415.729 158.286,415.612 153.065,414.514C148.144,413.478 145.29,413.309 144.04,413.979C140.606,415.816 138.816,424.92 141.063,429.117C141.647,430.21 141.958,432.092 141.752,433.302C141.473,434.948 140.477,433.576 137.786,427.836C133.63,418.973 130.81,416.635 124.176,416.555C120.27,416.508 119.406,416.868 118.312,419C116.503,422.526 116.687,433.176 118.641,438.061C120.224,442.017 120.208,442.237 118.193,444.252L116.103,446.341L105.203,441.054L94.304,435.766L97.749,429.052L101.193,422.338L92.489,403.919C87.702,393.788 83.158,383.756 82.392,381.624C80.777,377.128 80.571,369.259 81.972,365.574C83.363,361.915 82.626,360.802 76.255,356.941C68.951,352.514 62.283,352.187 57.107,356C55.037,357.525 53.559,358.065 53.319,357.386C51.541,352.368 46.577,346.801 41.847,344.519C38.975,343.133 36.535,342 36.424,342C36.313,342 35.963,343.462 35.646,345.25M191.581,369.013C188.325,370.606 185.118,372.493 184.454,373.205C183.677,374.038 183.032,380.077 182.645,390.124L182.044,405.749L188.125,406.945C194.278,408.155 201.461,407.613 203.75,405.764C205.384,404.445 205.483,381.772 203.869,378.755C203.247,377.593 202.459,374.36 202.119,371.571C201.352,365.287 199.908,364.936 191.581,369.013M219.75,367.08C218.787,367.641 218,368.518 218,369.03C218,369.543 216.147,373.908 213.882,378.731C206.657,394.116 206.488,405.829 213.467,407.581C216.786,408.414 228.763,404.358 229.402,402.184C230.37,398.888 231.944,388.384 232.592,380.894C233.216,373.682 233.128,373.203 230.902,371.644C229.611,370.74 227.785,370 226.845,370C225.904,370 224.849,369.1 224.5,368C223.801,365.798 222.413,365.529 219.75,367.08M157.5,369.216C155.85,369.798 154.343,370.407 154.151,370.569C153.62,371.018 159.218,381 160.001,381C160.936,381 163,373.867 163,370.634C163,367.787 162.164,367.571 157.5,369.216M240.568,377.25C240.31,378.488 239.588,384.846 238.964,391.379L237.83,403.259L242.627,408.129C245.266,410.808 248.236,413 249.227,413C250.218,413 251.921,411.538 253.011,409.75C254.733,406.925 254.993,404.693 254.996,392.684C254.998,385.065 254.536,378.001 253.965,376.934C253.12,375.355 251.839,375 246.984,375C241.624,375 240.992,375.222 240.568,377.25M152.54,430.107C150.444,435.868 149.02,440.336 149.239,440.463C149.383,440.546 151.365,442.051 153.644,443.807C158.179,447.301 159.735,447.646 162.348,445.735C163.934,444.575 163.649,443.845 158.936,436.985C152.716,427.931 153.159,428.406 152.54,430.107" style="fill:rgb(28,28,28);"/>
    </g>
</svg>
