<?xml version="1.0" encoding="UTF-8" standalone="no"?>
<!DOCTYPE svg PUBLIC "-//W3C//DTD SVG 1.1//EN" "http://www.w3.org/Graphics/SVG/1.1/DTD/svg11.dtd">
<svg width="100%" height="100%" viewBox="0 0 397 557" version="1.1" xmlns="http://www.w3.org/2000/svg" xmlns:xlink="http://www.w3.org/1999/xlink" xml:space="preserve" xmlns:serif="http://www.serif.com/" style="fill-rule:evenodd;clip-rule:evenodd;stroke-linejoin:round;stroke-miterlimit:2;">
    <g transform="matrix(1,0,0,1,-123.319,-155.652)">
        <g transform="matrix(1,0,0,1,123.677,155.067)">
            <g transform="matrix(1,0,0,1,-112.733,-150.5)">
                <path d="M348.095,571.874L402.151,670.781L411.733,666.114C422.928,660.668 458.567,638.71 460.063,636.338C460.794,635.18 460.701,633.035 459.749,629.065C458.625,624.381 458.608,618.856 459.647,596.217C460.333,581.248 461.304,566.825 461.804,564.168C462.304,561.51 465.153,554.76 468.135,549.168C474.273,537.659 484.733,508.258 484.733,502.515C484.733,499.014 484.418,498.591 480.713,497.109C474.996,494.821 472.893,495.078 467.568,498.712C463.047,501.797 460.733,504.957 460.733,508.047C460.733,510.093 458.857,509.874 450.802,506.888C446.927,505.452 443.1,504.529 442.297,504.837C439.65,505.853 437.734,511.281 434.212,527.74C430.342,545.826 429.967,550.996 432.335,553.613C433.817,555.25 433.543,556.575 428.7,571.192C422.25,590.66 422.405,590.351 419.385,589.774C417.279,589.371 416.675,588.195 414.709,580.656C411.248,567.383 411.372,567.5 400.685,567.5C390.231,567.5 390.493,567.235 389.324,579C388.102,591.296 386.588,589.64 385.284,574.581C384.978,571.051 384.584,568.018 384.408,567.841C383.473,566.907 378.039,566.574 376.828,567.377C375.852,568.025 375.14,571.925 374.495,580.155C373.382,594.356 372.75,595.419 366.526,593.561C364.165,592.856 361.902,591.766 361.498,591.139C359.978,588.781 360.868,583.821 363.751,578.59C365.391,575.615 366.733,572.595 366.733,571.879C366.733,570.623 360.228,568.246 353.165,566.921C350.71,566.461 349.661,566.662 349.421,567.641C349.321,568.051 348.822,569.631 348.095,571.874ZM353.301,527.75C353.043,528.988 352.321,535.346 351.697,541.879L350.563,553.759L355.36,558.629C357.999,561.308 360.969,563.5 361.96,563.5C362.951,563.5 364.654,562.038 365.744,560.25C367.466,557.425 367.726,555.193 367.729,543.184C367.731,535.565 367.269,528.501 366.698,527.434C365.853,525.855 364.572,525.5 359.717,525.5C354.357,525.5 353.725,525.722 353.301,527.75ZM155.932,220.272L206.773,313.296C207.802,313.022 208.837,312.779 209.838,312.582C212.255,312.107 217.046,311.67 220.483,311.61C227.986,311.478 227.906,311.137 223.863,326L221.142,336L219.403,336.405L222.371,341.836C224.722,342.188 226.937,342.832 228.677,343.752C238.603,349.001 242.071,360.878 238.02,370.47L240.758,375.478C241.875,374.329 243.214,373.5 244.06,373.5C246.512,373.5 270.061,377.495 270.562,377.996C271.261,378.694 268.445,385.9 265.501,390.949C263.105,395.058 258.157,400.991 255.739,402.89L290.774,466.993C288.181,459.852 287.183,446.456 288.656,432.388C289.68,422.611 290.467,419.596 294.28,410.839C296.719,405.238 299.888,396.459 301.323,391.328C302.758,386.198 304.801,378.979 305.864,375.287L307.796,368.573L316.199,373.537C320.821,376.267 324.997,378.5 325.479,378.5C325.962,378.5 327.31,377.211 328.475,375.635C331.154,372.012 334.129,371.175 336.199,373.462C337.068,374.423 338.698,380.111 339.821,386.104C341.221,393.572 343.855,402.033 348.194,413C359.719,442.131 359.528,448.177 346.535,465.75C343.79,469.462 341.016,472.5 340.372,472.5C339.728,472.5 335.215,468.45 330.343,463.5C324.452,457.513 320.741,454.5 319.26,454.5C316.449,454.5 310.801,458.575 302.714,466.439C299.24,469.818 295.733,472.451 294.921,472.291C294.25,472.159 293.617,471.757 293.026,471.115L317.092,515.148C320.528,518.018 321.342,518.006 328.473,515.5C331.603,514.4 334.675,513.5 335.3,513.5C335.924,513.5 340.355,516.039 345.146,519.142L353.856,524.785L356.933,522.51L360.011,520.235L367.862,524.063L375.714,527.891L373.592,530.151C371.309,532.58 371.193,533.617 371.522,548.715C371.709,557.347 371.96,558.551 373.771,559.52C377.441,561.485 379.463,559.82 381.748,552.954C382.93,549.404 384.478,546.5 385.19,546.5C385.901,546.5 387.859,546.225 389.542,545.888C392.419,545.313 392.64,545.49 393.273,548.863C393.648,550.859 393.441,553.898 392.808,555.715C391.252,560.178 393.464,561.886 399.63,560.98C404.972,560.194 407.003,559.006 409.117,555.428C411.274,551.775 411.155,548.307 408.768,545.272C406.975,542.992 406.904,542.232 407.959,536.561C409.073,530.568 408.672,526.383 406.156,517.75C405.631,515.95 405.898,515.5 407.494,515.5C410.093,515.5 410.806,514.446 414.192,505.605C417.81,496.156 421.898,492.061 433.319,486.446C438.222,484.035 442.511,481.919 442.851,481.742C443.191,481.566 444.487,483.93 445.731,486.995C448.028,492.654 450.769,495.5 453.922,495.5C454.881,495.5 461.735,492.568 469.153,488.984C476.572,485.401 484.124,482.191 485.937,481.853C491.195,480.871 495.267,477.854 497.814,473.053L500.181,468.592L496.937,455.296C492.836,438.486 492.849,436.286 497.091,429.987C498.938,427.244 502.362,421.875 504.699,418.055L508.95,411.11L507.868,400.555C507.272,394.75 506.315,372.9 505.74,352C504.712,314.653 502.895,287.645 500.772,278.174C497.895,265.338 484.199,242.577 468.683,224.845C455.869,210.203 422.83,184.013 405.294,174.598C380.292,161.175 379.263,160.762 360.248,156.482C350.356,154.256 338.881,152.203 334.748,151.919C330.615,151.635 326.108,151.28 324.733,151.13C323.358,150.98 317.565,151.223 311.859,151.67C296.202,152.896 269.779,157.262 262.073,159.896C249.06,164.343 235.009,169.999 221.743,175.99C201.632,185.072 183.324,194.925 173.171,202.503C168.586,205.925 162.12,212.705 155.932,220.272ZM325.785,531.053L338.892,555.035C340.661,554.205 341.938,553.355 342.135,552.684C343.103,549.388 344.677,538.884 345.325,531.394C345.949,524.182 345.861,523.703 343.635,522.144C342.344,521.24 340.518,520.5 339.578,520.5C338.637,520.5 337.582,519.6 337.233,518.5C336.534,516.298 335.146,516.029 332.483,517.58C331.52,518.141 330.733,519.018 330.733,519.53C330.733,520.043 328.88,524.408 326.615,529.231C326.327,529.845 326.05,530.453 325.785,531.053ZM386.285,395.667C375.995,407.249 375.863,406.134 388.233,412.103C394.54,415.147 410.829,418.737 412.184,417.383C412.636,416.931 409.129,389.517 408.56,389.055C407.68,388.34 398.179,385.506 396.805,385.548C395.94,385.575 391.207,390.128 386.285,395.667ZM420.765,385.622C418.307,386.712 416.136,387.763 415.941,387.958C415.605,388.295 418.196,407.906 419.349,413.749C419.975,416.922 421.369,416.832 430.565,413.027C435.834,410.847 446.717,403.637 446.728,402.32C446.733,401.64 426.187,383.438 425.564,383.571C425.382,383.609 423.222,384.533 420.765,385.622ZM369.518,368.458C363.625,368.809 358.56,369.34 358.263,369.636C357.966,369.933 358.176,372.612 358.73,375.588C359.92,381.987 364.554,391.483 369.082,396.801L372.318,400.602L390.594,380.256L387.449,373.878C385.028,368.969 383.835,367.537 382.268,367.66C381.149,367.747 375.411,368.107 369.518,368.458ZM433.751,370.958C432.7,373.41 431.703,376.179 431.536,377.111C431.339,378.215 434.854,381.958 441.61,387.839C451.504,396.453 452.055,396.783 453.44,394.936C458.129,388.685 462.697,376.29 462.721,369.75L462.733,366.5L435.662,366.5L433.751,370.958ZM404.497,342.496C396.948,344.769 390.878,351.453 389.242,359.294C387.601,367.161 393.41,378.221 401.101,381.87C405.534,383.974 414.932,383.974 419.365,381.87C427.054,378.222 432.586,367.798 431.143,359.68C428.925,347.21 416.167,338.982 404.497,342.496ZM255.233,340.575C250.833,343.388 246.076,346.779 244.662,348.11C242.111,350.513 242.1,350.586 243.27,358.039C243.917,362.169 244.646,365.746 244.889,365.989C245.794,366.894 270.92,370.503 271.938,369.874C273.588,368.854 272.187,353.872 269.799,347C268.652,343.7 266.705,339.754 265.473,338.231L263.233,335.461L255.233,340.575ZM367.801,333.414C363.497,338.849 358.952,349.789 358.144,356.659L357.501,362.127L366.867,361.783C384.469,361.137 383.918,361.347 386.47,354.341L388.695,348.232L383.302,342.616C380.336,339.527 376.375,335.258 374.501,333.129L371.092,329.258L367.801,333.414ZM438.983,337.439C434.445,342.211 430.733,346.639 430.733,347.279C430.733,347.919 431.833,350.931 433.178,353.971L435.623,359.5L449.178,359.5C464.635,359.5 463.963,360.01 461.121,350.432C458.269,340.816 450.962,328.33 448.364,328.631C447.742,328.703 443.521,332.667 438.983,337.439ZM234.164,314.819C233.898,315.511 232.393,320.998 230.82,327.012C227.649,339.129 227.465,338.34 234.355,342.109L237.477,343.817L247.855,337.041C253.563,333.315 258.39,330.124 258.581,329.951C259.494,329.127 254.628,324.267 249.233,320.615C241.902,315.652 234.881,312.951 234.164,314.819ZM400.233,312.522C391.518,314.271 378.075,320.931 377.064,324C376.883,324.55 378.197,326.638 379.984,328.64C387.46,337.014 392.865,342.5 393.64,342.5C394.094,342.5 396.776,341.54 399.6,340.367L404.733,338.233L404.733,324.867C404.733,317.515 404.62,311.549 404.483,311.61C404.346,311.67 402.433,312.08 400.233,312.522ZM412.733,324.367L412.733,337.233L417.866,339.367C420.69,340.54 423.534,341.5 424.188,341.5C424.841,341.5 429.37,337.391 434.251,332.369L443.127,323.237L440.68,321.219C435.567,317.003 420.207,311.5 413.549,311.5C413.1,311.5 412.733,317.29 412.733,324.367ZM283.233,195.427L276.233,196L280.233,198C282.433,199.1 284.755,201.125 285.393,202.5C286.765,205.459 288.281,259.398 287.04,261.117C286.596,261.731 283.983,263.398 281.233,264.82L276.233,267.407L287.32,267.453C308.097,267.541 355.733,266.18 355.733,265.5C355.733,265.126 354.63,264.318 353.281,263.704C348.267,261.419 347.868,259.012 347.538,229.079L347.233,201.344L350.039,198.922C351.582,197.59 353.918,196.5 355.23,196.5C356.542,196.5 357.893,196.05 358.233,195.5C358.894,194.43 296.147,194.369 283.233,195.427ZM300.382,197.768C298.791,198.931 298.672,201.558 298.941,229.689L299.233,260.342L301.657,262.921C304.827,266.293 309.123,266.361 311.277,263.073C312.661,260.961 312.826,256.746 312.55,230.676C312.256,202.861 312.096,200.555 310.328,198.603C308.166,196.216 303.087,195.789 300.382,197.768ZM327.958,197.209C326.707,197.449 324.969,198.737 324.095,200.071C322.692,202.211 322.592,205.734 323.242,229.99C324.05,260.183 324.724,263.74 329.733,264.259C335.096,264.815 335.072,264.938 335.835,232.885C336.224,216.52 336.157,202.116 335.686,200.876C334.962,198.972 331.588,196.188 330.549,196.636C330.375,196.711 329.209,196.969 327.958,197.209Z" style="fill:rgb(28,28,28);"/>
            </g>
        </g>
        <g transform="matrix(0.999384,-0.0350973,0.0350973,0.999384,-1.79117,42.1621)">
            <path d="M402.151,670.781L348.095,571.874C345.368,580.284 339.424,598.017 339.189,598.312C338.976,598.581 320.802,589.782 319.909,588.977C319.731,588.817 320.312,587.281 321.2,585.565L322.814,582.443L326.141,585.972C329.873,589.928 333.293,590.508 336.626,587.75C338.405,586.278 338.881,584.334 339.623,575.5C340.109,569.725 340.305,564.663 340.06,564.25C339.815,563.837 337.227,563.5 334.309,563.5C328.679,563.5 323.733,566.148 323.733,569.161C323.733,570.265 322.848,569.931 320.483,567.934C316.341,564.438 310.025,561.55 306.458,561.522C302.707,561.492 301.733,564.387 301.733,575.565C301.733,581.401 301.351,584.5 300.632,584.5C299.892,584.5 299.646,581.819 299.882,576.324L300.233,568.147L296.857,566.158C294.448,564.739 293.037,564.449 291.931,565.147C289.851,566.459 286.649,577.899 286.794,583.5C287.032,592.698 286.777,594.5 285.233,594.5C284.408,594.5 283.68,594.387 283.616,594.25C283.552,594.113 282.989,587.475 282.366,579.5L281.233,565L278.423,564.678C276.877,564.501 275.023,564.844 274.303,565.442C273.354,566.229 271.019,566.112 265.798,565.014C260.877,563.978 258.023,563.809 256.773,564.479C253.339,566.316 251.549,575.42 253.796,579.617C254.38,580.71 254.691,582.592 254.485,583.802C254.206,585.448 253.21,584.076 250.519,578.336C246.363,569.473 243.543,567.135 236.909,567.055C233.003,567.008 232.139,567.368 231.045,569.5C229.236,573.026 229.42,583.676 231.374,588.561C232.957,592.517 232.941,592.737 230.926,594.752L228.836,596.841L217.936,591.554L207.037,586.266L210.482,579.552L213.926,572.838L205.222,554.419C200.435,544.288 195.891,534.256 195.125,532.124C193.51,527.628 193.304,519.759 194.705,516.074C196.096,512.415 195.359,511.302 188.988,507.441C181.684,503.014 175.016,502.687 169.84,506.5C167.77,508.025 166.292,508.565 166.052,507.886C164.274,502.868 159.31,497.301 154.58,495.019C151.708,493.633 149.268,492.5 149.157,492.5C149.046,492.5 148.696,493.962 148.379,495.75C146.434,506.718 146.513,509.255 149.074,518.122C150.485,523.005 151.95,528.768 152.331,530.93C152.769,533.415 154.391,536.356 156.744,538.93C161.546,544.182 162.728,546.619 167.208,560.5C174.683,583.663 177.675,605.99 174.361,613.872C173.454,616.028 172.733,620.464 172.733,623.881L172.733,630.019L183.483,635.936C196.916,643.33 210.038,651.589 224.233,661.584C235.898,669.797 245.746,675.112 254.689,678.022C259.691,679.65 263.023,679.733 294.689,679.015C335.889,678.082 343.125,678.147 364.942,679.638L381.65,680.78L391.942,675.758C394.812,674.358 398.516,672.552 402.151,670.781ZM265.273,580.607C263.177,586.368 261.753,590.836 261.972,590.963C262.116,591.046 264.098,592.551 266.377,594.307C270.912,597.801 272.468,598.146 275.081,596.235C276.667,595.075 276.382,594.345 271.669,587.485C265.449,578.431 265.892,578.906 265.273,580.607ZM325.785,531.053C319.388,545.535 319.499,556.399 326.2,558.081C328.495,558.657 334.928,556.896 338.892,555.035L325.785,531.053ZM304.314,519.513C301.058,521.106 297.851,522.993 297.187,523.705C296.41,524.538 295.765,530.577 295.378,540.624L294.777,556.249L300.858,557.445C307.011,558.655 314.194,558.113 316.483,556.264C318.117,554.945 318.216,532.272 316.602,529.255C315.98,528.093 315.192,524.86 314.852,522.071C314.085,515.787 312.641,515.436 304.314,519.513ZM155.932,220.272C150.859,226.475 145.973,233.208 142.46,239.057C134.247,252.732 127.213,272.931 124.34,291.085C122.49,302.774 121.647,305.462 117.087,314.21C114.259,319.636 113.733,321.692 113.733,327.323C113.733,335.64 116.455,352.488 122.31,380.415C128.747,411.116 128.022,409.081 133.77,412.618C136.486,414.289 139.663,416.997 140.83,418.636L142.952,421.616L138.183,429.308C135.56,433.539 132.543,438.459 131.479,440.242C130.048,442.641 129.421,446.019 129.067,453.242C128.647,461.8 128.836,463.39 130.598,466.171C133.142,470.185 139.562,473.955 150.762,478.011C155.603,479.763 161.289,482.557 163.398,484.218C167.807,487.691 176.96,492.5 179.161,492.5C181.406,492.5 184.188,489.05 187.709,481.897C189.758,477.735 191.29,475.715 192.053,476.167C199.772,480.733 219.952,494.963 221.501,496.932C224.95,501.316 227.085,512.441 226.278,521.819C225.89,526.318 225.532,531.35 225.482,533C225.358,537.117 233.471,554.282 235.906,555.055C236.973,555.393 239.523,554.769 241.692,553.638C244.907,551.963 246.196,551.789 249.22,552.624C253.169,553.714 255.733,552.581 255.733,549.746C255.733,548.916 254.334,544.164 252.625,539.184C249.668,530.572 249.604,530.068 251.316,528.816C255.508,525.75 256.393,526.933 257.073,536.507C257.797,546.706 259.224,550.829 263.36,554.666C266.853,557.907 268.527,558.31 271.554,556.637C273.301,555.671 274.636,555.619 276.953,556.427C284.345,559.004 292.691,556.259 291.328,551.699C291.048,550.764 290.297,546.922 289.658,543.159C286.865,526.717 291.758,516.519 302.451,516.493C303.981,516.49 306.583,515.593 308.233,514.5C312.133,511.917 313.334,511.987 316.915,515L317.092,515.148L293.026,471.115C292.183,470.199 291.428,468.795 290.774,466.993L255.739,402.89C255.244,403.28 254.854,403.5 254.615,403.5C253.925,403.5 237.733,380.863 237.733,379.898C237.733,379.635 238.718,378.087 239.921,376.46C240.175,376.116 240.458,375.786 240.758,375.478L238.02,370.47C236.873,373.188 235.123,375.722 232.745,377.87C215.986,393.011 190.374,374.308 199.708,353.746C201.903,348.91 205.842,344.854 210.233,342.908C213.363,341.521 218.092,341.194 222.371,341.836L219.403,336.405L216.188,337.154C207.243,339.237 207.625,339.467 201.926,328.587C199.07,323.134 196.733,318.245 196.733,317.722C196.733,316.753 201.684,314.649 206.773,313.296L155.932,220.272ZM270.233,519.716C268.583,520.298 267.076,520.907 266.884,521.069C266.353,521.518 271.951,531.5 272.734,531.5C273.669,531.5 275.733,524.367 275.733,521.134C275.733,518.287 274.897,518.071 270.233,519.716ZM224.733,386.238C221.708,387.106 219.061,387.953 218.852,388.122C218.51,388.397 212.881,414.92 212.776,416.75C212.713,417.852 222.459,417.663 229.299,416.431C235.45,415.322 249.003,409.709 248.512,408.473C247.505,405.936 232.041,384.59 231.233,384.622C230.683,384.644 227.758,385.371 224.733,386.238ZM189.018,387.338C183.949,391.002 179.268,394.542 178.614,395.204C176.821,397.02 187.79,407.256 195.763,411.205C206.376,416.463 205.823,416.822 208.401,403C211.481,386.491 211.577,387.191 205.718,383.586C202.96,381.889 200.147,380.54 199.468,380.588C198.789,380.636 194.086,383.674 189.018,387.338ZM168.27,355.75C166.242,362.084 167.762,376.566 171.266,384.299L173.667,389.598L180.95,384.44C184.956,381.603 189.941,378.133 192.028,376.728C194.115,375.324 195.603,373.604 195.335,372.905C195.067,372.207 194.545,368.96 194.175,365.69C193.805,362.42 193.201,359.257 192.833,358.661C192.196,357.631 175.782,354.513 170.952,354.504C169.697,354.502 168.49,355.063 168.27,355.75ZM182.76,327.25C177.014,333.18 172.338,340.24 171.229,344.662L170.594,347.189L183.2,349.015C195.581,350.809 195.83,350.807 197.188,348.921C197.948,347.864 199.251,346.1 200.084,345C201.483,343.15 201.173,342.192 195.957,332.25C192.855,326.338 189.87,321.5 189.324,321.5C188.778,321.5 185.824,324.088 182.76,327.25Z" style="fill:rgb(28,28,28);"/>
        </g>
    </g>
</svg>
